<svg xmlns="http://www.w3.org/2000/svg" viewBox="0 0 96 96" fill="none" stroke="currentColor" stroke-width="2" stroke-linecap="round" stroke-linejoin="round" role="img" aria-label="Empty inbox, all clear">
  <!-- inbox tray -->
  <path d="M20 44 L28 24 H68 L76 44" />
  <path d="M20 44 V68 a4 4 0 0 0 4 4 H72 a4 4 0 0 0 4 -4 V44 H62 a3 3 0 0 0 -3 3 a11 11 0 0 1 -22 0 a3 3 0 0 0 -3 -3 H20 Z" />
  <!-- calm check / all-clear floating above -->
  <path d="M40 16 l5 5 l11 -11" opacity="0.85" />
  <!-- gentle rest lines -->
  <path d="M30 36 H40" opacity="0.5" />
  <path d="M56 36 H66" opacity="0.5" />
</svg>
