<svg xmlns="http://www.w3.org/2000/svg" viewBox="0 0 120 120"><defs><filter id="b7" x="-80%" y="-80%" width="260%" height="260%"><feGaussianBlur stdDeviation="4"></feGaussianBlur></filter><filter id="b3" x="-80%" y="-80%" width="260%" height="260%"><feGaussianBlur stdDeviation="1.4"></feGaussianBlur></filter><filter id="b12" x="-100%" y="-100%" width="300%" height="300%"><feGaussianBlur stdDeviation="9"></feGaussianBlur></filter><filter id="tg" x="-40%" y="-40%" width="180%" height="180%"><feGaussianBlur stdDeviation="6"></feGaussianBlur></filter></defs><g><path d="M60.00,106.98 L61.39,107.09 L62.78,107.16 L64.17,107.19 L65.56,107.18 L66.94,107.13 L68.31,107.05 L69.68,106.92 L71.04,106.75 L72.39,106.55 L73.73,106.30 L75.06,106.02 L76.37,105.70 L77.68,105.34 L78.96,104.95 L80.24,104.52 L81.49,104.05 L82.73,103.54 L83.95,103.00 L85.15,102.42 L86.32,101.80 L87.48,101.16 L88.61,100.47 L89.72,99.76 L90.81,99.01 L91.87,98.23 L92.90,97.41 L93.90,96.57 L94.88,95.69 L95.83,94.79 L96.75,93.86 L97.64,92.89 L98.49,91.91 L99.32,90.89" fill="none" stroke="#2E6BFF" stroke-width="1.05" stroke-linecap="round" opacity="0.24"></path><path d="M60.00,106.98 L61.02,107.31 L62.04,107.60 L63.05,107.85 L64.07,108.06 L65.08,108.23 L66.08,108.36 L67.08,108.45 L68.08,108.50 L69.07,108.51 L70.05,108.48 L71.02,108.41 L71.99,108.30 L72.94,108.15 L73.88,107.96 L74.81,107.73 L75.73,107.46" fill="none" stroke="#2E6BFF" stroke-width="1.05" stroke-linecap="round" opacity="0.24"></path><path d="M60.00,106.98 L60.37,107.44 L60.75,107.86 L61.12,108.24 L61.49,108.57 L61.86,108.87 L62.23,109.13 L62.59,109.34 L62.96,109.52 L63.32,109.65 L63.68,109.74 L64.03,109.79 L64.39,109.80" fill="none" stroke="#2E6BFF" stroke-width="1.05" stroke-linecap="round" opacity="0.24"></path><path d="M60.00,106.98 L59.63,107.44 L59.25,107.86 L58.88,108.24 L58.51,108.57 L58.14,108.87 L57.77,109.13 L57.41,109.34 L57.04,109.52 L56.68,109.65 L56.32,109.74 L55.97,109.79 L55.61,109.80" fill="none" stroke="#2E6BFF" stroke-width="1.05" stroke-linecap="round" opacity="0.24"></path><path d="M60.00,106.98 L58.98,107.31 L57.96,107.60 L56.95,107.85 L55.93,108.06 L54.92,108.23 L53.92,108.36 L52.92,108.45 L51.92,108.50 L50.93,108.51 L49.95,108.48 L48.98,108.41 L48.01,108.30 L47.06,108.15 L46.12,107.96 L45.19,107.73 L44.27,107.46" fill="none" stroke="#2E6BFF" stroke-width="1.05" stroke-linecap="round" opacity="0.24"></path><path d="M60.00,106.98 L58.61,107.09 L57.22,107.16 L55.83,107.19 L54.44,107.18 L53.06,107.13 L51.69,107.05 L50.32,106.92 L48.96,106.75 L47.61,106.55 L46.27,106.30 L44.94,106.02 L43.63,105.70 L42.32,105.34 L41.04,104.95 L39.76,104.52 L38.51,104.05 L37.27,103.54 L36.05,103.00 L34.85,102.42 L33.68,101.80 L32.52,101.16 L31.39,100.47 L30.28,99.76 L29.19,99.01 L28.13,98.23 L27.10,97.41 L26.10,96.57 L25.12,95.69 L24.17,94.79 L23.25,93.86 L22.36,92.89 L21.51,91.91 L20.68,90.89" fill="none" stroke="#2E6BFF" stroke-width="1.05" stroke-linecap="round" opacity="0.24"></path><path d="M60.00,106.98 L58.61,106.84 L57.22,106.65 L55.83,106.43 L54.44,106.16 L53.06,105.86 L51.69,105.52 L50.32,105.14 L48.96,104.73 L47.61,104.28 L46.27,103.79 L44.94,103.26 L43.63,102.70 L42.32,102.11 L41.04,101.47 L39.76,100.81 L38.51,100.11 L37.27,99.37 L36.05,98.61 L34.85,97.81 L33.68,96.98 L32.52,96.12 L31.39,95.23 L30.28,94.31 L29.19,93.36 L28.13,92.39 L27.10,91.38 L26.10,90.35 L25.12,89.30 L24.17,88.22 L23.25,87.12 L22.36,86.00 L21.51,84.85 L20.68,83.68 L19.89,82.50 L19.13,81.29 L18.41,80.07 L17.72,78.83 L17.06,77.58 L16.44,76.31 L15.86,75.02 L15.31,73.73 L14.80,72.42 L14.33,71.10 L13.90,69.78 L13.50,68.44 L13.15,67.10 L12.83,65.75 L12.55,64.40 L12.31,63.05 L12.11,61.69 L11.95,60.33 L11.83,58.97 L11.75,57.61 L11.71,56.25 L11.71,54.90 L11.75,53.55 L11.83,52.20 L11.95,50.86 L12.11,49.53 L12.31,48.21 L12.55,46.90 L12.83,45.60 L13.15,44.31 L13.50,43.03 L13.90,41.77 L14.33,40.53 L14.80,39.29 L15.31,38.08 L15.86,36.89 L16.44,35.71 L17.06,34.55 L17.72,33.42 L18.41,32.31 L19.13,31.22 L19.89,30.15" fill="none" stroke="#2E6BFF" stroke-width="1.05" stroke-linecap="round" opacity="0.24"></path><path d="M60.00,106.98 L58.98,106.62 L57.96,106.21 L56.95,105.76 L55.93,105.28 L54.92,104.76 L53.92,104.20 L52.92,103.61 L51.92,102.98 L50.93,102.31 L49.95,101.61 L48.98,100.87 L48.01,100.10 L47.06,99.30 L46.12,98.46 L45.19,97.60 L44.27,96.70 L43.36,95.77 L42.47,94.81 L41.59,93.82 L40.73,92.80 L39.88,91.76 L39.05,90.69 L38.24,89.59 L37.45,88.47 L36.67,87.33 L35.92,86.16 L35.18,84.97 L34.47,83.76 L33.77,82.54 L33.10,81.29 L32.45,80.02 L31.82,78.74 L31.22,77.44 L30.64,76.13 L30.08,74.81 L29.55,73.47 L29.05,72.12 L28.57,70.76 L28.11,69.39 L27.69,68.02 L27.29,66.64 L26.91,65.25 L26.57,63.86 L26.25,62.46 L25.96,61.06 L25.70,59.66 L25.47,58.27 L25.26,56.87 L25.09,55.48 L24.94,54.09 L24.82,52.70 L24.74,51.32 L24.68,49.95 L24.65,48.59 L24.65,47.23 L24.68,45.89 L24.74,44.56 L24.82,43.24 L24.94,41.93 L25.09,40.64 L25.26,39.37 L25.47,38.11 L25.70,36.87 L25.96,35.65 L26.25,34.45 L26.57,33.28 L26.91,32.12 L27.29,30.99 L27.69,29.88 L28.11,28.80 L28.57,27.74 L29.05,26.71 L29.55,25.70 L30.08,24.73 L30.64,23.78 L31.22,22.87 L31.82,21.98 L32.45,21.13 L33.10,20.31 L33.77,19.52 L34.47,18.77 L35.18,18.05 L35.92,17.36 L36.67,16.72 L37.45,16.10 L38.24,15.52 L39.05,14.98 L39.88,14.48 L40.73,14.02 L41.59,13.59 L42.47,13.20 L43.36,12.85" fill="none" stroke="#2E6BFF" stroke-width="1.05" stroke-linecap="round" opacity="0.24"></path><path d="M60.00,106.98 L59.63,106.49 L59.25,105.95 L58.88,105.38 L58.51,104.77 L58.14,104.13 L57.77,103.44 L57.41,102.72 L57.04,101.97 L56.68,101.18 L56.32,100.35 L55.97,99.49 L55.61,98.60 L55.26,97.68 L54.92,96.73 L54.58,95.74 L54.24,94.73 L53.91,93.68 L53.58,92.61 L53.26,91.51 L52.95,90.39 L52.64,89.24 L52.33,88.07 L52.04,86.87 L51.75,85.65 L51.46,84.41 L51.18,83.15 L50.92,81.87 L50.65,80.57 L50.40,79.25 L50.15,77.92 L49.92,76.57 L49.69,75.21 L49.47,73.84 L49.25,72.46 L49.05,71.06 L48.86,69.66 L48.67,68.24 L48.50,66.83 L48.33,65.40 L48.17,63.97 L48.03,62.54 L47.89,61.11 L47.76,59.67 L47.65,58.24 L47.54,56.80 L47.45,55.37 L47.36,53.94 L47.29,52.52 L47.22,51.11 L47.17,49.70 L47.12,48.30 L47.09,46.91 L47.07,45.53 L47.06,44.16 L47.06,42.81 L47.07,41.47 L47.09,40.14 L47.12,38.83 L47.17,37.54 L47.22,36.27 L47.29,35.02 L47.36,33.79 L47.45,32.58 L47.54,31.39 L47.65,30.23 L47.76,29.09 L47.89,27.98 L48.03,26.89 L48.17,25.83 L48.33,24.80 L48.50,23.80 L48.67,22.83 L48.86,21.89 L49.05,20.98 L49.25,20.11 L49.47,19.27 L49.69,18.46 L49.92,17.68 L50.15,16.94 L50.40,16.24 L50.65,15.57 L50.92,14.94 L51.18,14.35 L51.46,13.79 L51.75,13.28 L52.04,12.80 L52.33,12.36 L52.64,11.96 L52.95,11.60 L53.26,11.29 L53.58,11.01 L53.91,10.77 L54.24,10.57 L54.58,10.42 L54.92,10.30 L55.26,10.23" fill="none" stroke="#2E6BFF" stroke-width="1.05" stroke-linecap="round" opacity="0.24"></path><path d="M60.00,106.98 L60.37,106.49 L60.75,105.95 L61.12,105.38 L61.49,104.77 L61.86,104.13 L62.23,103.44 L62.59,102.72 L62.96,101.97 L63.32,101.18 L63.68,100.35 L64.03,99.49 L64.39,98.60 L64.74,97.68 L65.08,96.73 L65.42,95.74 L65.76,94.73 L66.09,93.68 L66.42,92.61 L66.74,91.51 L67.05,90.39 L67.36,89.24 L67.67,88.07 L67.96,86.87 L68.25,85.65 L68.54,84.41 L68.82,83.15 L69.08,81.87 L69.35,80.57 L69.60,79.25 L69.85,77.92 L70.08,76.57 L70.31,75.21 L70.53,73.84 L70.75,72.46 L70.95,71.06 L71.14,69.66 L71.33,68.24 L71.50,66.83 L71.67,65.40 L71.83,63.97 L71.97,62.54 L72.11,61.11 L72.24,59.67 L72.35,58.24 L72.46,56.80 L72.55,55.37 L72.64,53.94 L72.71,52.52 L72.78,51.11 L72.83,49.70 L72.88,48.30 L72.91,46.91 L72.93,45.53 L72.94,44.16 L72.94,42.81 L72.93,41.47 L72.91,40.14 L72.88,38.83 L72.83,37.54 L72.78,36.27 L72.71,35.02 L72.64,33.79 L72.55,32.58 L72.46,31.39 L72.35,30.23 L72.24,29.09 L72.11,27.98 L71.97,26.89 L71.83,25.83 L71.67,24.80 L71.50,23.80 L71.33,22.83 L71.14,21.89 L70.95,20.98 L70.75,20.11 L70.53,19.27 L70.31,18.46 L70.08,17.68 L69.85,16.94 L69.60,16.24 L69.35,15.57 L69.08,14.94 L68.82,14.35 L68.54,13.79 L68.25,13.28 L67.96,12.80 L67.67,12.36 L67.36,11.96 L67.05,11.60 L66.74,11.29 L66.42,11.01 L66.09,10.77 L65.76,10.57 L65.42,10.42 L65.08,10.30 L64.74,10.23" fill="none" stroke="#2E6BFF" stroke-width="1.05" stroke-linecap="round" opacity="0.24"></path><path d="M60.00,106.98 L61.02,106.62 L62.04,106.21 L63.05,105.76 L64.07,105.28 L65.08,104.76 L66.08,104.20 L67.08,103.61 L68.08,102.98 L69.07,102.31 L70.05,101.61 L71.02,100.87 L71.99,100.10 L72.94,99.30 L73.88,98.46 L74.81,97.60 L75.73,96.70 L76.64,95.77 L77.53,94.81 L78.41,93.82 L79.27,92.80 L80.12,91.76 L80.95,90.69 L81.76,89.59 L82.55,88.47 L83.33,87.33 L84.08,86.16 L84.82,84.97 L85.53,83.76 L86.23,82.54 L86.90,81.29 L87.55,80.02 L88.18,78.74 L88.78,77.44 L89.36,76.13 L89.92,74.81 L90.45,73.47 L90.95,72.12 L91.43,70.76 L91.89,69.39 L92.31,68.02 L92.71,66.64 L93.09,65.25 L93.43,63.86 L93.75,62.46 L94.04,61.06 L94.30,59.66 L94.53,58.27 L94.74,56.87 L94.91,55.48 L95.06,54.09 L95.18,52.70 L95.26,51.32 L95.32,49.95 L95.35,48.59 L95.35,47.23 L95.32,45.89 L95.26,44.56 L95.18,43.24 L95.06,41.93 L94.91,40.64 L94.74,39.37 L94.53,38.11 L94.30,36.87 L94.04,35.65 L93.75,34.45 L93.43,33.28 L93.09,32.12 L92.71,30.99 L92.31,29.88 L91.89,28.80 L91.43,27.74 L90.95,26.71 L90.45,25.70 L89.92,24.73 L89.36,23.78 L88.78,22.87 L88.18,21.98 L87.55,21.13 L86.90,20.31 L86.23,19.52 L85.53,18.77 L84.82,18.05 L84.08,17.36 L83.33,16.72 L82.55,16.10 L81.76,15.52 L80.95,14.98 L80.12,14.48 L79.27,14.02 L78.41,13.59 L77.53,13.20 L76.64,12.85" fill="none" stroke="#2E6BFF" stroke-width="1.05" stroke-linecap="round" opacity="0.24"></path><path d="M60.00,106.98 L61.39,106.84 L62.78,106.65 L64.17,106.43 L65.56,106.16 L66.94,105.86 L68.31,105.52 L69.68,105.14 L71.04,104.73 L72.39,104.28 L73.73,103.79 L75.06,103.26 L76.37,102.70 L77.68,102.11 L78.96,101.47 L80.24,100.81 L81.49,100.11 L82.73,99.37 L83.95,98.61 L85.15,97.81 L86.32,96.98 L87.48,96.12 L88.61,95.23 L89.72,94.31 L90.81,93.36 L91.87,92.39 L92.90,91.38 L93.90,90.35 L94.88,89.30 L95.83,88.22 L96.75,87.12 L97.64,86.00 L98.49,84.85 L99.32,83.68 L100.11,82.50 L100.87,81.29 L101.59,80.07 L102.28,78.83 L102.94,77.58 L103.56,76.31 L104.14,75.02 L104.69,73.73 L105.20,72.42 L105.67,71.10 L106.10,69.78 L106.50,68.44 L106.85,67.10 L107.17,65.75 L107.45,64.40 L107.69,63.05 L107.89,61.69 L108.05,60.33 L108.17,58.97 L108.25,57.61 L108.29,56.25 L108.29,54.90 L108.25,53.55 L108.17,52.20 L108.05,50.86 L107.89,49.53 L107.69,48.21 L107.45,46.90 L107.17,45.60 L106.85,44.31 L106.50,43.03 L106.10,41.77 L105.67,40.53 L105.20,39.29 L104.69,38.08 L104.14,36.89 L103.56,35.71 L102.94,34.55 L102.28,33.42 L101.59,32.31 L100.87,31.22 L100.11,30.15" fill="none" stroke="#2E6BFF" stroke-width="1.05" stroke-linecap="round" opacity="0.24"></path><path d="M84.15,102.90 L83.74,103.38 L83.24,103.84 L82.67,104.29 L82.03,104.73 L81.31,105.16 L80.52,105.57 L79.67,105.97" fill="none" stroke="#2E6BFF" stroke-width="1.05" stroke-linecap="round" opacity="0.24"></path><path d="M39.82,105.74 L39.01,105.33 L38.26,104.91 L37.58,104.48 L36.98,104.03 L36.46,103.57 L36.01,103.10 L35.65,102.62 L35.36,102.14 L35.16,101.65 L35.04,101.16 L35.00,100.67 L35.05,100.18 L35.17,99.69 L35.38,99.20 L35.68,98.72 L36.05,98.24 L36.50,97.77 L37.03,97.31 L37.64,96.87 L38.32,96.43 L39.07,96.01 L39.90,95.61 L40.78,95.22 L41.74,94.85 L42.75,94.50 L43.82,94.17 L44.95,93.86 L46.12,93.58 L47.34,93.32 L48.61,93.08 L49.91,92.87 L51.24,92.68 L52.61,92.52 L53.99,92.39 L55.40,92.29 L56.83,92.21 L58.26,92.16 L59.70,92.14 L61.14,92.15 L62.58,92.18 L64.01,92.25 L65.42,92.34 L66.82,92.46 L68.19,92.61 L69.54,92.79 L70.85,92.99 L72.13,93.21 L73.37,93.47 L74.57,93.74 L75.71,94.04 L76.81,94.36 L77.85,94.70 L78.83,95.06 L79.74,95.44 L80.59,95.84 L81.38,96.26 L82.09,96.68 L82.72,97.13 L83.29,97.58 L83.77,98.04 L84.18,98.52 L84.50,99.00 L84.75,99.48 L84.91,99.97 L84.99,100.46 L84.99,100.96 L84.90,101.45 L84.73,101.94 L84.48,102.42 L84.15,102.90" fill="none" stroke="#2E6BFF" stroke-width="1.05" stroke-linecap="round" opacity="0.24"></path><path d="M17.33,86.01 L16.97,85.16 L16.76,84.31 L16.70,83.46 L16.78,82.60 L17.00,81.75 L17.36,80.91 L17.87,80.07 L18.51,79.25 L19.30,78.44 L20.22,77.64 L21.27,76.87 L22.45,76.12 L23.75,75.39 L25.18,74.69 L26.72,74.02 L28.37,73.38 L30.13,72.77 L31.98,72.20 L33.93,71.67 L35.96,71.17 L38.08,70.72 L40.27,70.31 L42.52,69.94 L44.83,69.62 L47.19,69.34 L49.60,69.12 L52.04,68.93 L54.50,68.80 L56.99,68.72 L59.48,68.68 L61.98,68.70 L64.46,68.76 L66.94,68.87 L69.39,69.03 L71.81,69.24 L74.19,69.50 L76.52,69.80 L78.80,70.15 L81.02,70.54 L83.16,70.98 L85.23,71.46 L87.22,71.97 L89.11,72.53 L90.91,73.12 L92.61,73.75 L94.19,74.41 L95.67,75.10 L97.02,75.81 L98.26,76.55 L99.36,77.32 L100.34,78.11 L101.18,78.91 L101.88,79.73 L102.44,80.56 L102.87,81.40 L103.15,82.25 L103.29,83.10 L103.28,83.95 L103.13,84.81 L102.84,85.65 L102.40,86.49" fill="none" stroke="#2E6BFF" stroke-width="1.05" stroke-linecap="round" opacity="0.24"></path><path d="M10.00,59.96 L10.09,58.97 L10.35,57.99 L10.77,57.02 L11.35,56.05 L12.10,55.10 L13.00,54.16 L14.06,53.25 L15.28,52.35 L16.64,51.49 L18.15,50.64 L19.79,49.84 L21.57,49.06 L23.48,48.32 L25.50,47.62 L27.65,46.96 L29.90,46.35 L32.25,45.78 L34.69,45.25 L37.21,44.78 L39.82,44.35 L42.49,43.98 L45.21,43.66 L47.99,43.40 L50.81,43.19 L53.65,43.04 L56.52,42.94 L59.40,42.90 L62.28,42.92 L65.15,42.99 L68.01,43.12 L70.84,43.31 L73.64,43.55 L76.38,43.84 L79.08,44.19 L81.71,44.60 L84.27,45.05 L86.75,45.55 L89.14,46.10 L91.43,46.70 L93.62,47.34 L95.69,48.02 L97.65,48.75 L99.48,49.51 L101.19,50.30 L102.75,51.13 L104.17,51.99 L105.45,52.87 L106.57,53.78 L107.55,54.71 L108.36,55.65 L109.01,56.61 L109.50,57.58 L109.82,58.56 L109.98,59.55" fill="none" stroke="#2E6BFF" stroke-width="1.05" stroke-linecap="round" opacity="0.24"></path><path d="M17.87,33.09 L18.51,32.26 L19.30,31.45 L20.22,30.66 L21.27,29.89 L22.45,29.13 L23.75,28.41 L25.18,27.71 L26.72,27.03 L28.37,26.39 L30.13,25.79 L31.98,25.22 L33.93,24.68 L35.96,24.19 L38.08,23.74 L40.27,23.32 L42.52,22.96 L44.83,22.64 L47.19,22.36 L49.60,22.13 L52.04,21.95 L54.50,21.82 L56.99,21.73 L59.48,21.70 L61.98,21.71 L64.46,21.78 L66.94,21.89 L69.39,22.05 L71.81,22.26 L74.19,22.52 L76.52,22.82 L78.80,23.17 L81.02,23.56 L83.16,23.99 L85.23,24.47 L87.22,24.99 L89.11,25.54 L90.91,26.14 L92.61,26.76 L94.19,27.42 L95.67,28.11 L97.02,28.83 L98.26,29.57 L99.36,30.33 L100.34,31.12 L101.18,31.92 L101.88,32.74" fill="none" stroke="#2E6BFF" stroke-width="1.05" stroke-linecap="round" opacity="0.24"></path><path d="M40.78,13.84 L41.74,13.47 L42.75,13.12 L43.82,12.79 L44.95,12.48 L46.12,12.20 L47.34,11.94 L48.61,11.70 L49.91,11.49 L51.24,11.30 L52.61,11.14 L53.99,11.01 L55.40,10.91 L56.83,10.83 L58.26,10.78 L59.70,10.76 L61.14,10.77 L62.58,10.81 L64.01,10.87 L65.42,10.96 L66.82,11.08 L68.19,11.23 L69.54,11.41 L70.85,11.61 L72.13,11.83 L73.37,12.09 L74.57,12.36 L75.71,12.66 L76.81,12.98 L77.85,13.32 L78.83,13.68" fill="none" stroke="#2E6BFF" stroke-width="1.05" stroke-linecap="round" opacity="0.24"></path><path d="M100.11,89.85 L100.87,88.78 L101.59,87.69 L102.28,86.58 L102.94,85.45 L103.56,84.29 L104.14,83.11 L104.69,81.92 L105.20,80.71 L105.67,79.47 L106.10,78.23 L106.50,76.97 L106.85,75.69 L107.17,74.40 L107.45,73.10 L107.69,71.79 L107.89,70.47 L108.05,69.14 L108.17,67.80 L108.25,66.45 L108.29,65.10 L108.29,63.75 L108.25,62.39 L108.17,61.03 L108.05,59.67 L107.89,58.31 L107.69,56.95 L107.45,55.60 L107.17,54.25 L106.85,52.90 L106.50,51.56 L106.10,50.22 L105.67,48.90 L105.20,47.58 L104.69,46.27 L104.14,44.98 L103.56,43.69 L102.94,42.42 L102.28,41.17 L101.59,39.93 L100.87,38.71 L100.11,37.50 L99.32,36.32 L98.49,35.15 L97.64,34.00 L96.75,32.88 L95.83,31.78 L94.88,30.70 L93.90,29.65 L92.90,28.62 L91.87,27.61 L90.81,26.64 L89.72,25.69 L88.61,24.77 L87.48,23.88 L86.32,23.02 L85.15,22.19 L83.95,21.39 L82.73,20.63 L81.49,19.89 L80.24,19.19 L78.96,18.53 L77.68,17.89 L76.37,17.30 L75.06,16.74 L73.73,16.21 L72.39,15.72 L71.04,15.27 L69.68,14.86 L68.31,14.48 L66.94,14.14 L65.56,13.84 L64.17,13.57 L62.78,13.35 L61.39,13.16 L60.00,13.02" fill="none" stroke="#2E6BFF" stroke-width="1.6" stroke-linecap="round"></path><path d="M76.64,107.15 L77.53,106.80 L78.41,106.41 L79.27,105.98 L80.12,105.52 L80.95,105.02 L81.76,104.48 L82.55,103.90 L83.33,103.28 L84.08,102.64 L84.82,101.95 L85.53,101.23 L86.23,100.48 L86.90,99.69 L87.55,98.87 L88.18,98.02 L88.78,97.13 L89.36,96.22 L89.92,95.27 L90.45,94.30 L90.95,93.29 L91.43,92.26 L91.89,91.20 L92.31,90.12 L92.71,89.01 L93.09,87.88 L93.43,86.72 L93.75,85.55 L94.04,84.35 L94.30,83.13 L94.53,81.89 L94.74,80.63 L94.91,79.36 L95.06,78.07 L95.18,76.76 L95.26,75.44 L95.32,74.11 L95.35,72.77 L95.35,71.41 L95.32,70.05 L95.26,68.68 L95.18,67.30 L95.06,65.91 L94.91,64.52 L94.74,63.13 L94.53,61.73 L94.30,60.34 L94.04,58.94 L93.75,57.54 L93.43,56.14 L93.09,54.75 L92.71,53.36 L92.31,51.98 L91.89,50.61 L91.43,49.24 L90.95,47.88 L90.45,46.53 L89.92,45.19 L89.36,43.87 L88.78,42.56 L88.18,41.26 L87.55,39.98 L86.90,38.71 L86.23,37.46 L85.53,36.24 L84.82,35.03 L84.08,33.84 L83.33,32.67 L82.55,31.53 L81.76,30.41 L80.95,29.31 L80.12,28.24 L79.27,27.20 L78.41,26.18 L77.53,25.19 L76.64,24.23 L75.73,23.30 L74.81,22.40 L73.88,21.54 L72.94,20.70 L71.99,19.90 L71.02,19.13 L70.05,18.39 L69.07,17.69 L68.08,17.02 L67.08,16.39 L66.08,15.80 L65.08,15.24 L64.07,14.72 L63.05,14.24 L62.04,13.79 L61.02,13.38 L60.00,13.02" fill="none" stroke="#2E6BFF" stroke-width="1.6" stroke-linecap="round"></path><path d="M64.74,109.77 L65.08,109.70 L65.42,109.58 L65.76,109.43 L66.09,109.23 L66.42,108.99 L66.74,108.71 L67.05,108.40 L67.36,108.04 L67.67,107.64 L67.96,107.20 L68.25,106.72 L68.54,106.21 L68.82,105.65 L69.08,105.06 L69.35,104.43 L69.60,103.76 L69.85,103.06 L70.08,102.32 L70.31,101.54 L70.53,100.73 L70.75,99.89 L70.95,99.02 L71.14,98.11 L71.33,97.17 L71.50,96.20 L71.67,95.20 L71.83,94.17 L71.97,93.11 L72.11,92.02 L72.24,90.91 L72.35,89.77 L72.46,88.61 L72.55,87.42 L72.64,86.21 L72.71,84.98 L72.78,83.73 L72.83,82.46 L72.88,81.17 L72.91,79.86 L72.93,78.53 L72.94,77.19 L72.94,75.84 L72.93,74.47 L72.91,73.09 L72.88,71.70 L72.83,70.30 L72.78,68.89 L72.71,67.48 L72.64,66.06 L72.55,64.63 L72.46,63.20 L72.35,61.76 L72.24,60.33 L72.11,58.89 L71.97,57.46 L71.83,56.03 L71.67,54.60 L71.50,53.17 L71.33,51.76 L71.14,50.34 L70.95,48.94 L70.75,47.54 L70.53,46.16 L70.31,44.79 L70.08,43.43 L69.85,42.08 L69.60,40.75 L69.35,39.43 L69.08,38.13 L68.82,36.85 L68.54,35.59 L68.25,34.35 L67.96,33.13 L67.67,31.93 L67.36,30.76 L67.05,29.61 L66.74,28.49 L66.42,27.39 L66.09,26.32 L65.76,25.27 L65.42,24.26 L65.08,23.27 L64.74,22.32 L64.39,21.40 L64.03,20.51 L63.68,19.65 L63.32,18.82 L62.96,18.03 L62.59,17.28 L62.23,16.56 L61.86,15.87 L61.49,15.23 L61.12,14.62 L60.75,14.05 L60.37,13.51 L60.00,13.02" fill="none" stroke="#2E6BFF" stroke-width="1.6" stroke-linecap="round"></path><path d="M55.26,109.77 L54.92,109.70 L54.58,109.58 L54.24,109.43 L53.91,109.23 L53.58,108.99 L53.26,108.71 L52.95,108.40 L52.64,108.04 L52.33,107.64 L52.04,107.20 L51.75,106.72 L51.46,106.21 L51.18,105.65 L50.92,105.06 L50.65,104.43 L50.40,103.76 L50.15,103.06 L49.92,102.32 L49.69,101.54 L49.47,100.73 L49.25,99.89 L49.05,99.02 L48.86,98.11 L48.67,97.17 L48.50,96.20 L48.33,95.20 L48.17,94.17 L48.03,93.11 L47.89,92.02 L47.76,90.91 L47.65,89.77 L47.54,88.61 L47.45,87.42 L47.36,86.21 L47.29,84.98 L47.22,83.73 L47.17,82.46 L47.12,81.17 L47.09,79.86 L47.07,78.53 L47.06,77.19 L47.06,75.84 L47.07,74.47 L47.09,73.09 L47.12,71.70 L47.17,70.30 L47.22,68.89 L47.29,67.48 L47.36,66.06 L47.45,64.63 L47.54,63.20 L47.65,61.76 L47.76,60.33 L47.89,58.89 L48.03,57.46 L48.17,56.03 L48.33,54.60 L48.50,53.17 L48.67,51.76 L48.86,50.34 L49.05,48.94 L49.25,47.54 L49.47,46.16 L49.69,44.79 L49.92,43.43 L50.15,42.08 L50.40,40.75 L50.65,39.43 L50.92,38.13 L51.18,36.85 L51.46,35.59 L51.75,34.35 L52.04,33.13 L52.33,31.93 L52.64,30.76 L52.95,29.61 L53.26,28.49 L53.58,27.39 L53.91,26.32 L54.24,25.27 L54.58,24.26 L54.92,23.27 L55.26,22.32 L55.61,21.40 L55.97,20.51 L56.32,19.65 L56.68,18.82 L57.04,18.03 L57.41,17.28 L57.77,16.56 L58.14,15.87 L58.51,15.23 L58.88,14.62 L59.25,14.05 L59.63,13.51 L60.00,13.02" fill="none" stroke="#2E6BFF" stroke-width="1.6" stroke-linecap="round"></path><path d="M43.36,107.15 L42.47,106.80 L41.59,106.41 L40.73,105.98 L39.88,105.52 L39.05,105.02 L38.24,104.48 L37.45,103.90 L36.67,103.28 L35.92,102.64 L35.18,101.95 L34.47,101.23 L33.77,100.48 L33.10,99.69 L32.45,98.87 L31.82,98.02 L31.22,97.13 L30.64,96.22 L30.08,95.27 L29.55,94.30 L29.05,93.29 L28.57,92.26 L28.11,91.20 L27.69,90.12 L27.29,89.01 L26.91,87.88 L26.57,86.72 L26.25,85.55 L25.96,84.35 L25.70,83.13 L25.47,81.89 L25.26,80.63 L25.09,79.36 L24.94,78.07 L24.82,76.76 L24.74,75.44 L24.68,74.11 L24.65,72.77 L24.65,71.41 L24.68,70.05 L24.74,68.68 L24.82,67.30 L24.94,65.91 L25.09,64.52 L25.26,63.13 L25.47,61.73 L25.70,60.34 L25.96,58.94 L26.25,57.54 L26.57,56.14 L26.91,54.75 L27.29,53.36 L27.69,51.98 L28.11,50.61 L28.57,49.24 L29.05,47.88 L29.55,46.53 L30.08,45.19 L30.64,43.87 L31.22,42.56 L31.82,41.26 L32.45,39.98 L33.10,38.71 L33.77,37.46 L34.47,36.24 L35.18,35.03 L35.92,33.84 L36.67,32.67 L37.45,31.53 L38.24,30.41 L39.05,29.31 L39.88,28.24 L40.73,27.20 L41.59,26.18 L42.47,25.19 L43.36,24.23 L44.27,23.30 L45.19,22.40 L46.12,21.54 L47.06,20.70 L48.01,19.90 L48.98,19.13 L49.95,18.39 L50.93,17.69 L51.92,17.02 L52.92,16.39 L53.92,15.80 L54.92,15.24 L55.93,14.72 L56.95,14.24 L57.96,13.79 L58.98,13.38 L60.00,13.02" fill="none" stroke="#2E6BFF" stroke-width="1.6" stroke-linecap="round"></path><path d="M19.89,89.85 L19.13,88.78 L18.41,87.69 L17.72,86.58 L17.06,85.45 L16.44,84.29 L15.86,83.11 L15.31,81.92 L14.80,80.71 L14.33,79.47 L13.90,78.23 L13.50,76.97 L13.15,75.69 L12.83,74.40 L12.55,73.10 L12.31,71.79 L12.11,70.47 L11.95,69.14 L11.83,67.80 L11.75,66.45 L11.71,65.10 L11.71,63.75 L11.75,62.39 L11.83,61.03 L11.95,59.67 L12.11,58.31 L12.31,56.95 L12.55,55.60 L12.83,54.25 L13.15,52.90 L13.50,51.56 L13.90,50.22 L14.33,48.90 L14.80,47.58 L15.31,46.27 L15.86,44.98 L16.44,43.69 L17.06,42.42 L17.72,41.17 L18.41,39.93 L19.13,38.71 L19.89,37.50 L20.68,36.32 L21.51,35.15 L22.36,34.00 L23.25,32.88 L24.17,31.78 L25.12,30.70 L26.10,29.65 L27.10,28.62 L28.13,27.61 L29.19,26.64 L30.28,25.69 L31.39,24.77 L32.52,23.88 L33.68,23.02 L34.85,22.19 L36.05,21.39 L37.27,20.63 L38.51,19.89 L39.76,19.19 L41.04,18.53 L42.32,17.89 L43.63,17.30 L44.94,16.74 L46.27,16.21 L47.61,15.72 L48.96,15.27 L50.32,14.86 L51.69,14.48 L53.06,14.14 L54.44,13.84 L55.83,13.57 L57.22,13.35 L58.61,13.16 L60.00,13.02" fill="none" stroke="#2E6BFF" stroke-width="1.6" stroke-linecap="round"></path><path d="M20.68,29.11 L21.51,28.09 L22.36,27.11 L23.25,26.14 L24.17,25.21 L25.12,24.31 L26.10,23.43 L27.10,22.59 L28.13,21.77 L29.19,20.99 L30.28,20.24 L31.39,19.53 L32.52,18.84 L33.68,18.20 L34.85,17.58 L36.05,17.00 L37.27,16.46 L38.51,15.95 L39.76,15.48 L41.04,15.05 L42.32,14.66 L43.63,14.30 L44.94,13.98 L46.27,13.70 L47.61,13.45 L48.96,13.25 L50.32,13.08 L51.69,12.95 L53.06,12.87 L54.44,12.82 L55.83,12.81 L57.22,12.84 L58.61,12.91 L60.00,13.02" fill="none" stroke="#2E6BFF" stroke-width="1.6" stroke-linecap="round"></path><path d="M44.27,12.54 L45.19,12.27 L46.12,12.04 L47.06,11.85 L48.01,11.70 L48.98,11.59 L49.95,11.52 L50.93,11.49 L51.92,11.50 L52.92,11.55 L53.92,11.64 L54.92,11.77 L55.93,11.94 L56.95,12.15 L57.96,12.40 L58.98,12.69 L60.00,13.02" fill="none" stroke="#2E6BFF" stroke-width="1.6" stroke-linecap="round"></path><path d="M55.61,10.20 L55.97,10.21 L56.32,10.26 L56.68,10.35 L57.04,10.48 L57.41,10.66 L57.77,10.87 L58.14,11.13 L58.51,11.43 L58.88,11.76 L59.25,12.14 L59.63,12.56 L60.00,13.02" fill="none" stroke="#2E6BFF" stroke-width="1.6" stroke-linecap="round"></path><path d="M64.39,10.20 L64.03,10.21 L63.68,10.26 L63.32,10.35 L62.96,10.48 L62.59,10.66 L62.23,10.87 L61.86,11.13 L61.49,11.43 L61.12,11.76 L60.75,12.14 L60.37,12.56 L60.00,13.02" fill="none" stroke="#2E6BFF" stroke-width="1.6" stroke-linecap="round"></path><path d="M75.73,12.54 L74.81,12.27 L73.88,12.04 L72.94,11.85 L71.99,11.70 L71.02,11.59 L70.05,11.52 L69.07,11.49 L68.08,11.50 L67.08,11.55 L66.08,11.64 L65.08,11.77 L64.07,11.94 L63.05,12.15 L62.04,12.40 L61.02,12.69 L60.00,13.02" fill="none" stroke="#2E6BFF" stroke-width="1.6" stroke-linecap="round"></path><path d="M99.32,29.11 L98.49,28.09 L97.64,27.11 L96.75,26.14 L95.83,25.21 L94.88,24.31 L93.90,23.43 L92.90,22.59 L91.87,21.77 L90.81,20.99 L89.72,20.24 L88.61,19.53 L87.48,18.84 L86.32,18.20 L85.15,17.58 L83.95,17.00 L82.73,16.46 L81.49,15.95 L80.24,15.48 L78.96,15.05 L77.68,14.66 L76.37,14.30 L75.06,13.98 L73.73,13.70 L72.39,13.45 L71.04,13.25 L69.68,13.08 L68.31,12.95 L66.94,12.87 L65.56,12.82 L64.17,12.81 L62.78,12.84 L61.39,12.91 L60.00,13.02" fill="none" stroke="#2E6BFF" stroke-width="1.6" stroke-linecap="round"></path><path d="M78.75,106.35 L77.76,106.71 L76.72,107.05 L75.62,107.37 L74.47,107.66 L73.27,107.94 L72.03,108.19 L70.75,108.41 L69.43,108.61 L68.08,108.78 L66.70,108.93 L65.30,109.05 L63.89,109.14 L62.46,109.20 L61.02,109.23 L59.58,109.24 L58.14,109.22 L56.71,109.17 L55.28,109.09 L53.88,108.98 L52.49,108.85 L51.13,108.68 L49.80,108.50 L48.50,108.28 L47.24,108.04 L46.02,107.78 L44.85,107.49 L43.73,107.18 L42.67,106.85 L41.66,106.50 L40.71,106.13" fill="none" stroke="#2E6BFF" stroke-width="1.6" stroke-linecap="round"></path><path d="M101.83,87.33 L101.11,88.14 L100.26,88.95 L99.27,89.73 L98.16,90.49 L96.91,91.23 L95.55,91.95 L94.07,92.63 L92.47,93.29 L90.77,93.91 L88.96,94.50 L87.06,95.06 L85.06,95.57 L82.99,96.04 L80.84,96.48 L78.61,96.86 L76.33,97.21 L73.99,97.51 L71.61,97.76 L69.19,97.97 L66.73,98.12 L64.26,98.23 L61.77,98.29 L59.27,98.30 L56.78,98.26 L54.30,98.17 L51.83,98.04 L49.40,97.85 L47.00,97.62 L44.64,97.34 L42.33,97.01 L40.08,96.64 L37.90,96.23 L35.79,95.77 L33.76,95.27 L31.82,94.74 L29.98,94.16 L28.23,93.55 L26.59,92.91 L25.05,92.24 L23.64,91.53 L22.34,90.80 L21.18,90.05 L20.14,89.27 L19.23,88.48 L18.46,87.67 L17.82,86.84" fill="none" stroke="#2E6BFF" stroke-width="1.6" stroke-linecap="round"></path><path d="M101.83,87.33" fill="none" stroke="#2E6BFF" stroke-width="1.6" stroke-linecap="round"></path><path d="M108.30,64.43 L107.47,65.37 L106.49,66.30 L105.35,67.20 L104.06,68.08 L102.63,68.94 L101.05,69.76 L99.34,70.56 L97.49,71.31 L95.52,72.03 L93.44,72.71 L91.24,73.35 L88.94,73.95 L86.54,74.49 L84.06,74.99 L81.49,75.44 L78.86,75.84 L76.16,76.18 L73.40,76.48 L70.61,76.71 L67.77,76.89 L64.92,77.02 L62.04,77.09 L59.16,77.10 L56.28,77.05 L53.41,76.95 L50.57,76.79 L47.76,76.58 L44.98,76.31 L42.26,75.99 L39.60,75.61 L37.00,75.18 L34.48,74.71 L32.05,74.18 L29.71,73.60 L27.46,72.99 L25.33,72.32 L23.31,71.62 L21.42,70.88 L19.65,70.10 L18.01,69.29 L16.52,68.44 L15.17,67.57 L13.97,66.68 L12.92,65.76 L12.03,64.82 L11.30,63.87 L10.73,62.90 L10.32,61.93 L10.08,60.94" fill="none" stroke="#2E6BFF" stroke-width="1.6" stroke-linecap="round"></path><path d="M109.98,60.53 L109.80,61.52 L109.46,62.50 L108.96,63.47 L108.30,64.43" fill="none" stroke="#2E6BFF" stroke-width="1.6" stroke-linecap="round"></path><path d="M101.83,40.34 L101.11,41.16 L100.26,41.96 L99.27,42.75 L98.16,43.51 L96.91,44.25 L95.55,44.96 L94.07,45.65 L92.47,46.31 L90.77,46.93 L88.96,47.52 L87.06,48.07 L85.06,48.58 L82.99,49.06 L80.84,49.49 L78.61,49.88 L76.33,50.22 L73.99,50.52 L71.61,50.78 L69.19,50.98 L66.73,51.14 L64.26,51.25 L61.77,51.31 L59.27,51.32 L56.78,51.28 L54.30,51.19 L51.83,51.05 L49.40,50.87 L47.00,50.63 L44.64,50.35 L42.33,50.03 L40.08,49.66 L37.90,49.24 L35.79,48.79 L33.76,48.29 L31.82,47.75 L29.98,47.18 L28.23,46.57 L26.59,45.93 L25.05,45.25 L23.64,44.55 L22.34,43.82 L21.18,43.07 L20.14,42.29 L19.23,41.49 L18.46,40.68 L17.82,39.86 L17.33,39.02 L16.97,38.18 L16.76,37.33 L16.70,36.47 L16.78,35.62 L17.00,34.77 L17.36,33.92" fill="none" stroke="#2E6BFF" stroke-width="1.6" stroke-linecap="round"></path><path d="M102.44,33.57 L102.87,34.42 L103.15,35.26 L103.29,36.12 L103.28,36.97 L103.13,37.82 L102.84,38.67 L102.40,39.51 L101.83,40.34" fill="none" stroke="#2E6BFF" stroke-width="1.6" stroke-linecap="round"></path><path d="M84.15,21.52 L83.74,22.00 L83.24,22.46 L82.67,22.91 L82.03,23.35 L81.31,23.78 L80.52,24.19 L79.67,24.59 L78.75,24.97 L77.76,25.33 L76.72,25.67 L75.62,25.99 L74.47,26.28 L73.27,26.56 L72.03,26.81 L70.75,27.03 L69.43,27.23 L68.08,27.40 L66.70,27.55 L65.30,27.67 L63.89,27.76 L62.46,27.82 L61.02,27.85 L59.58,27.86 L58.14,27.84 L56.71,27.79 L55.28,27.71 L53.88,27.60 L52.49,27.47 L51.13,27.30 L49.80,27.12 L48.50,26.90 L47.24,26.66 L46.02,26.40 L44.85,26.11 L43.73,25.80 L42.67,25.47 L41.66,25.12 L40.71,24.75 L39.82,24.36 L39.01,23.95 L38.26,23.53 L37.58,23.10 L36.98,22.65 L36.46,22.19 L36.01,21.72 L35.65,21.24 L35.36,20.76 L35.16,20.27 L35.04,19.78 L35.00,19.29 L35.05,18.80 L35.17,18.31 L35.38,17.82 L35.68,17.34 L36.05,16.86 L36.50,16.39 L37.03,15.93 L37.64,15.49 L38.32,15.05 L39.07,14.63 L39.90,14.23" fill="none" stroke="#2E6BFF" stroke-width="1.6" stroke-linecap="round"></path><path d="M79.74,14.06 L80.59,14.46 L81.38,14.88 L82.09,15.30 L82.72,15.75 L83.29,16.20 L83.77,16.66 L84.18,17.14 L84.50,17.62 L84.75,18.10 L84.91,18.59 L84.99,19.08 L84.99,19.58 L84.90,20.07 L84.73,20.56 L84.48,21.04 L84.15,21.52" fill="none" stroke="#2E6BFF" stroke-width="1.6" stroke-linecap="round"></path><circle cx="60" cy="60" r="50" fill="none" stroke="#2E6BFF" stroke-width="1.6800000000000002"></circle></g><g><path d="M60.00,106.98 L61.39,107.09 L62.78,107.16 L64.17,107.19 L65.56,107.18 L66.94,107.13 L68.31,107.05 L69.68,106.92 L71.04,106.75 L72.39,106.55 L73.73,106.30 L75.06,106.02 L76.37,105.70 L77.68,105.34 L78.96,104.95 L80.24,104.52 L81.49,104.05 L82.73,103.54 L83.95,103.00 L85.15,102.42 L86.32,101.80 L87.48,101.16 L88.61,100.47 L89.72,99.76 L90.81,99.01 L91.87,98.23 L92.90,97.41 L93.90,96.57 L94.88,95.69 L95.83,94.79 L96.75,93.86 L97.64,92.89 L98.49,91.91 L99.32,90.89" fill="none" stroke="#5AA6FF" stroke-width="0.5" stroke-linecap="round" opacity="0.24"></path><path d="M60.00,106.98 L61.02,107.31 L62.04,107.60 L63.05,107.85 L64.07,108.06 L65.08,108.23 L66.08,108.36 L67.08,108.45 L68.08,108.50 L69.07,108.51 L70.05,108.48 L71.02,108.41 L71.99,108.30 L72.94,108.15 L73.88,107.96 L74.81,107.73 L75.73,107.46" fill="none" stroke="#5AA6FF" stroke-width="0.5" stroke-linecap="round" opacity="0.24"></path><path d="M60.00,106.98 L60.37,107.44 L60.75,107.86 L61.12,108.24 L61.49,108.57 L61.86,108.87 L62.23,109.13 L62.59,109.34 L62.96,109.52 L63.32,109.65 L63.68,109.74 L64.03,109.79 L64.39,109.80" fill="none" stroke="#5AA6FF" stroke-width="0.5" stroke-linecap="round" opacity="0.24"></path><path d="M60.00,106.98 L59.63,107.44 L59.25,107.86 L58.88,108.24 L58.51,108.57 L58.14,108.87 L57.77,109.13 L57.41,109.34 L57.04,109.52 L56.68,109.65 L56.32,109.74 L55.97,109.79 L55.61,109.80" fill="none" stroke="#5AA6FF" stroke-width="0.5" stroke-linecap="round" opacity="0.24"></path><path d="M60.00,106.98 L58.98,107.31 L57.96,107.60 L56.95,107.85 L55.93,108.06 L54.92,108.23 L53.92,108.36 L52.92,108.45 L51.92,108.50 L50.93,108.51 L49.95,108.48 L48.98,108.41 L48.01,108.30 L47.06,108.15 L46.12,107.96 L45.19,107.73 L44.27,107.46" fill="none" stroke="#5AA6FF" stroke-width="0.5" stroke-linecap="round" opacity="0.24"></path><path d="M60.00,106.98 L58.61,107.09 L57.22,107.16 L55.83,107.19 L54.44,107.18 L53.06,107.13 L51.69,107.05 L50.32,106.92 L48.96,106.75 L47.61,106.55 L46.27,106.30 L44.94,106.02 L43.63,105.70 L42.32,105.34 L41.04,104.95 L39.76,104.52 L38.51,104.05 L37.27,103.54 L36.05,103.00 L34.85,102.42 L33.68,101.80 L32.52,101.16 L31.39,100.47 L30.28,99.76 L29.19,99.01 L28.13,98.23 L27.10,97.41 L26.10,96.57 L25.12,95.69 L24.17,94.79 L23.25,93.86 L22.36,92.89 L21.51,91.91 L20.68,90.89" fill="none" stroke="#5AA6FF" stroke-width="0.5" stroke-linecap="round" opacity="0.24"></path><path d="M60.00,106.98 L58.61,106.84 L57.22,106.65 L55.83,106.43 L54.44,106.16 L53.06,105.86 L51.69,105.52 L50.32,105.14 L48.96,104.73 L47.61,104.28 L46.27,103.79 L44.94,103.26 L43.63,102.70 L42.32,102.11 L41.04,101.47 L39.76,100.81 L38.51,100.11 L37.27,99.37 L36.05,98.61 L34.85,97.81 L33.68,96.98 L32.52,96.12 L31.39,95.23 L30.28,94.31 L29.19,93.36 L28.13,92.39 L27.10,91.38 L26.10,90.35 L25.12,89.30 L24.17,88.22 L23.25,87.12 L22.36,86.00 L21.51,84.85 L20.68,83.68 L19.89,82.50 L19.13,81.29 L18.41,80.07 L17.72,78.83 L17.06,77.58 L16.44,76.31 L15.86,75.02 L15.31,73.73 L14.80,72.42 L14.33,71.10 L13.90,69.78 L13.50,68.44 L13.15,67.10 L12.83,65.75 L12.55,64.40 L12.31,63.05 L12.11,61.69 L11.95,60.33 L11.83,58.97 L11.75,57.61 L11.71,56.25 L11.71,54.90 L11.75,53.55 L11.83,52.20 L11.95,50.86 L12.11,49.53 L12.31,48.21 L12.55,46.90 L12.83,45.60 L13.15,44.31 L13.50,43.03 L13.90,41.77 L14.33,40.53 L14.80,39.29 L15.31,38.08 L15.86,36.89 L16.44,35.71 L17.06,34.55 L17.72,33.42 L18.41,32.31 L19.13,31.22 L19.89,30.15" fill="none" stroke="#5AA6FF" stroke-width="0.5" stroke-linecap="round" opacity="0.24"></path><path d="M60.00,106.98 L58.98,106.62 L57.96,106.21 L56.95,105.76 L55.93,105.28 L54.92,104.76 L53.92,104.20 L52.92,103.61 L51.92,102.98 L50.93,102.31 L49.95,101.61 L48.98,100.87 L48.01,100.10 L47.06,99.30 L46.12,98.46 L45.19,97.60 L44.27,96.70 L43.36,95.77 L42.47,94.81 L41.59,93.82 L40.73,92.80 L39.88,91.76 L39.05,90.69 L38.24,89.59 L37.45,88.47 L36.67,87.33 L35.92,86.16 L35.18,84.97 L34.47,83.76 L33.77,82.54 L33.10,81.29 L32.45,80.02 L31.82,78.74 L31.22,77.44 L30.64,76.13 L30.08,74.81 L29.55,73.47 L29.05,72.12 L28.57,70.76 L28.11,69.39 L27.69,68.02 L27.29,66.64 L26.91,65.25 L26.57,63.86 L26.25,62.46 L25.96,61.06 L25.70,59.66 L25.47,58.27 L25.26,56.87 L25.09,55.48 L24.94,54.09 L24.82,52.70 L24.74,51.32 L24.68,49.95 L24.65,48.59 L24.65,47.23 L24.68,45.89 L24.74,44.56 L24.82,43.24 L24.94,41.93 L25.09,40.64 L25.26,39.37 L25.47,38.11 L25.70,36.87 L25.96,35.65 L26.25,34.45 L26.57,33.28 L26.91,32.12 L27.29,30.99 L27.69,29.88 L28.11,28.80 L28.57,27.74 L29.05,26.71 L29.55,25.70 L30.08,24.73 L30.64,23.78 L31.22,22.87 L31.82,21.98 L32.45,21.13 L33.10,20.31 L33.77,19.52 L34.47,18.77 L35.18,18.05 L35.92,17.36 L36.67,16.72 L37.45,16.10 L38.24,15.52 L39.05,14.98 L39.88,14.48 L40.73,14.02 L41.59,13.59 L42.47,13.20 L43.36,12.85" fill="none" stroke="#5AA6FF" stroke-width="0.5" stroke-linecap="round" opacity="0.24"></path><path d="M60.00,106.98 L59.63,106.49 L59.25,105.95 L58.88,105.38 L58.51,104.77 L58.14,104.13 L57.77,103.44 L57.41,102.72 L57.04,101.97 L56.68,101.18 L56.32,100.35 L55.97,99.49 L55.61,98.60 L55.26,97.68 L54.92,96.73 L54.58,95.74 L54.24,94.73 L53.91,93.68 L53.58,92.61 L53.26,91.51 L52.95,90.39 L52.64,89.24 L52.33,88.07 L52.04,86.87 L51.75,85.65 L51.46,84.41 L51.18,83.15 L50.92,81.87 L50.65,80.57 L50.40,79.25 L50.15,77.92 L49.92,76.57 L49.69,75.21 L49.47,73.84 L49.25,72.46 L49.05,71.06 L48.86,69.66 L48.67,68.24 L48.50,66.83 L48.33,65.40 L48.17,63.97 L48.03,62.54 L47.89,61.11 L47.76,59.67 L47.65,58.24 L47.54,56.80 L47.45,55.37 L47.36,53.94 L47.29,52.52 L47.22,51.11 L47.17,49.70 L47.12,48.30 L47.09,46.91 L47.07,45.53 L47.06,44.16 L47.06,42.81 L47.07,41.47 L47.09,40.14 L47.12,38.83 L47.17,37.54 L47.22,36.27 L47.29,35.02 L47.36,33.79 L47.45,32.58 L47.54,31.39 L47.65,30.23 L47.76,29.09 L47.89,27.98 L48.03,26.89 L48.17,25.83 L48.33,24.80 L48.50,23.80 L48.67,22.83 L48.86,21.89 L49.05,20.98 L49.25,20.11 L49.47,19.27 L49.69,18.46 L49.92,17.68 L50.15,16.94 L50.40,16.24 L50.65,15.57 L50.92,14.94 L51.18,14.35 L51.46,13.79 L51.75,13.28 L52.04,12.80 L52.33,12.36 L52.64,11.96 L52.95,11.60 L53.26,11.29 L53.58,11.01 L53.91,10.77 L54.24,10.57 L54.58,10.42 L54.92,10.30 L55.26,10.23" fill="none" stroke="#5AA6FF" stroke-width="0.5" stroke-linecap="round" opacity="0.24"></path><path d="M60.00,106.98 L60.37,106.49 L60.75,105.95 L61.12,105.38 L61.49,104.77 L61.86,104.13 L62.23,103.44 L62.59,102.72 L62.96,101.97 L63.32,101.18 L63.68,100.35 L64.03,99.49 L64.39,98.60 L64.74,97.68 L65.08,96.73 L65.42,95.74 L65.76,94.73 L66.09,93.68 L66.42,92.61 L66.74,91.51 L67.05,90.39 L67.36,89.24 L67.67,88.07 L67.96,86.87 L68.25,85.65 L68.54,84.41 L68.82,83.15 L69.08,81.87 L69.35,80.57 L69.60,79.25 L69.85,77.92 L70.08,76.57 L70.31,75.21 L70.53,73.84 L70.75,72.46 L70.95,71.06 L71.14,69.66 L71.33,68.24 L71.50,66.83 L71.67,65.40 L71.83,63.97 L71.97,62.54 L72.11,61.11 L72.24,59.67 L72.35,58.24 L72.46,56.80 L72.55,55.37 L72.64,53.94 L72.71,52.52 L72.78,51.11 L72.83,49.70 L72.88,48.30 L72.91,46.91 L72.93,45.53 L72.94,44.16 L72.94,42.81 L72.93,41.47 L72.91,40.14 L72.88,38.83 L72.83,37.54 L72.78,36.27 L72.71,35.02 L72.64,33.79 L72.55,32.58 L72.46,31.39 L72.35,30.23 L72.24,29.09 L72.11,27.98 L71.97,26.89 L71.83,25.83 L71.67,24.80 L71.50,23.80 L71.33,22.83 L71.14,21.89 L70.95,20.98 L70.75,20.11 L70.53,19.27 L70.31,18.46 L70.08,17.68 L69.85,16.94 L69.60,16.24 L69.35,15.57 L69.08,14.94 L68.82,14.35 L68.54,13.79 L68.25,13.28 L67.96,12.80 L67.67,12.36 L67.36,11.96 L67.05,11.60 L66.74,11.29 L66.42,11.01 L66.09,10.77 L65.76,10.57 L65.42,10.42 L65.08,10.30 L64.74,10.23" fill="none" stroke="#5AA6FF" stroke-width="0.5" stroke-linecap="round" opacity="0.24"></path><path d="M60.00,106.98 L61.02,106.62 L62.04,106.21 L63.05,105.76 L64.07,105.28 L65.08,104.76 L66.08,104.20 L67.08,103.61 L68.08,102.98 L69.07,102.31 L70.05,101.61 L71.02,100.87 L71.99,100.10 L72.94,99.30 L73.88,98.46 L74.81,97.60 L75.73,96.70 L76.64,95.77 L77.53,94.81 L78.41,93.82 L79.27,92.80 L80.12,91.76 L80.95,90.69 L81.76,89.59 L82.55,88.47 L83.33,87.33 L84.08,86.16 L84.82,84.97 L85.53,83.76 L86.23,82.54 L86.90,81.29 L87.55,80.02 L88.18,78.74 L88.78,77.44 L89.36,76.13 L89.92,74.81 L90.45,73.47 L90.95,72.12 L91.43,70.76 L91.89,69.39 L92.31,68.02 L92.71,66.64 L93.09,65.25 L93.43,63.86 L93.75,62.46 L94.04,61.06 L94.30,59.66 L94.53,58.27 L94.74,56.87 L94.91,55.48 L95.06,54.09 L95.18,52.70 L95.26,51.32 L95.32,49.95 L95.35,48.59 L95.35,47.23 L95.32,45.89 L95.26,44.56 L95.18,43.24 L95.06,41.93 L94.91,40.64 L94.74,39.37 L94.53,38.11 L94.30,36.87 L94.04,35.65 L93.75,34.45 L93.43,33.28 L93.09,32.12 L92.71,30.99 L92.31,29.88 L91.89,28.80 L91.43,27.74 L90.95,26.71 L90.45,25.70 L89.92,24.73 L89.36,23.78 L88.78,22.87 L88.18,21.98 L87.55,21.13 L86.90,20.31 L86.23,19.52 L85.53,18.77 L84.82,18.05 L84.08,17.36 L83.33,16.72 L82.55,16.10 L81.76,15.52 L80.95,14.98 L80.12,14.48 L79.27,14.02 L78.41,13.59 L77.53,13.20 L76.64,12.85" fill="none" stroke="#5AA6FF" stroke-width="0.5" stroke-linecap="round" opacity="0.24"></path><path d="M60.00,106.98 L61.39,106.84 L62.78,106.65 L64.17,106.43 L65.56,106.16 L66.94,105.86 L68.31,105.52 L69.68,105.14 L71.04,104.73 L72.39,104.28 L73.73,103.79 L75.06,103.26 L76.37,102.70 L77.68,102.11 L78.96,101.47 L80.24,100.81 L81.49,100.11 L82.73,99.37 L83.95,98.61 L85.15,97.81 L86.32,96.98 L87.48,96.12 L88.61,95.23 L89.72,94.31 L90.81,93.36 L91.87,92.39 L92.90,91.38 L93.90,90.35 L94.88,89.30 L95.83,88.22 L96.75,87.12 L97.64,86.00 L98.49,84.85 L99.32,83.68 L100.11,82.50 L100.87,81.29 L101.59,80.07 L102.28,78.83 L102.94,77.58 L103.56,76.31 L104.14,75.02 L104.69,73.73 L105.20,72.42 L105.67,71.10 L106.10,69.78 L106.50,68.44 L106.85,67.10 L107.17,65.75 L107.45,64.40 L107.69,63.05 L107.89,61.69 L108.05,60.33 L108.17,58.97 L108.25,57.61 L108.29,56.25 L108.29,54.90 L108.25,53.55 L108.17,52.20 L108.05,50.86 L107.89,49.53 L107.69,48.21 L107.45,46.90 L107.17,45.60 L106.85,44.31 L106.50,43.03 L106.10,41.77 L105.67,40.53 L105.20,39.29 L104.69,38.08 L104.14,36.89 L103.56,35.71 L102.94,34.55 L102.28,33.42 L101.59,32.31 L100.87,31.22 L100.11,30.15" fill="none" stroke="#5AA6FF" stroke-width="0.5" stroke-linecap="round" opacity="0.24"></path><path d="M84.15,102.90 L83.74,103.38 L83.24,103.84 L82.67,104.29 L82.03,104.73 L81.31,105.16 L80.52,105.57 L79.67,105.97" fill="none" stroke="#5AA6FF" stroke-width="0.5" stroke-linecap="round" opacity="0.24"></path><path d="M39.82,105.74 L39.01,105.33 L38.26,104.91 L37.58,104.48 L36.98,104.03 L36.46,103.57 L36.01,103.10 L35.65,102.62 L35.36,102.14 L35.16,101.65 L35.04,101.16 L35.00,100.67 L35.05,100.18 L35.17,99.69 L35.38,99.20 L35.68,98.72 L36.05,98.24 L36.50,97.77 L37.03,97.31 L37.64,96.87 L38.32,96.43 L39.07,96.01 L39.90,95.61 L40.78,95.22 L41.74,94.85 L42.75,94.50 L43.82,94.17 L44.95,93.86 L46.12,93.58 L47.34,93.32 L48.61,93.08 L49.91,92.87 L51.24,92.68 L52.61,92.52 L53.99,92.39 L55.40,92.29 L56.83,92.21 L58.26,92.16 L59.70,92.14 L61.14,92.15 L62.58,92.18 L64.01,92.25 L65.42,92.34 L66.82,92.46 L68.19,92.61 L69.54,92.79 L70.85,92.99 L72.13,93.21 L73.37,93.47 L74.57,93.74 L75.71,94.04 L76.81,94.36 L77.85,94.70 L78.83,95.06 L79.74,95.44 L80.59,95.84 L81.38,96.26 L82.09,96.68 L82.72,97.13 L83.29,97.58 L83.77,98.04 L84.18,98.52 L84.50,99.00 L84.75,99.48 L84.91,99.97 L84.99,100.46 L84.99,100.96 L84.90,101.45 L84.73,101.94 L84.48,102.42 L84.15,102.90" fill="none" stroke="#5AA6FF" stroke-width="0.5" stroke-linecap="round" opacity="0.24"></path><path d="M17.33,86.01 L16.97,85.16 L16.76,84.31 L16.70,83.46 L16.78,82.60 L17.00,81.75 L17.36,80.91 L17.87,80.07 L18.51,79.25 L19.30,78.44 L20.22,77.64 L21.27,76.87 L22.45,76.12 L23.75,75.39 L25.18,74.69 L26.72,74.02 L28.37,73.38 L30.13,72.77 L31.98,72.20 L33.93,71.67 L35.96,71.17 L38.08,70.72 L40.27,70.31 L42.52,69.94 L44.83,69.62 L47.19,69.34 L49.60,69.12 L52.04,68.93 L54.50,68.80 L56.99,68.72 L59.48,68.68 L61.98,68.70 L64.46,68.76 L66.94,68.87 L69.39,69.03 L71.81,69.24 L74.19,69.50 L76.52,69.80 L78.80,70.15 L81.02,70.54 L83.16,70.98 L85.23,71.46 L87.22,71.97 L89.11,72.53 L90.91,73.12 L92.61,73.75 L94.19,74.41 L95.67,75.10 L97.02,75.81 L98.26,76.55 L99.36,77.32 L100.34,78.11 L101.18,78.91 L101.88,79.73 L102.44,80.56 L102.87,81.40 L103.15,82.25 L103.29,83.10 L103.28,83.95 L103.13,84.81 L102.84,85.65 L102.40,86.49" fill="none" stroke="#5AA6FF" stroke-width="0.5" stroke-linecap="round" opacity="0.24"></path><path d="M10.00,59.96 L10.09,58.97 L10.35,57.99 L10.77,57.02 L11.35,56.05 L12.10,55.10 L13.00,54.16 L14.06,53.25 L15.28,52.35 L16.64,51.49 L18.15,50.64 L19.79,49.84 L21.57,49.06 L23.48,48.32 L25.50,47.62 L27.65,46.96 L29.90,46.35 L32.25,45.78 L34.69,45.25 L37.21,44.78 L39.82,44.35 L42.49,43.98 L45.21,43.66 L47.99,43.40 L50.81,43.19 L53.65,43.04 L56.52,42.94 L59.40,42.90 L62.28,42.92 L65.15,42.99 L68.01,43.12 L70.84,43.31 L73.64,43.55 L76.38,43.84 L79.08,44.19 L81.71,44.60 L84.27,45.05 L86.75,45.55 L89.14,46.10 L91.43,46.70 L93.62,47.34 L95.69,48.02 L97.65,48.75 L99.48,49.51 L101.19,50.30 L102.75,51.13 L104.17,51.99 L105.45,52.87 L106.57,53.78 L107.55,54.71 L108.36,55.65 L109.01,56.61 L109.50,57.58 L109.82,58.56 L109.98,59.55" fill="none" stroke="#5AA6FF" stroke-width="0.5" stroke-linecap="round" opacity="0.24"></path><path d="M17.87,33.09 L18.51,32.26 L19.30,31.45 L20.22,30.66 L21.27,29.89 L22.45,29.13 L23.75,28.41 L25.18,27.71 L26.72,27.03 L28.37,26.39 L30.13,25.79 L31.98,25.22 L33.93,24.68 L35.96,24.19 L38.08,23.74 L40.27,23.32 L42.52,22.96 L44.83,22.64 L47.19,22.36 L49.60,22.13 L52.04,21.95 L54.50,21.82 L56.99,21.73 L59.48,21.70 L61.98,21.71 L64.46,21.78 L66.94,21.89 L69.39,22.05 L71.81,22.26 L74.19,22.52 L76.52,22.82 L78.80,23.17 L81.02,23.56 L83.16,23.99 L85.23,24.47 L87.22,24.99 L89.11,25.54 L90.91,26.14 L92.61,26.76 L94.19,27.42 L95.67,28.11 L97.02,28.83 L98.26,29.57 L99.36,30.33 L100.34,31.12 L101.18,31.92 L101.88,32.74" fill="none" stroke="#5AA6FF" stroke-width="0.5" stroke-linecap="round" opacity="0.24"></path><path d="M40.78,13.84 L41.74,13.47 L42.75,13.12 L43.82,12.79 L44.95,12.48 L46.12,12.20 L47.34,11.94 L48.61,11.70 L49.91,11.49 L51.24,11.30 L52.61,11.14 L53.99,11.01 L55.40,10.91 L56.83,10.83 L58.26,10.78 L59.70,10.76 L61.14,10.77 L62.58,10.81 L64.01,10.87 L65.42,10.96 L66.82,11.08 L68.19,11.23 L69.54,11.41 L70.85,11.61 L72.13,11.83 L73.37,12.09 L74.57,12.36 L75.71,12.66 L76.81,12.98 L77.85,13.32 L78.83,13.68" fill="none" stroke="#5AA6FF" stroke-width="0.5" stroke-linecap="round" opacity="0.24"></path><path d="M100.11,89.85 L100.87,88.78 L101.59,87.69 L102.28,86.58 L102.94,85.45 L103.56,84.29 L104.14,83.11 L104.69,81.92 L105.20,80.71 L105.67,79.47 L106.10,78.23 L106.50,76.97 L106.85,75.69 L107.17,74.40 L107.45,73.10 L107.69,71.79 L107.89,70.47 L108.05,69.14 L108.17,67.80 L108.25,66.45 L108.29,65.10 L108.29,63.75 L108.25,62.39 L108.17,61.03 L108.05,59.67 L107.89,58.31 L107.69,56.95 L107.45,55.60 L107.17,54.25 L106.85,52.90 L106.50,51.56 L106.10,50.22 L105.67,48.90 L105.20,47.58 L104.69,46.27 L104.14,44.98 L103.56,43.69 L102.94,42.42 L102.28,41.17 L101.59,39.93 L100.87,38.71 L100.11,37.50 L99.32,36.32 L98.49,35.15 L97.64,34.00 L96.75,32.88 L95.83,31.78 L94.88,30.70 L93.90,29.65 L92.90,28.62 L91.87,27.61 L90.81,26.64 L89.72,25.69 L88.61,24.77 L87.48,23.88 L86.32,23.02 L85.15,22.19 L83.95,21.39 L82.73,20.63 L81.49,19.89 L80.24,19.19 L78.96,18.53 L77.68,17.89 L76.37,17.30 L75.06,16.74 L73.73,16.21 L72.39,15.72 L71.04,15.27 L69.68,14.86 L68.31,14.48 L66.94,14.14 L65.56,13.84 L64.17,13.57 L62.78,13.35 L61.39,13.16 L60.00,13.02" fill="none" stroke="#5AA6FF" stroke-width="0.7" stroke-linecap="round"></path><path d="M76.64,107.15 L77.53,106.80 L78.41,106.41 L79.27,105.98 L80.12,105.52 L80.95,105.02 L81.76,104.48 L82.55,103.90 L83.33,103.28 L84.08,102.64 L84.82,101.95 L85.53,101.23 L86.23,100.48 L86.90,99.69 L87.55,98.87 L88.18,98.02 L88.78,97.13 L89.36,96.22 L89.92,95.27 L90.45,94.30 L90.95,93.29 L91.43,92.26 L91.89,91.20 L92.31,90.12 L92.71,89.01 L93.09,87.88 L93.43,86.72 L93.75,85.55 L94.04,84.35 L94.30,83.13 L94.53,81.89 L94.74,80.63 L94.91,79.36 L95.06,78.07 L95.18,76.76 L95.26,75.44 L95.32,74.11 L95.35,72.77 L95.35,71.41 L95.32,70.05 L95.26,68.68 L95.18,67.30 L95.06,65.91 L94.91,64.52 L94.74,63.13 L94.53,61.73 L94.30,60.34 L94.04,58.94 L93.75,57.54 L93.43,56.14 L93.09,54.75 L92.71,53.36 L92.31,51.98 L91.89,50.61 L91.43,49.24 L90.95,47.88 L90.45,46.53 L89.92,45.19 L89.36,43.87 L88.78,42.56 L88.18,41.26 L87.55,39.98 L86.90,38.71 L86.23,37.46 L85.53,36.24 L84.82,35.03 L84.08,33.84 L83.33,32.67 L82.55,31.53 L81.76,30.41 L80.95,29.31 L80.12,28.24 L79.27,27.20 L78.41,26.18 L77.53,25.19 L76.64,24.23 L75.73,23.30 L74.81,22.40 L73.88,21.54 L72.94,20.70 L71.99,19.90 L71.02,19.13 L70.05,18.39 L69.07,17.69 L68.08,17.02 L67.08,16.39 L66.08,15.80 L65.08,15.24 L64.07,14.72 L63.05,14.24 L62.04,13.79 L61.02,13.38 L60.00,13.02" fill="none" stroke="#5AA6FF" stroke-width="0.7" stroke-linecap="round"></path><path d="M64.74,109.77 L65.08,109.70 L65.42,109.58 L65.76,109.43 L66.09,109.23 L66.42,108.99 L66.74,108.71 L67.05,108.40 L67.36,108.04 L67.67,107.64 L67.96,107.20 L68.25,106.72 L68.54,106.21 L68.82,105.65 L69.08,105.06 L69.35,104.43 L69.60,103.76 L69.85,103.06 L70.08,102.32 L70.31,101.54 L70.53,100.73 L70.75,99.89 L70.95,99.02 L71.14,98.11 L71.33,97.17 L71.50,96.20 L71.67,95.20 L71.83,94.17 L71.97,93.11 L72.11,92.02 L72.24,90.91 L72.35,89.77 L72.46,88.61 L72.55,87.42 L72.64,86.21 L72.71,84.98 L72.78,83.73 L72.83,82.46 L72.88,81.17 L72.91,79.86 L72.93,78.53 L72.94,77.19 L72.94,75.84 L72.93,74.47 L72.91,73.09 L72.88,71.70 L72.83,70.30 L72.78,68.89 L72.71,67.48 L72.64,66.06 L72.55,64.63 L72.46,63.20 L72.35,61.76 L72.24,60.33 L72.11,58.89 L71.97,57.46 L71.83,56.03 L71.67,54.60 L71.50,53.17 L71.33,51.76 L71.14,50.34 L70.95,48.94 L70.75,47.54 L70.53,46.16 L70.31,44.79 L70.08,43.43 L69.85,42.08 L69.60,40.75 L69.35,39.43 L69.08,38.13 L68.82,36.85 L68.54,35.59 L68.25,34.35 L67.96,33.13 L67.67,31.93 L67.36,30.76 L67.05,29.61 L66.74,28.49 L66.42,27.39 L66.09,26.32 L65.76,25.27 L65.42,24.26 L65.08,23.27 L64.74,22.32 L64.39,21.40 L64.03,20.51 L63.68,19.65 L63.32,18.82 L62.96,18.03 L62.59,17.28 L62.23,16.56 L61.86,15.87 L61.49,15.23 L61.12,14.62 L60.75,14.05 L60.37,13.51 L60.00,13.02" fill="none" stroke="#5AA6FF" stroke-width="0.7" stroke-linecap="round"></path><path d="M55.26,109.77 L54.92,109.70 L54.58,109.58 L54.24,109.43 L53.91,109.23 L53.58,108.99 L53.26,108.71 L52.95,108.40 L52.64,108.04 L52.33,107.64 L52.04,107.20 L51.75,106.72 L51.46,106.21 L51.18,105.65 L50.92,105.06 L50.65,104.43 L50.40,103.76 L50.15,103.06 L49.92,102.32 L49.69,101.54 L49.47,100.73 L49.25,99.89 L49.05,99.02 L48.86,98.11 L48.67,97.17 L48.50,96.20 L48.33,95.20 L48.17,94.17 L48.03,93.11 L47.89,92.02 L47.76,90.91 L47.65,89.77 L47.54,88.61 L47.45,87.42 L47.36,86.21 L47.29,84.98 L47.22,83.73 L47.17,82.46 L47.12,81.17 L47.09,79.86 L47.07,78.53 L47.06,77.19 L47.06,75.84 L47.07,74.47 L47.09,73.09 L47.12,71.70 L47.17,70.30 L47.22,68.89 L47.29,67.48 L47.36,66.06 L47.45,64.63 L47.54,63.20 L47.65,61.76 L47.76,60.33 L47.89,58.89 L48.03,57.46 L48.17,56.03 L48.33,54.60 L48.50,53.17 L48.67,51.76 L48.86,50.34 L49.05,48.94 L49.25,47.54 L49.47,46.16 L49.69,44.79 L49.92,43.43 L50.15,42.08 L50.40,40.75 L50.65,39.43 L50.92,38.13 L51.18,36.85 L51.46,35.59 L51.75,34.35 L52.04,33.13 L52.33,31.93 L52.64,30.76 L52.95,29.61 L53.26,28.49 L53.58,27.39 L53.91,26.32 L54.24,25.27 L54.58,24.26 L54.92,23.27 L55.26,22.32 L55.61,21.40 L55.97,20.51 L56.32,19.65 L56.68,18.82 L57.04,18.03 L57.41,17.28 L57.77,16.56 L58.14,15.87 L58.51,15.23 L58.88,14.62 L59.25,14.05 L59.63,13.51 L60.00,13.02" fill="none" stroke="#5AA6FF" stroke-width="0.7" stroke-linecap="round"></path><path d="M43.36,107.15 L42.47,106.80 L41.59,106.41 L40.73,105.98 L39.88,105.52 L39.05,105.02 L38.24,104.48 L37.45,103.90 L36.67,103.28 L35.92,102.64 L35.18,101.95 L34.47,101.23 L33.77,100.48 L33.10,99.69 L32.45,98.87 L31.82,98.02 L31.22,97.13 L30.64,96.22 L30.08,95.27 L29.55,94.30 L29.05,93.29 L28.57,92.26 L28.11,91.20 L27.69,90.12 L27.29,89.01 L26.91,87.88 L26.57,86.72 L26.25,85.55 L25.96,84.35 L25.70,83.13 L25.47,81.89 L25.26,80.63 L25.09,79.36 L24.94,78.07 L24.82,76.76 L24.74,75.44 L24.68,74.11 L24.65,72.77 L24.65,71.41 L24.68,70.05 L24.74,68.68 L24.82,67.30 L24.94,65.91 L25.09,64.52 L25.26,63.13 L25.47,61.73 L25.70,60.34 L25.96,58.94 L26.25,57.54 L26.57,56.14 L26.91,54.75 L27.29,53.36 L27.69,51.98 L28.11,50.61 L28.57,49.24 L29.05,47.88 L29.55,46.53 L30.08,45.19 L30.64,43.87 L31.22,42.56 L31.82,41.26 L32.45,39.98 L33.10,38.71 L33.77,37.46 L34.47,36.24 L35.18,35.03 L35.92,33.84 L36.67,32.67 L37.45,31.53 L38.24,30.41 L39.05,29.31 L39.88,28.24 L40.73,27.20 L41.59,26.18 L42.47,25.19 L43.36,24.23 L44.27,23.30 L45.19,22.40 L46.12,21.54 L47.06,20.70 L48.01,19.90 L48.98,19.13 L49.95,18.39 L50.93,17.69 L51.92,17.02 L52.92,16.39 L53.92,15.80 L54.92,15.24 L55.93,14.72 L56.95,14.24 L57.96,13.79 L58.98,13.38 L60.00,13.02" fill="none" stroke="#5AA6FF" stroke-width="0.7" stroke-linecap="round"></path><path d="M19.89,89.85 L19.13,88.78 L18.41,87.69 L17.72,86.58 L17.06,85.45 L16.44,84.29 L15.86,83.11 L15.31,81.92 L14.80,80.71 L14.33,79.47 L13.90,78.23 L13.50,76.97 L13.15,75.69 L12.83,74.40 L12.55,73.10 L12.31,71.79 L12.11,70.47 L11.95,69.14 L11.83,67.80 L11.75,66.45 L11.71,65.10 L11.71,63.75 L11.75,62.39 L11.83,61.03 L11.95,59.67 L12.11,58.31 L12.31,56.95 L12.55,55.60 L12.83,54.25 L13.15,52.90 L13.50,51.56 L13.90,50.22 L14.33,48.90 L14.80,47.58 L15.31,46.27 L15.86,44.98 L16.44,43.69 L17.06,42.42 L17.72,41.17 L18.41,39.93 L19.13,38.71 L19.89,37.50 L20.68,36.32 L21.51,35.15 L22.36,34.00 L23.25,32.88 L24.17,31.78 L25.12,30.70 L26.10,29.65 L27.10,28.62 L28.13,27.61 L29.19,26.64 L30.28,25.69 L31.39,24.77 L32.52,23.88 L33.68,23.02 L34.85,22.19 L36.05,21.39 L37.27,20.63 L38.51,19.89 L39.76,19.19 L41.04,18.53 L42.32,17.89 L43.63,17.30 L44.94,16.74 L46.27,16.21 L47.61,15.72 L48.96,15.27 L50.32,14.86 L51.69,14.48 L53.06,14.14 L54.44,13.84 L55.83,13.57 L57.22,13.35 L58.61,13.16 L60.00,13.02" fill="none" stroke="#5AA6FF" stroke-width="0.7" stroke-linecap="round"></path><path d="M20.68,29.11 L21.51,28.09 L22.36,27.11 L23.25,26.14 L24.17,25.21 L25.12,24.31 L26.10,23.43 L27.10,22.59 L28.13,21.77 L29.19,20.99 L30.28,20.24 L31.39,19.53 L32.52,18.84 L33.68,18.20 L34.85,17.58 L36.05,17.00 L37.27,16.46 L38.51,15.95 L39.76,15.48 L41.04,15.05 L42.32,14.66 L43.63,14.30 L44.94,13.98 L46.27,13.70 L47.61,13.45 L48.96,13.25 L50.32,13.08 L51.69,12.95 L53.06,12.87 L54.44,12.82 L55.83,12.81 L57.22,12.84 L58.61,12.91 L60.00,13.02" fill="none" stroke="#5AA6FF" stroke-width="0.7" stroke-linecap="round"></path><path d="M44.27,12.54 L45.19,12.27 L46.12,12.04 L47.06,11.85 L48.01,11.70 L48.98,11.59 L49.95,11.52 L50.93,11.49 L51.92,11.50 L52.92,11.55 L53.92,11.64 L54.92,11.77 L55.93,11.94 L56.95,12.15 L57.96,12.40 L58.98,12.69 L60.00,13.02" fill="none" stroke="#5AA6FF" stroke-width="0.7" stroke-linecap="round"></path><path d="M55.61,10.20 L55.97,10.21 L56.32,10.26 L56.68,10.35 L57.04,10.48 L57.41,10.66 L57.77,10.87 L58.14,11.13 L58.51,11.43 L58.88,11.76 L59.25,12.14 L59.63,12.56 L60.00,13.02" fill="none" stroke="#5AA6FF" stroke-width="0.7" stroke-linecap="round"></path><path d="M64.39,10.20 L64.03,10.21 L63.68,10.26 L63.32,10.35 L62.96,10.48 L62.59,10.66 L62.23,10.87 L61.86,11.13 L61.49,11.43 L61.12,11.76 L60.75,12.14 L60.37,12.56 L60.00,13.02" fill="none" stroke="#5AA6FF" stroke-width="0.7" stroke-linecap="round"></path><path d="M75.73,12.54 L74.81,12.27 L73.88,12.04 L72.94,11.85 L71.99,11.70 L71.02,11.59 L70.05,11.52 L69.07,11.49 L68.08,11.50 L67.08,11.55 L66.08,11.64 L65.08,11.77 L64.07,11.94 L63.05,12.15 L62.04,12.40 L61.02,12.69 L60.00,13.02" fill="none" stroke="#5AA6FF" stroke-width="0.7" stroke-linecap="round"></path><path d="M99.32,29.11 L98.49,28.09 L97.64,27.11 L96.75,26.14 L95.83,25.21 L94.88,24.31 L93.90,23.43 L92.90,22.59 L91.87,21.77 L90.81,20.99 L89.72,20.24 L88.61,19.53 L87.48,18.84 L86.32,18.20 L85.15,17.58 L83.95,17.00 L82.73,16.46 L81.49,15.95 L80.24,15.48 L78.96,15.05 L77.68,14.66 L76.37,14.30 L75.06,13.98 L73.73,13.70 L72.39,13.45 L71.04,13.25 L69.68,13.08 L68.31,12.95 L66.94,12.87 L65.56,12.82 L64.17,12.81 L62.78,12.84 L61.39,12.91 L60.00,13.02" fill="none" stroke="#5AA6FF" stroke-width="0.7" stroke-linecap="round"></path><path d="M78.75,106.35 L77.76,106.71 L76.72,107.05 L75.62,107.37 L74.47,107.66 L73.27,107.94 L72.03,108.19 L70.75,108.41 L69.43,108.61 L68.08,108.78 L66.70,108.93 L65.30,109.05 L63.89,109.14 L62.46,109.20 L61.02,109.23 L59.58,109.24 L58.14,109.22 L56.71,109.17 L55.28,109.09 L53.88,108.98 L52.49,108.85 L51.13,108.68 L49.80,108.50 L48.50,108.28 L47.24,108.04 L46.02,107.78 L44.85,107.49 L43.73,107.18 L42.67,106.85 L41.66,106.50 L40.71,106.13" fill="none" stroke="#5AA6FF" stroke-width="0.7" stroke-linecap="round"></path><path d="M101.83,87.33 L101.11,88.14 L100.26,88.95 L99.27,89.73 L98.16,90.49 L96.91,91.23 L95.55,91.95 L94.07,92.63 L92.47,93.29 L90.77,93.91 L88.96,94.50 L87.06,95.06 L85.06,95.57 L82.99,96.04 L80.84,96.48 L78.61,96.86 L76.33,97.21 L73.99,97.51 L71.61,97.76 L69.19,97.97 L66.73,98.12 L64.26,98.23 L61.77,98.29 L59.27,98.30 L56.78,98.26 L54.30,98.17 L51.83,98.04 L49.40,97.85 L47.00,97.62 L44.64,97.34 L42.33,97.01 L40.08,96.64 L37.90,96.23 L35.79,95.77 L33.76,95.27 L31.82,94.74 L29.98,94.16 L28.23,93.55 L26.59,92.91 L25.05,92.24 L23.64,91.53 L22.34,90.80 L21.18,90.05 L20.14,89.27 L19.23,88.48 L18.46,87.67 L17.82,86.84" fill="none" stroke="#5AA6FF" stroke-width="0.7" stroke-linecap="round"></path><path d="M101.83,87.33" fill="none" stroke="#5AA6FF" stroke-width="0.7" stroke-linecap="round"></path><path d="M108.30,64.43 L107.47,65.37 L106.49,66.30 L105.35,67.20 L104.06,68.08 L102.63,68.94 L101.05,69.76 L99.34,70.56 L97.49,71.31 L95.52,72.03 L93.44,72.71 L91.24,73.35 L88.94,73.95 L86.54,74.49 L84.06,74.99 L81.49,75.44 L78.86,75.84 L76.16,76.18 L73.40,76.48 L70.61,76.71 L67.77,76.89 L64.92,77.02 L62.04,77.09 L59.16,77.10 L56.28,77.05 L53.41,76.95 L50.57,76.79 L47.76,76.58 L44.98,76.31 L42.26,75.99 L39.60,75.61 L37.00,75.18 L34.48,74.71 L32.05,74.18 L29.71,73.60 L27.46,72.99 L25.33,72.32 L23.31,71.62 L21.42,70.88 L19.65,70.10 L18.01,69.29 L16.52,68.44 L15.17,67.57 L13.97,66.68 L12.92,65.76 L12.03,64.82 L11.30,63.87 L10.73,62.90 L10.32,61.93 L10.08,60.94" fill="none" stroke="#5AA6FF" stroke-width="0.7" stroke-linecap="round"></path><path d="M109.98,60.53 L109.80,61.52 L109.46,62.50 L108.96,63.47 L108.30,64.43" fill="none" stroke="#5AA6FF" stroke-width="0.7" stroke-linecap="round"></path><path d="M101.83,40.34 L101.11,41.16 L100.26,41.96 L99.27,42.75 L98.16,43.51 L96.91,44.25 L95.55,44.96 L94.07,45.65 L92.47,46.31 L90.77,46.93 L88.96,47.52 L87.06,48.07 L85.06,48.58 L82.99,49.06 L80.84,49.49 L78.61,49.88 L76.33,50.22 L73.99,50.52 L71.61,50.78 L69.19,50.98 L66.73,51.14 L64.26,51.25 L61.77,51.31 L59.27,51.32 L56.78,51.28 L54.30,51.19 L51.83,51.05 L49.40,50.87 L47.00,50.63 L44.64,50.35 L42.33,50.03 L40.08,49.66 L37.90,49.24 L35.79,48.79 L33.76,48.29 L31.82,47.75 L29.98,47.18 L28.23,46.57 L26.59,45.93 L25.05,45.25 L23.64,44.55 L22.34,43.82 L21.18,43.07 L20.14,42.29 L19.23,41.49 L18.46,40.68 L17.82,39.86 L17.33,39.02 L16.97,38.18 L16.76,37.33 L16.70,36.47 L16.78,35.62 L17.00,34.77 L17.36,33.92" fill="none" stroke="#5AA6FF" stroke-width="0.7" stroke-linecap="round"></path><path d="M102.44,33.57 L102.87,34.42 L103.15,35.26 L103.29,36.12 L103.28,36.97 L103.13,37.82 L102.84,38.67 L102.40,39.51 L101.83,40.34" fill="none" stroke="#5AA6FF" stroke-width="0.7" stroke-linecap="round"></path><path d="M84.15,21.52 L83.74,22.00 L83.24,22.46 L82.67,22.91 L82.03,23.35 L81.31,23.78 L80.52,24.19 L79.67,24.59 L78.75,24.97 L77.76,25.33 L76.72,25.67 L75.62,25.99 L74.47,26.28 L73.27,26.56 L72.03,26.81 L70.75,27.03 L69.43,27.23 L68.08,27.40 L66.70,27.55 L65.30,27.67 L63.89,27.76 L62.46,27.82 L61.02,27.85 L59.58,27.86 L58.14,27.84 L56.71,27.79 L55.28,27.71 L53.88,27.60 L52.49,27.47 L51.13,27.30 L49.80,27.12 L48.50,26.90 L47.24,26.66 L46.02,26.40 L44.85,26.11 L43.73,25.80 L42.67,25.47 L41.66,25.12 L40.71,24.75 L39.82,24.36 L39.01,23.95 L38.26,23.53 L37.58,23.10 L36.98,22.65 L36.46,22.19 L36.01,21.72 L35.65,21.24 L35.36,20.76 L35.16,20.27 L35.04,19.78 L35.00,19.29 L35.05,18.80 L35.17,18.31 L35.38,17.82 L35.68,17.34 L36.05,16.86 L36.50,16.39 L37.03,15.93 L37.64,15.49 L38.32,15.05 L39.07,14.63 L39.90,14.23" fill="none" stroke="#5AA6FF" stroke-width="0.7" stroke-linecap="round"></path><path d="M79.74,14.06 L80.59,14.46 L81.38,14.88 L82.09,15.30 L82.72,15.75 L83.29,16.20 L83.77,16.66 L84.18,17.14 L84.50,17.62 L84.75,18.10 L84.91,18.59 L84.99,19.08 L84.99,19.58 L84.90,20.07 L84.73,20.56 L84.48,21.04 L84.15,21.52" fill="none" stroke="#5AA6FF" stroke-width="0.7" stroke-linecap="round"></path><circle cx="60" cy="60" r="50" fill="none" stroke="#5AA6FF" stroke-width="0.735"></circle></g></svg>