<svg xmlns="http://www.w3.org/2000/svg" viewBox="0 0 2400 480"><defs><filter id="b7" x="-80%" y="-80%" width="260%" height="260%"><feGaussianBlur stdDeviation="4"></feGaussianBlur></filter><filter id="b3" x="-80%" y="-80%" width="260%" height="260%"><feGaussianBlur stdDeviation="1.4"></feGaussianBlur></filter><filter id="b12" x="-100%" y="-100%" width="300%" height="300%"><feGaussianBlur stdDeviation="9"></feGaussianBlur></filter><filter id="tg" x="-40%" y="-40%" width="180%" height="180%"><feGaussianBlur stdDeviation="6"></feGaussianBlur></filter></defs><g transform="translate(168.0,111.30236603844915) scale(2.1449605660258477)"><g transform="translate(60,60) rotate(0.0) translate(-60,-60)"><g><path d="M60.00,103.23 L61.28,103.33 L62.56,103.39 L63.84,103.42 L65.11,103.41 L66.38,103.36 L67.65,103.28 L68.90,103.17 L70.15,103.01 L71.40,102.82 L72.63,102.60 L73.85,102.34 L75.06,102.05 L76.26,101.72 L77.45,101.35 L78.62,100.95 L79.77,100.52 L80.91,100.06 L82.03,99.56 L83.13,99.02 L84.22,98.46 L85.28,97.86 L86.32,97.24 L87.34,96.58 L88.34,95.89 L89.32,95.17 L90.27,94.42 L91.19,93.64 L92.09,92.84 L92.96,92.01 L93.81,91.15 L94.62,90.26 L95.41,89.35 L96.17,88.42" fill="none" stroke="#F4FFFA" stroke-width="1.05" stroke-linecap="round" opacity="0.24"></path><path d="M60.00,103.23 L60.94,103.53 L61.87,103.79 L62.81,104.03 L63.74,104.22 L64.67,104.38 L65.60,104.50 L66.52,104.58 L67.43,104.62 L68.34,104.63 L69.25,104.61 L70.14,104.54 L71.03,104.44 L71.90,104.30 L72.77,104.12 L73.63,103.91 L74.47,103.66" fill="none" stroke="#F4FFFA" stroke-width="1.05" stroke-linecap="round" opacity="0.24"></path><path d="M60.00,103.23 L60.34,103.65 L60.69,104.03 L61.03,104.38 L61.37,104.69 L61.71,104.96 L62.05,105.20 L62.39,105.39 L62.72,105.55 L63.05,105.68 L63.38,105.76 L63.71,105.81 L64.04,105.82" fill="none" stroke="#F4FFFA" stroke-width="1.05" stroke-linecap="round" opacity="0.24"></path><path d="M60.00,103.23 L59.66,103.65 L59.31,104.03 L58.97,104.38 L58.63,104.69 L58.29,104.96 L57.95,105.20 L57.61,105.39 L57.28,105.55 L56.95,105.68 L56.62,105.76 L56.29,105.81 L55.96,105.82" fill="none" stroke="#F4FFFA" stroke-width="1.05" stroke-linecap="round" opacity="0.24"></path><path d="M60.00,103.23 L59.06,103.53 L58.13,103.79 L57.19,104.03 L56.26,104.22 L55.33,104.38 L54.40,104.50 L53.48,104.58 L52.57,104.62 L51.66,104.63 L50.75,104.61 L49.86,104.54 L48.97,104.44 L48.10,104.30 L47.23,104.12 L46.37,103.91 L45.53,103.66" fill="none" stroke="#F4FFFA" stroke-width="1.05" stroke-linecap="round" opacity="0.24"></path><path d="M60.00,103.23 L58.72,103.33 L57.44,103.39 L56.16,103.42 L54.89,103.41 L53.62,103.36 L52.35,103.28 L51.10,103.17 L49.85,103.01 L48.60,102.82 L47.37,102.60 L46.15,102.34 L44.94,102.05 L43.74,101.72 L42.55,101.35 L41.38,100.95 L40.23,100.52 L39.09,100.06 L37.97,99.56 L36.87,99.02 L35.78,98.46 L34.72,97.86 L33.68,97.24 L32.66,96.58 L31.66,95.89 L30.68,95.17 L29.73,94.42 L28.81,93.64 L27.91,92.84 L27.04,92.01 L26.19,91.15 L25.38,90.26 L24.59,89.35 L23.83,88.42" fill="none" stroke="#F4FFFA" stroke-width="1.05" stroke-linecap="round" opacity="0.24"></path><path d="M60.00,103.23 L58.72,103.09 L57.44,102.92 L56.16,102.71 L54.89,102.47 L53.62,102.19 L52.35,101.88 L51.10,101.53 L49.85,101.15 L48.60,100.74 L47.37,100.29 L46.15,99.80 L44.94,99.29 L43.74,98.74 L42.55,98.16 L41.38,97.54 L40.23,96.90 L39.09,96.22 L37.97,95.52 L36.87,94.78 L35.78,94.02 L34.72,93.23 L33.68,92.41 L32.66,91.57 L31.66,90.69 L30.68,89.80 L29.73,88.87 L28.81,87.93 L27.91,86.96 L27.04,85.96 L26.19,84.95 L25.38,83.92 L24.59,82.86 L23.83,81.79 L23.10,80.70 L22.40,79.59 L21.74,78.46 L21.10,77.32 L20.50,76.17 L19.93,75.00 L19.39,73.82 L18.89,72.63 L18.42,71.43 L17.99,70.22 L17.59,69.00 L17.22,67.77 L16.89,66.53 L16.60,65.29 L16.34,64.05 L16.12,62.80 L15.94,61.55 L15.79,60.30 L15.68,59.05 L15.61,57.80 L15.57,56.55 L15.57,55.31 L15.61,54.06 L15.68,52.83 L15.79,51.60 L15.94,50.37 L16.12,49.16 L16.34,47.95 L16.60,46.75 L16.89,45.57 L17.22,44.39 L17.59,43.23 L17.99,42.08 L18.42,40.95 L18.89,39.83 L19.39,38.73 L19.93,37.65 L20.50,36.59 L21.10,35.55 L21.74,34.52 L22.40,33.52 L23.10,32.54" fill="none" stroke="#F4FFFA" stroke-width="1.05" stroke-linecap="round" opacity="0.24"></path><path d="M60.00,103.23 L59.06,102.89 L58.13,102.51 L57.19,102.10 L56.26,101.66 L55.33,101.18 L54.40,100.67 L53.48,100.12 L52.57,99.54 L51.66,98.93 L50.75,98.28 L49.86,97.60 L48.97,96.89 L48.10,96.16 L47.23,95.39 L46.37,94.59 L45.53,93.76 L44.69,92.90 L43.87,92.02 L43.06,91.11 L42.27,90.18 L41.49,89.22 L40.73,88.23 L39.98,87.22 L39.25,86.19 L38.54,85.14 L37.84,84.07 L37.17,82.98 L36.51,81.86 L35.87,80.73 L35.25,79.58 L34.65,78.42 L34.08,77.24 L33.52,76.05 L32.99,74.84 L32.48,73.62 L31.99,72.39 L31.52,71.15 L31.08,69.90 L30.67,68.64 L30.27,67.38 L29.90,66.10 L29.56,64.83 L29.24,63.55 L28.95,62.26 L28.68,60.98 L28.44,59.69 L28.23,58.41 L28.04,57.12 L27.88,55.84 L27.75,54.56 L27.64,53.28 L27.56,52.02 L27.50,50.75 L27.48,49.50 L27.48,48.25 L27.50,47.02 L27.56,45.79 L27.64,44.58 L27.75,43.38 L27.88,42.19 L28.04,41.02 L28.23,39.86 L28.44,38.72 L28.68,37.60 L28.95,36.50 L29.24,35.41 L29.56,34.35 L29.90,33.31 L30.27,32.29 L30.67,31.29 L31.08,30.32 L31.52,29.37 L31.99,28.45 L32.48,27.55 L32.99,26.68 L33.52,25.84 L34.08,25.03 L34.65,24.24 L35.25,23.49 L35.87,22.76 L36.51,22.07 L37.17,21.41 L37.84,20.78 L38.54,20.18 L39.25,19.61 L39.98,19.08 L40.73,18.59 L41.49,18.12 L42.27,17.70 L43.06,17.30 L43.87,16.95 L44.69,16.62" fill="none" stroke="#F4FFFA" stroke-width="1.05" stroke-linecap="round" opacity="0.24"></path><path d="M60.00,103.23 L59.66,102.77 L59.31,102.28 L58.97,101.75 L58.63,101.19 L58.29,100.60 L57.95,99.97 L57.61,99.30 L57.28,98.61 L56.95,97.88 L56.62,97.12 L56.29,96.33 L55.96,95.51 L55.64,94.67 L55.33,93.79 L55.01,92.88 L54.70,91.95 L54.40,90.99 L54.10,90.00 L53.80,88.99 L53.51,87.96 L53.23,86.90 L52.95,85.82 L52.67,84.72 L52.41,83.60 L52.14,82.45 L51.89,81.29 L51.64,80.12 L51.40,78.92 L51.17,77.71 L50.94,76.49 L50.72,75.25 L50.51,74.00 L50.31,72.73 L50.11,71.46 L49.93,70.18 L49.75,68.88 L49.58,67.59 L49.42,66.28 L49.26,64.97 L49.12,63.65 L48.98,62.34 L48.86,61.02 L48.74,59.70 L48.64,58.38 L48.54,57.06 L48.45,55.74 L48.37,54.43 L48.30,53.12 L48.24,51.82 L48.19,50.52 L48.15,49.23 L48.13,47.95 L48.11,46.69 L48.10,45.43 L48.10,44.18 L48.11,42.95 L48.13,41.73 L48.15,40.53 L48.19,39.34 L48.24,38.17 L48.30,37.02 L48.37,35.89 L48.45,34.77 L48.54,33.68 L48.64,32.61 L48.74,31.56 L48.86,30.54 L48.98,29.54 L49.12,28.57 L49.26,27.62 L49.42,26.70 L49.58,25.81 L49.75,24.94 L49.93,24.11 L50.11,23.30 L50.31,22.52 L50.51,21.78 L50.72,21.07 L50.94,20.39 L51.17,19.74 L51.40,19.13 L51.64,18.55 L51.89,18.00 L52.14,17.49 L52.41,17.02 L52.67,16.58 L52.95,16.17 L53.23,15.81 L53.51,15.48 L53.80,15.18 L54.10,14.93 L54.40,14.71 L54.70,14.53 L55.01,14.38 L55.33,14.28 L55.64,14.21" fill="none" stroke="#F4FFFA" stroke-width="1.05" stroke-linecap="round" opacity="0.24"></path><path d="M60.00,103.23 L60.34,102.77 L60.69,102.28 L61.03,101.75 L61.37,101.19 L61.71,100.60 L62.05,99.97 L62.39,99.30 L62.72,98.61 L63.05,97.88 L63.38,97.12 L63.71,96.33 L64.04,95.51 L64.36,94.67 L64.67,93.79 L64.99,92.88 L65.30,91.95 L65.60,90.99 L65.90,90.00 L66.20,88.99 L66.49,87.96 L66.77,86.90 L67.05,85.82 L67.33,84.72 L67.59,83.60 L67.86,82.45 L68.11,81.29 L68.36,80.12 L68.60,78.92 L68.83,77.71 L69.06,76.49 L69.28,75.25 L69.49,74.00 L69.69,72.73 L69.89,71.46 L70.07,70.18 L70.25,68.88 L70.42,67.59 L70.58,66.28 L70.74,64.97 L70.88,63.65 L71.02,62.34 L71.14,61.02 L71.26,59.70 L71.36,58.38 L71.46,57.06 L71.55,55.74 L71.63,54.43 L71.70,53.12 L71.76,51.82 L71.81,50.52 L71.85,49.23 L71.87,47.95 L71.89,46.69 L71.90,45.43 L71.90,44.18 L71.89,42.95 L71.87,41.73 L71.85,40.53 L71.81,39.34 L71.76,38.17 L71.70,37.02 L71.63,35.89 L71.55,34.77 L71.46,33.68 L71.36,32.61 L71.26,31.56 L71.14,30.54 L71.02,29.54 L70.88,28.57 L70.74,27.62 L70.58,26.70 L70.42,25.81 L70.25,24.94 L70.07,24.11 L69.89,23.30 L69.69,22.52 L69.49,21.78 L69.28,21.07 L69.06,20.39 L68.83,19.74 L68.60,19.13 L68.36,18.55 L68.11,18.00 L67.86,17.49 L67.59,17.02 L67.33,16.58 L67.05,16.17 L66.77,15.81 L66.49,15.48 L66.20,15.18 L65.90,14.93 L65.60,14.71 L65.30,14.53 L64.99,14.38 L64.67,14.28 L64.36,14.21" fill="none" stroke="#F4FFFA" stroke-width="1.05" stroke-linecap="round" opacity="0.24"></path><path d="M60.00,103.23 L60.94,102.89 L61.87,102.51 L62.81,102.10 L63.74,101.66 L64.67,101.18 L65.60,100.67 L66.52,100.12 L67.43,99.54 L68.34,98.93 L69.25,98.28 L70.14,97.60 L71.03,96.89 L71.90,96.16 L72.77,95.39 L73.63,94.59 L74.47,93.76 L75.31,92.90 L76.13,92.02 L76.94,91.11 L77.73,90.18 L78.51,89.22 L79.27,88.23 L80.02,87.22 L80.75,86.19 L81.46,85.14 L82.16,84.07 L82.83,82.98 L83.49,81.86 L84.13,80.73 L84.75,79.58 L85.35,78.42 L85.92,77.24 L86.48,76.05 L87.01,74.84 L87.52,73.62 L88.01,72.39 L88.48,71.15 L88.92,69.90 L89.33,68.64 L89.73,67.38 L90.10,66.10 L90.44,64.83 L90.76,63.55 L91.05,62.26 L91.32,60.98 L91.56,59.69 L91.77,58.41 L91.96,57.12 L92.12,55.84 L92.25,54.56 L92.36,53.28 L92.44,52.02 L92.50,50.75 L92.52,49.50 L92.52,48.25 L92.50,47.02 L92.44,45.79 L92.36,44.58 L92.25,43.38 L92.12,42.19 L91.96,41.02 L91.77,39.86 L91.56,38.72 L91.32,37.60 L91.05,36.50 L90.76,35.41 L90.44,34.35 L90.10,33.31 L89.73,32.29 L89.33,31.29 L88.92,30.32 L88.48,29.37 L88.01,28.45 L87.52,27.55 L87.01,26.68 L86.48,25.84 L85.92,25.03 L85.35,24.24 L84.75,23.49 L84.13,22.76 L83.49,22.07 L82.83,21.41 L82.16,20.78 L81.46,20.18 L80.75,19.61 L80.02,19.08 L79.27,18.59 L78.51,18.12 L77.73,17.70 L76.94,17.30 L76.13,16.95 L75.31,16.62" fill="none" stroke="#F4FFFA" stroke-width="1.05" stroke-linecap="round" opacity="0.24"></path><path d="M60.00,103.23 L61.28,103.09 L62.56,102.92 L63.84,102.71 L65.11,102.47 L66.38,102.19 L67.65,101.88 L68.90,101.53 L70.15,101.15 L71.40,100.74 L72.63,100.29 L73.85,99.80 L75.06,99.29 L76.26,98.74 L77.45,98.16 L78.62,97.54 L79.77,96.90 L80.91,96.22 L82.03,95.52 L83.13,94.78 L84.22,94.02 L85.28,93.23 L86.32,92.41 L87.34,91.57 L88.34,90.69 L89.32,89.80 L90.27,88.87 L91.19,87.93 L92.09,86.96 L92.96,85.96 L93.81,84.95 L94.62,83.92 L95.41,82.86 L96.17,81.79 L96.90,80.70 L97.60,79.59 L98.26,78.46 L98.90,77.32 L99.50,76.17 L100.07,75.00 L100.61,73.82 L101.11,72.63 L101.58,71.43 L102.01,70.22 L102.41,69.00 L102.78,67.77 L103.11,66.53 L103.40,65.29 L103.66,64.05 L103.88,62.80 L104.06,61.55 L104.21,60.30 L104.32,59.05 L104.39,57.80 L104.43,56.55 L104.43,55.31 L104.39,54.06 L104.32,52.83 L104.21,51.60 L104.06,50.37 L103.88,49.16 L103.66,47.95 L103.40,46.75 L103.11,45.57 L102.78,44.39 L102.41,43.23 L102.01,42.08 L101.58,40.95 L101.11,39.83 L100.61,38.73 L100.07,37.65 L99.50,36.59 L98.90,35.55 L98.26,34.52 L97.60,33.52 L96.90,32.54" fill="none" stroke="#F4FFFA" stroke-width="1.05" stroke-linecap="round" opacity="0.24"></path><path d="M82.22,99.47 L81.84,99.91 L81.38,100.33 L80.86,100.75 L80.27,101.15 L79.61,101.55 L78.88,101.93 L78.09,102.29" fill="none" stroke="#F4FFFA" stroke-width="1.05" stroke-linecap="round" opacity="0.24"></path><path d="M41.44,102.08 L40.69,101.71 L40.00,101.32 L39.38,100.92 L38.83,100.51 L38.34,100.08 L37.93,99.65 L37.60,99.21 L37.33,98.77 L37.15,98.32 L37.04,97.87 L37.00,97.42 L37.04,96.96 L37.16,96.51 L37.35,96.06 L37.62,95.62 L37.96,95.18 L38.38,94.75 L38.87,94.33 L39.43,93.92 L40.05,93.52 L40.75,93.13 L41.50,92.76 L42.32,92.40 L43.20,92.06 L44.13,91.74 L45.12,91.44 L46.15,91.15 L47.23,90.89 L48.36,90.65 L49.52,90.43 L50.72,90.24 L51.94,90.07 L53.20,89.92 L54.48,89.80 L55.77,89.70 L57.08,89.63 L58.40,89.59 L59.72,89.57 L61.05,89.58 L62.37,89.61 L63.69,89.67 L64.99,89.76 L66.27,89.87 L67.54,90.00 L68.78,90.16 L69.99,90.35 L71.16,90.56 L72.30,90.79 L73.40,91.04 L74.46,91.32 L75.46,91.61 L76.42,91.93 L77.32,92.26 L78.16,92.61 L78.95,92.97 L79.67,93.36 L80.32,93.75 L80.91,94.16 L81.42,94.57 L81.87,95.00 L82.24,95.44 L82.54,95.88 L82.77,96.32 L82.92,96.77 L82.99,97.23 L82.99,97.68 L82.91,98.13 L82.75,98.58 L82.52,99.03 L82.22,99.47" fill="none" stroke="#F4FFFA" stroke-width="1.05" stroke-linecap="round" opacity="0.24"></path><path d="M20.74,83.93 L20.42,83.15 L20.22,82.37 L20.16,81.58 L20.23,80.80 L20.44,80.01 L20.77,79.24 L21.24,78.47 L21.83,77.71 L22.55,76.96 L23.40,76.23 L24.37,75.52 L25.45,74.83 L26.65,74.16 L27.96,73.51 L29.38,72.90 L30.90,72.31 L32.52,71.75 L34.22,71.22 L36.02,70.73 L37.89,70.28 L39.83,69.86 L41.85,69.48 L43.92,69.15 L46.05,68.85 L48.22,68.60 L50.43,68.39 L52.67,68.22 L54.94,68.10 L57.23,68.02 L59.52,67.99 L61.82,68.00 L64.11,68.06 L66.38,68.16 L68.64,68.31 L70.86,68.50 L73.05,68.74 L75.20,69.02 L77.30,69.34 L79.34,69.70 L81.31,70.10 L83.21,70.54 L85.04,71.02 L86.78,71.53 L88.44,72.07 L90.00,72.65 L91.46,73.25 L92.81,73.89 L94.06,74.55 L95.20,75.23 L96.21,75.93 L97.11,76.66 L97.88,77.40 L98.53,78.15 L99.05,78.91 L99.44,79.69 L99.70,80.47 L99.82,81.25 L99.82,82.04 L99.68,82.82 L99.41,83.60 L99.01,84.38" fill="none" stroke="#F4FFFA" stroke-width="1.05" stroke-linecap="round" opacity="0.24"></path><path d="M14.00,59.96 L14.08,59.06 L14.32,58.15 L14.71,57.26 L15.24,56.37 L15.93,55.49 L16.76,54.63 L17.74,53.79 L18.85,52.97 L20.11,52.17 L21.49,51.39 L23.01,50.65 L24.64,49.94 L26.40,49.26 L28.26,48.61 L30.23,48.00 L32.30,47.44 L34.47,46.91 L36.71,46.43 L39.04,46.00 L41.43,45.61 L43.89,45.26 L46.40,44.97 L48.95,44.73 L51.54,44.54 L54.16,44.39 L56.80,44.31 L59.45,44.27 L62.10,44.28 L64.74,44.35 L67.37,44.47 L69.97,44.64 L72.54,44.86 L75.07,45.14 L77.55,45.46 L79.97,45.83 L82.33,46.24 L84.61,46.71 L86.81,47.21 L88.91,47.76 L90.93,48.35 L92.84,48.98 L94.64,49.65 L96.33,50.35 L97.89,51.08 L99.33,51.84 L100.64,52.63 L101.81,53.44 L102.85,54.28 L103.74,55.13 L104.49,56.00 L105.09,56.88 L105.54,57.78 L105.84,58.68 L105.98,59.58" fill="none" stroke="#F4FFFA" stroke-width="1.05" stroke-linecap="round" opacity="0.24"></path><path d="M21.24,35.24 L21.83,34.48 L22.55,33.74 L23.40,33.01 L24.37,32.29 L25.45,31.60 L26.65,30.93 L27.96,30.29 L29.38,29.67 L30.90,29.08 L32.52,28.52 L34.22,28.00 L36.02,27.51 L37.89,27.05 L39.83,26.64 L41.85,26.26 L43.92,25.92 L46.05,25.63 L48.22,25.37 L50.43,25.16 L52.67,24.99 L54.94,24.87 L57.23,24.79 L59.52,24.76 L61.82,24.78 L64.11,24.83 L66.38,24.94 L68.64,25.09 L70.86,25.28 L73.05,25.51 L75.20,25.79 L77.30,26.11 L79.34,26.47 L81.31,26.88 L83.21,27.31 L85.04,27.79 L86.78,28.30 L88.44,28.85 L90.00,29.42 L91.46,30.03 L92.81,30.66 L94.06,31.32 L95.20,32.00 L96.21,32.71 L97.11,33.43 L97.88,34.17 L98.53,34.92" fill="none" stroke="#F4FFFA" stroke-width="1.05" stroke-linecap="round" opacity="0.24"></path><path d="M42.32,17.53 L43.20,17.19 L44.13,16.87 L45.12,16.57 L46.15,16.28 L47.23,16.02 L48.36,15.78 L49.52,15.56 L50.72,15.37 L51.94,15.20 L53.20,15.05 L54.48,14.93 L55.77,14.83 L57.08,14.76 L58.40,14.72 L59.72,14.70 L61.05,14.71 L62.37,14.74 L63.69,14.80 L64.99,14.89 L66.27,15.00 L67.54,15.13 L68.78,15.29 L69.99,15.48 L71.16,15.69 L72.30,15.92 L73.40,16.17 L74.46,16.45 L75.46,16.74 L76.42,17.06 L77.32,17.39" fill="none" stroke="#F4FFFA" stroke-width="1.05" stroke-linecap="round" opacity="0.24"></path><path d="M96.90,87.46 L97.60,86.48 L98.26,85.48 L98.90,84.45 L99.50,83.41 L100.07,82.35 L100.61,81.27 L101.11,80.17 L101.58,79.05 L102.01,77.92 L102.41,76.77 L102.78,75.61 L103.11,74.43 L103.40,73.25 L103.66,72.05 L103.88,70.84 L104.06,69.63 L104.21,68.40 L104.32,67.17 L104.39,65.94 L104.43,64.69 L104.43,63.45 L104.39,62.20 L104.32,60.95 L104.21,59.70 L104.06,58.45 L103.88,57.20 L103.66,55.95 L103.40,54.71 L103.11,53.47 L102.78,52.23 L102.41,51.00 L102.01,49.78 L101.58,48.57 L101.11,47.37 L100.61,46.18 L100.07,45.00 L99.50,43.83 L98.90,42.68 L98.26,41.54 L97.60,40.41 L96.90,39.30 L96.17,38.21 L95.41,37.14 L94.62,36.08 L93.81,35.05 L92.96,34.04 L92.09,33.04 L91.19,32.07 L90.27,31.13 L89.32,30.20 L88.34,29.31 L87.34,28.43 L86.32,27.59 L85.28,26.77 L84.22,25.98 L83.13,25.22 L82.03,24.48 L80.91,23.78 L79.77,23.10 L78.62,22.46 L77.45,21.84 L76.26,21.26 L75.06,20.71 L73.85,20.20 L72.63,19.71 L71.40,19.26 L70.15,18.85 L68.90,18.47 L67.65,18.12 L66.38,17.81 L65.11,17.53 L63.84,17.29 L62.56,17.08 L61.28,16.91 L60.00,16.77" fill="none" stroke="#F4FFFA" stroke-width="1.55" stroke-linecap="round"></path><path d="M75.31,103.38 L76.13,103.05 L76.94,102.70 L77.73,102.30 L78.51,101.88 L79.27,101.41 L80.02,100.92 L80.75,100.39 L81.46,99.82 L82.16,99.22 L82.83,98.59 L83.49,97.93 L84.13,97.24 L84.75,96.51 L85.35,95.76 L85.92,94.97 L86.48,94.16 L87.01,93.32 L87.52,92.45 L88.01,91.55 L88.48,90.63 L88.92,89.68 L89.33,88.71 L89.73,87.71 L90.10,86.69 L90.44,85.65 L90.76,84.59 L91.05,83.50 L91.32,82.40 L91.56,81.28 L91.77,80.14 L91.96,78.98 L92.12,77.81 L92.25,76.62 L92.36,75.42 L92.44,74.21 L92.50,72.98 L92.52,71.75 L92.52,70.50 L92.50,69.25 L92.44,67.98 L92.36,66.72 L92.25,65.44 L92.12,64.16 L91.96,62.88 L91.77,61.59 L91.56,60.31 L91.32,59.02 L91.05,57.74 L90.76,56.45 L90.44,55.17 L90.10,53.90 L89.73,52.62 L89.33,51.36 L88.92,50.10 L88.48,48.85 L88.01,47.61 L87.52,46.38 L87.01,45.16 L86.48,43.95 L85.92,42.76 L85.35,41.58 L84.75,40.42 L84.13,39.27 L83.49,38.14 L82.83,37.02 L82.16,35.93 L81.46,34.86 L80.75,33.81 L80.02,32.78 L79.27,31.77 L78.51,30.78 L77.73,29.82 L76.94,28.89 L76.13,27.98 L75.31,27.10 L74.47,26.24 L73.63,25.41 L72.77,24.61 L71.90,23.84 L71.03,23.11 L70.14,22.40 L69.25,21.72 L68.34,21.07 L67.43,20.46 L66.52,19.88 L65.60,19.33 L64.67,18.82 L63.74,18.34 L62.81,17.90 L61.87,17.49 L60.94,17.11 L60.00,16.77" fill="none" stroke="#F4FFFA" stroke-width="1.55" stroke-linecap="round"></path><path d="M64.36,105.79 L64.67,105.72 L64.99,105.62 L65.30,105.47 L65.60,105.29 L65.90,105.07 L66.20,104.82 L66.49,104.52 L66.77,104.19 L67.05,103.83 L67.33,103.42 L67.59,102.98 L67.86,102.51 L68.11,102.00 L68.36,101.45 L68.60,100.87 L68.83,100.26 L69.06,99.61 L69.28,98.93 L69.49,98.22 L69.69,97.48 L69.89,96.70 L70.07,95.89 L70.25,95.06 L70.42,94.19 L70.58,93.30 L70.74,92.38 L70.88,91.43 L71.02,90.46 L71.14,89.46 L71.26,88.44 L71.36,87.39 L71.46,86.32 L71.55,85.23 L71.63,84.11 L71.70,82.98 L71.76,81.83 L71.81,80.66 L71.85,79.47 L71.87,78.27 L71.89,77.05 L71.90,75.82 L71.90,74.57 L71.89,73.31 L71.87,72.05 L71.85,70.77 L71.81,69.48 L71.76,68.18 L71.70,66.88 L71.63,65.57 L71.55,64.26 L71.46,62.94 L71.36,61.62 L71.26,60.30 L71.14,58.98 L71.02,57.66 L70.88,56.35 L70.74,55.03 L70.58,53.72 L70.42,52.41 L70.25,51.12 L70.07,49.82 L69.89,48.54 L69.69,47.27 L69.49,46.00 L69.28,44.75 L69.06,43.51 L68.83,42.29 L68.60,41.08 L68.36,39.88 L68.11,38.71 L67.86,37.55 L67.59,36.40 L67.33,35.28 L67.05,34.18 L66.77,33.10 L66.49,32.04 L66.20,31.01 L65.90,30.00 L65.60,29.01 L65.30,28.05 L64.99,27.12 L64.67,26.21 L64.36,25.33 L64.04,24.49 L63.71,23.67 L63.38,22.88 L63.05,22.12 L62.72,21.39 L62.39,20.70 L62.05,20.03 L61.71,19.40 L61.37,18.81 L61.03,18.25 L60.69,17.72 L60.34,17.23 L60.00,16.77" fill="none" stroke="#F4FFFA" stroke-width="1.55" stroke-linecap="round"></path><path d="M55.64,105.79 L55.33,105.72 L55.01,105.62 L54.70,105.47 L54.40,105.29 L54.10,105.07 L53.80,104.82 L53.51,104.52 L53.23,104.19 L52.95,103.83 L52.67,103.42 L52.41,102.98 L52.14,102.51 L51.89,102.00 L51.64,101.45 L51.40,100.87 L51.17,100.26 L50.94,99.61 L50.72,98.93 L50.51,98.22 L50.31,97.48 L50.11,96.70 L49.93,95.89 L49.75,95.06 L49.58,94.19 L49.42,93.30 L49.26,92.38 L49.12,91.43 L48.98,90.46 L48.86,89.46 L48.74,88.44 L48.64,87.39 L48.54,86.32 L48.45,85.23 L48.37,84.11 L48.30,82.98 L48.24,81.83 L48.19,80.66 L48.15,79.47 L48.13,78.27 L48.11,77.05 L48.10,75.82 L48.10,74.57 L48.11,73.31 L48.13,72.05 L48.15,70.77 L48.19,69.48 L48.24,68.18 L48.30,66.88 L48.37,65.57 L48.45,64.26 L48.54,62.94 L48.64,61.62 L48.74,60.30 L48.86,58.98 L48.98,57.66 L49.12,56.35 L49.26,55.03 L49.42,53.72 L49.58,52.41 L49.75,51.12 L49.93,49.82 L50.11,48.54 L50.31,47.27 L50.51,46.00 L50.72,44.75 L50.94,43.51 L51.17,42.29 L51.40,41.08 L51.64,39.88 L51.89,38.71 L52.14,37.55 L52.41,36.40 L52.67,35.28 L52.95,34.18 L53.23,33.10 L53.51,32.04 L53.80,31.01 L54.10,30.00 L54.40,29.01 L54.70,28.05 L55.01,27.12 L55.33,26.21 L55.64,25.33 L55.96,24.49 L56.29,23.67 L56.62,22.88 L56.95,22.12 L57.28,21.39 L57.61,20.70 L57.95,20.03 L58.29,19.40 L58.63,18.81 L58.97,18.25 L59.31,17.72 L59.66,17.23 L60.00,16.77" fill="none" stroke="#F4FFFA" stroke-width="1.55" stroke-linecap="round"></path><path d="M44.69,103.38 L43.87,103.05 L43.06,102.70 L42.27,102.30 L41.49,101.88 L40.73,101.41 L39.98,100.92 L39.25,100.39 L38.54,99.82 L37.84,99.22 L37.17,98.59 L36.51,97.93 L35.87,97.24 L35.25,96.51 L34.65,95.76 L34.08,94.97 L33.52,94.16 L32.99,93.32 L32.48,92.45 L31.99,91.55 L31.52,90.63 L31.08,89.68 L30.67,88.71 L30.27,87.71 L29.90,86.69 L29.56,85.65 L29.24,84.59 L28.95,83.50 L28.68,82.40 L28.44,81.28 L28.23,80.14 L28.04,78.98 L27.88,77.81 L27.75,76.62 L27.64,75.42 L27.56,74.21 L27.50,72.98 L27.48,71.75 L27.48,70.50 L27.50,69.25 L27.56,67.98 L27.64,66.72 L27.75,65.44 L27.88,64.16 L28.04,62.88 L28.23,61.59 L28.44,60.31 L28.68,59.02 L28.95,57.74 L29.24,56.45 L29.56,55.17 L29.90,53.90 L30.27,52.62 L30.67,51.36 L31.08,50.10 L31.52,48.85 L31.99,47.61 L32.48,46.38 L32.99,45.16 L33.52,43.95 L34.08,42.76 L34.65,41.58 L35.25,40.42 L35.87,39.27 L36.51,38.14 L37.17,37.02 L37.84,35.93 L38.54,34.86 L39.25,33.81 L39.98,32.78 L40.73,31.77 L41.49,30.78 L42.27,29.82 L43.06,28.89 L43.87,27.98 L44.69,27.10 L45.53,26.24 L46.37,25.41 L47.23,24.61 L48.10,23.84 L48.97,23.11 L49.86,22.40 L50.75,21.72 L51.66,21.07 L52.57,20.46 L53.48,19.88 L54.40,19.33 L55.33,18.82 L56.26,18.34 L57.19,17.90 L58.13,17.49 L59.06,17.11 L60.00,16.77" fill="none" stroke="#F4FFFA" stroke-width="1.55" stroke-linecap="round"></path><path d="M23.10,87.46 L22.40,86.48 L21.74,85.48 L21.10,84.45 L20.50,83.41 L19.93,82.35 L19.39,81.27 L18.89,80.17 L18.42,79.05 L17.99,77.92 L17.59,76.77 L17.22,75.61 L16.89,74.43 L16.60,73.25 L16.34,72.05 L16.12,70.84 L15.94,69.63 L15.79,68.40 L15.68,67.17 L15.61,65.94 L15.57,64.69 L15.57,63.45 L15.61,62.20 L15.68,60.95 L15.79,59.70 L15.94,58.45 L16.12,57.20 L16.34,55.95 L16.60,54.71 L16.89,53.47 L17.22,52.23 L17.59,51.00 L17.99,49.78 L18.42,48.57 L18.89,47.37 L19.39,46.18 L19.93,45.00 L20.50,43.83 L21.10,42.68 L21.74,41.54 L22.40,40.41 L23.10,39.30 L23.83,38.21 L24.59,37.14 L25.38,36.08 L26.19,35.05 L27.04,34.04 L27.91,33.04 L28.81,32.07 L29.73,31.13 L30.68,30.20 L31.66,29.31 L32.66,28.43 L33.68,27.59 L34.72,26.77 L35.78,25.98 L36.87,25.22 L37.97,24.48 L39.09,23.78 L40.23,23.10 L41.38,22.46 L42.55,21.84 L43.74,21.26 L44.94,20.71 L46.15,20.20 L47.37,19.71 L48.60,19.26 L49.85,18.85 L51.10,18.47 L52.35,18.12 L53.62,17.81 L54.89,17.53 L56.16,17.29 L57.44,17.08 L58.72,16.91 L60.00,16.77" fill="none" stroke="#F4FFFA" stroke-width="1.55" stroke-linecap="round"></path><path d="M23.83,31.58 L24.59,30.65 L25.38,29.74 L26.19,28.85 L27.04,27.99 L27.91,27.16 L28.81,26.36 L29.73,25.58 L30.68,24.83 L31.66,24.11 L32.66,23.42 L33.68,22.76 L34.72,22.14 L35.78,21.54 L36.87,20.98 L37.97,20.44 L39.09,19.94 L40.23,19.48 L41.38,19.05 L42.55,18.65 L43.74,18.28 L44.94,17.95 L46.15,17.66 L47.37,17.40 L48.60,17.18 L49.85,16.99 L51.10,16.83 L52.35,16.72 L53.62,16.64 L54.89,16.59 L56.16,16.58 L57.44,16.61 L58.72,16.67 L60.00,16.77" fill="none" stroke="#F4FFFA" stroke-width="1.55" stroke-linecap="round"></path><path d="M45.53,16.34 L46.37,16.09 L47.23,15.88 L48.10,15.70 L48.97,15.56 L49.86,15.46 L50.75,15.39 L51.66,15.37 L52.57,15.38 L53.48,15.42 L54.40,15.50 L55.33,15.62 L56.26,15.78 L57.19,15.97 L58.13,16.21 L59.06,16.47 L60.00,16.77" fill="none" stroke="#F4FFFA" stroke-width="1.55" stroke-linecap="round"></path><path d="M55.96,14.18 L56.29,14.19 L56.62,14.24 L56.95,14.32 L57.28,14.45 L57.61,14.61 L57.95,14.80 L58.29,15.04 L58.63,15.31 L58.97,15.62 L59.31,15.97 L59.66,16.35 L60.00,16.77" fill="none" stroke="#F4FFFA" stroke-width="1.55" stroke-linecap="round"></path><path d="M64.04,14.18 L63.71,14.19 L63.38,14.24 L63.05,14.32 L62.72,14.45 L62.39,14.61 L62.05,14.80 L61.71,15.04 L61.37,15.31 L61.03,15.62 L60.69,15.97 L60.34,16.35 L60.00,16.77" fill="none" stroke="#F4FFFA" stroke-width="1.55" stroke-linecap="round"></path><path d="M74.47,16.34 L73.63,16.09 L72.77,15.88 L71.90,15.70 L71.03,15.56 L70.14,15.46 L69.25,15.39 L68.34,15.37 L67.43,15.38 L66.52,15.42 L65.60,15.50 L64.67,15.62 L63.74,15.78 L62.81,15.97 L61.87,16.21 L60.94,16.47 L60.00,16.77" fill="none" stroke="#F4FFFA" stroke-width="1.55" stroke-linecap="round"></path><path d="M96.17,31.58 L95.41,30.65 L94.62,29.74 L93.81,28.85 L92.96,27.99 L92.09,27.16 L91.19,26.36 L90.27,25.58 L89.32,24.83 L88.34,24.11 L87.34,23.42 L86.32,22.76 L85.28,22.14 L84.22,21.54 L83.13,20.98 L82.03,20.44 L80.91,19.94 L79.77,19.48 L78.62,19.05 L77.45,18.65 L76.26,18.28 L75.06,17.95 L73.85,17.66 L72.63,17.40 L71.40,17.18 L70.15,16.99 L68.90,16.83 L67.65,16.72 L66.38,16.64 L65.11,16.59 L63.84,16.58 L62.56,16.61 L61.28,16.67 L60.00,16.77" fill="none" stroke="#F4FFFA" stroke-width="1.55" stroke-linecap="round"></path><path d="M77.25,102.64 L76.34,102.97 L75.38,103.28 L74.37,103.58 L73.31,103.85 L72.21,104.10 L71.07,104.33 L69.89,104.54 L68.67,104.72 L67.43,104.88 L66.17,105.01 L64.88,105.12 L63.58,105.21 L62.26,105.26 L60.94,105.29 L59.61,105.30 L58.29,105.28 L56.97,105.23 L55.66,105.16 L54.37,105.06 L53.09,104.94 L51.84,104.79 L50.61,104.62 L49.42,104.42 L48.26,104.20 L47.14,103.96 L46.06,103.69 L45.03,103.41 L44.05,103.10 L43.12,102.78 L42.25,102.44" fill="none" stroke="#F4FFFA" stroke-width="1.55" stroke-linecap="round"></path><path d="M98.48,85.14 L97.82,85.89 L97.04,86.63 L96.13,87.35 L95.11,88.05 L93.96,88.73 L92.71,89.39 L91.34,90.02 L89.87,90.63 L88.30,91.20 L86.64,91.74 L84.89,92.25 L83.06,92.72 L81.15,93.16 L79.17,93.56 L77.12,93.91 L75.02,94.23 L72.87,94.51 L70.68,94.74 L68.45,94.93 L66.19,95.07 L63.92,95.17 L61.63,95.23 L59.33,95.24 L57.04,95.20 L54.75,95.12 L52.49,94.99 L50.24,94.82 L48.04,94.61 L45.87,94.35 L43.74,94.05 L41.68,93.71 L39.67,93.33 L37.73,92.91 L35.86,92.45 L34.08,91.96 L32.38,91.43 L30.77,90.87 L29.26,90.28 L27.85,89.66 L26.55,89.01 L25.36,88.34 L24.28,87.65 L23.32,86.93 L22.49,86.20 L21.78,85.45 L21.20,84.69" fill="none" stroke="#F4FFFA" stroke-width="1.55" stroke-linecap="round"></path><path d="M98.48,85.14" fill="none" stroke="#F4FFFA" stroke-width="1.55" stroke-linecap="round"></path><path d="M104.43,64.07 L103.67,64.94 L102.77,65.79 L101.72,66.63 L100.54,67.44 L99.22,68.22 L97.77,68.98 L96.19,69.71 L94.49,70.41 L92.68,71.07 L90.76,71.70 L88.74,72.28 L86.63,72.83 L84.42,73.33 L82.13,73.79 L79.77,74.21 L77.35,74.57 L74.86,74.89 L72.33,75.16 L69.76,75.37 L67.15,75.54 L64.52,75.66 L61.88,75.72 L59.23,75.73 L56.58,75.69 L53.94,75.60 L51.32,75.45 L48.74,75.25 L46.19,75.01 L43.68,74.71 L41.23,74.36 L38.84,73.97 L36.52,73.53 L34.28,73.04 L32.13,72.52 L30.07,71.95 L28.10,71.34 L26.25,70.69 L24.50,70.01 L22.88,69.29 L21.37,68.54 L20.00,67.77 L18.76,66.97 L17.65,66.14 L16.69,65.30 L15.87,64.44 L15.19,63.56 L14.67,62.67 L14.29,61.77 L14.07,60.87" fill="none" stroke="#F4FFFA" stroke-width="1.55" stroke-linecap="round"></path><path d="M105.98,60.49 L105.82,61.40 L105.51,62.30 L105.04,63.19 L104.43,64.07" fill="none" stroke="#F4FFFA" stroke-width="1.55" stroke-linecap="round"></path><path d="M98.48,41.91 L97.82,42.67 L97.04,43.40 L96.13,44.13 L95.11,44.83 L93.96,45.51 L92.71,46.17 L91.34,46.80 L89.87,47.40 L88.30,47.98 L86.64,48.52 L84.89,49.03 L83.06,49.50 L81.15,49.93 L79.17,50.33 L77.12,50.69 L75.02,51.01 L72.87,51.28 L70.68,51.51 L68.45,51.70 L66.19,51.85 L63.92,51.95 L61.63,52.00 L59.33,52.01 L57.04,51.97 L54.75,51.89 L52.49,51.77 L50.24,51.60 L48.04,51.38 L45.87,51.13 L43.74,50.83 L41.68,50.49 L39.67,50.10 L37.73,49.68 L35.86,49.23 L34.08,48.73 L32.38,48.20 L30.77,47.64 L29.26,47.05 L27.85,46.43 L26.55,45.79 L25.36,45.11 L24.28,44.42 L23.32,43.71 L22.49,42.98 L21.78,42.23 L21.20,41.47 L20.74,40.70 L20.42,39.92 L20.22,39.14 L20.16,38.35 L20.23,37.57 L20.44,36.79 L20.77,36.01" fill="none" stroke="#F4FFFA" stroke-width="1.55" stroke-linecap="round"></path><path d="M99.05,35.69 L99.44,36.46 L99.70,37.24 L99.82,38.03 L99.82,38.81 L99.68,39.60 L99.41,40.38 L99.01,41.15 L98.48,41.91" fill="none" stroke="#F4FFFA" stroke-width="1.55" stroke-linecap="round"></path><path d="M82.22,24.60 L81.84,25.04 L81.38,25.46 L80.86,25.88 L80.27,26.28 L79.61,26.68 L78.88,27.06 L78.09,27.42 L77.25,27.77 L76.34,28.10 L75.38,28.41 L74.37,28.71 L73.31,28.98 L72.21,29.23 L71.07,29.46 L69.89,29.67 L68.67,29.85 L67.43,30.01 L66.17,30.14 L64.88,30.25 L63.58,30.34 L62.26,30.39 L60.94,30.43 L59.61,30.43 L58.29,30.41 L56.97,30.36 L55.66,30.29 L54.37,30.19 L53.09,30.07 L51.84,29.92 L50.61,29.75 L49.42,29.55 L48.26,29.33 L47.14,29.09 L46.06,28.82 L45.03,28.54 L44.05,28.23 L43.12,27.91 L42.25,27.57 L41.44,27.21 L40.69,26.84 L40.00,26.45 L39.38,26.05 L38.83,25.64 L38.34,25.21 L37.93,24.78 L37.60,24.34 L37.33,23.90 L37.15,23.45 L37.04,23.00 L37.00,22.55 L37.04,22.09 L37.16,21.64 L37.35,21.19 L37.62,20.75 L37.96,20.31 L38.38,19.88 L38.87,19.46 L39.43,19.05 L40.05,18.65 L40.75,18.26 L41.50,17.89" fill="none" stroke="#F4FFFA" stroke-width="1.55" stroke-linecap="round"></path><path d="M78.16,17.74 L78.95,18.11 L79.67,18.49 L80.32,18.88 L80.91,19.29 L81.42,19.70 L81.87,20.13 L82.24,20.57 L82.54,21.01 L82.77,21.45 L82.92,21.90 L82.99,22.36 L82.99,22.81 L82.91,23.26 L82.75,23.71 L82.52,24.16 L82.22,24.60" fill="none" stroke="#F4FFFA" stroke-width="1.55" stroke-linecap="round"></path><circle cx="60" cy="60" r="46" fill="none" stroke="#F4FFFA" stroke-width="1.6275000000000002"></circle></g></g></g><g transform="translate(541.5806319161684,320.4360212259693) scale(1.4895559486290608)"><path d="M134.641845703125 0V1490H440.1971435546875V253.3165283203125H1082.6790771484375V0Z" transform="translate(0.000,0) scale(0.07324,-0.07324)" fill="#F4FFFA"></path>
<path d="M127.76123046875 0V1118H427.6363525390625V0ZM277.61883544921875 1263.7415161132812Q209.8795166015625 1263.7415161132812 161.53997802734375 1309.0298548591209Q113.200439453125 1354.3181936049602 113.200439453125 1417.7218678491356Q113.200439453125 1482.4194946289062 161.53997802734375 1527.1790771484375Q209.8795166015625 1571.9386596679688 277.61883544921875 1571.9386596679688Q345.6638968331473 1571.9386596679688 394.080575125558 1527.2369319370814Q442.49725341796875 1482.5352042061943 442.49725341796875 1417.7500915527344Q442.49725341796875 1354.2606811523438 394.080575125558 1309.0010986328125Q345.6638968331473 1263.7415161132812 277.61883544921875 1263.7415161132812Z" transform="translate(83.014,0) scale(0.07324,-0.07324)" fill="#F4FFFA"></path>
<path d="M749.8170776367188 1118V889.4830322265625H20V1118ZM217.3209228515625 0V1203.8225708007812Q217.3209228515625 1322.961669921875 264.7108459472656 1402.0010986328125Q312.10076904296875 1481.04052734375 394.2803955078125 1520.520263671875Q476.46002197265625 1560 579.59912109375 1560Q650.6188354492188 1560 709.0881652832031 1548.6900329589844Q767.5574951171875 1537.3800659179688 795.1171875 1528.9200439453125L740.79736328125 1302.56298828125Q722.4775390625 1308.1029663085938 696.7376708984375 1313.0230102539062Q670.997802734375 1317.9430541992188 641.0974731445312 1317.9430541992188Q572.6768798828125 1317.9430541992188 544.396484375 1285.4326477050781Q516.1160888671875 1252.9222412109375 516.1160888671875 1194.0613403320312V0Z" transform="translate(121.864,0) scale(0.07324,-0.07324)" fill="#F4FFFA"></path>
<path d="M683.3165283203125 1118V889.4830322265625H20V1118ZM173.9605712890625 1384H473.835693359375V327.25848388671875Q473.835693359375 273.85760498046875 497.5859680175781 248.5372314453125Q521.3362426757812 223.21685791015625 575.596923828125 223.21685791015625Q593.1369018554688 223.21685791015625 623.9567260742188 227.48684692382812Q654.7765502929688 231.7568359375 670.8367919921875 235.7568359375L713.7765502929688 10.85980224609375Q663.637451171875 -4 614.3680114746094 -9.809967041015625Q565.0985717773438 -15.61993408203125 519.8389892578125 -15.61993408203125Q351.61993408203125 -15.61993408203125 262.7902526855469 66.00985717773438Q173.9605712890625 147.6396484375 173.9605712890625 300.8389892578125Z" transform="translate(179.756,0) scale(0.07324,-0.07324)" fill="#F4FFFA"></path>
<path d="M633.3997802734375 -21.840087890625Q462.22015380859375 -21.840087890625 338.24041748046875 48.269989013671875Q214.26068115234375 118.38006591796875 147.79080200195312 247.38006591796875Q81.3209228515625 376.38006591796875 81.3209228515625 553.2398681640625Q81.3209228515625 725.7798461914062 147.37075805664062 855.9698791503906Q213.42059326171875 986.159912109375 334.2102966308594 1059.0799560546875Q455 1132 618.3395385742188 1132Q727.8587036132812 1132 822.9983520507812 1097.1002197265625Q918.1380004882812 1062.200439453125 989.9879455566406 991.8406372070312Q1061.837890625 921.4808349609375 1102.2179565429688 815.0208129882812Q1142.5980224609375 708.560791015625 1142.5980224609375 564.9003295898438V480.720703125H204.40087890625V669.439208984375H996.4600219726562L856.3023071289062 618.8389892578125Q856.3023071289062 706.159912109375 829.6319885253906 770.6007690429688Q802.961669921875 835.0416259765625 750.6210327148438 870.5821533203125Q698.2803955078125 906.1226806640625 620.4994506835938 906.1226806640625Q542.718505859375 906.1226806640625 488.53778076171875 870.1221313476562Q434.3570556640625 834.12158203125 406.07666015625 772.4408569335938Q377.7962646484375 710.7601318359375 377.7962646484375 632.1796264648438V499.3209228515625Q377.7962646484375 402.31982421875 410.2666931152344 336.3389892578125Q442.73712158203125 270.358154296875 501.6078796386719 237.19769287109375Q560.4786376953125 204.0372314453125 638.1796264648438 204.0372314453125Q690.68017578125 204.0372314453125 733.6106262207031 218.98739624023438Q776.5410766601562 233.93756103515625 807.44140625 263.2579345703125Q838.3417358398438 292.57830810546875 854.48193359375 335.53887939453125L1125.677978515625 285.37896728515625Q1098.5980224609375 192.73931884765625 1031.7382202148438 123.60952758789062Q964.87841796875 54.479736328125 864.1987915039062 16.31982421875Q763.5191650390625 -21.840087890625 633.3997802734375 -21.840087890625Z" transform="translate(232.888,0) scale(0.07324,-0.07324)" fill="#F4FFFA"></path>
<path d="M536.5016479492188 -18.6002197265625Q408.30120849609375 -18.6002197265625 304.8110656738281 47.809967041015625Q201.3209228515625 114.22015380859375 141.3209228515625 242.6002197265625Q81.3209228515625 370.98028564453125 81.3209228515625 557.0799560546875Q81.3209228515625 748.119384765625 143.17086791992188 875.9994506835938Q205.02081298828125 1003.8795166015625 308.240966796875 1067.9397583007812Q411.46112060546875 1132 534.8017578125 1132Q629.7623291015625 1132 692.9523620605469 1100.0498352050781Q756.1423950195312 1068.0996704101562 794.9622192382812 1021.2497253417969Q833.7820434570312 974.3997802734375 853.4019775390625 929.8203735351562H863.0821533203125V1490H1162.957275390625V0H868.002197265625V178.93975830078125H853.4019775390625Q832.7020874023438 133.90032958984375 793.1522521972656 88.48028564453125Q753.6024169921875 43.06024169921875 690.9923400878906 12.230010986328125Q628.3822631835938 -18.6002197265625 536.5016479492188 -18.6002197265625ZM628.8389892578125 221.77655029296875Q705.4600219726562 221.77655029296875 759.2606811523438 263.93701171875Q813.0613403320312 306.09747314453125 841.2316589355469 381.65826416015625Q869.4019775390625 457.21905517578125 869.4019775390625 558Q869.4019775390625 659.8609008789062 841.461669921875 734.5416259765625Q813.5213623046875 809.2223510742188 759.720703125 850.4227905273438Q705.9200439453125 891.6232299804688 628.8389892578125 891.6232299804688Q550.3778686523438 891.6232299804688 496.8871765136719 849.042724609375Q443.396484375 806.4622192382812 416.2261657714844 731.3214721679688Q389.05584716796875 656.1807250976562 389.05584716796875 558Q389.05584716796875 459.89923095703125 416.4561767578125 383.83843994140625Q443.85650634765625 307.77764892578125 497.57720947265625 264.777099609375Q551.2979125976562 221.77655029296875 628.8389892578125 221.77655029296875Z" transform="translate(320.443,0) scale(0.07324,-0.07324)" fill="#F4FFFA"></path></g><g transform="translate(1210.6877093958615,320.4360212259693) scale(1.4895559486290608)"><path d="M180 0V1490H690Q864 1490 976.5 1426.5Q1089 1363 1143.5 1256.0Q1198 1149 1198 1016Q1198 883 1143.5 775.0Q1089 667 977.0 603.0Q865 539 691 539H330V706H682Q800 706 872.0 746.5Q944 787 976.5 857.5Q1009 928 1009 1016Q1009 1104 976.5 1173.5Q944 1243 871.5 1283.0Q799 1323 680 1323H370V0Z" transform="translate(0.000,0) scale(0.07324,-0.07324)" fill="#F4FFFA"></path>
<path d="M471 -26Q365 -26 278.5 14.0Q192 54 141.0 131.0Q90 208 90 318Q90 414 128.0 474.0Q166 534 229.5 568.5Q293 603 370.0 620.0Q447 637 525 647Q625 660 688.0 667.0Q751 674 781.5 691.0Q812 708 812 749V755Q812 825 786.0 873.5Q760 922 708.0 948.0Q656 974 578 974Q498 974 441.0 949.0Q384 924 348.5 886.5Q313 849 295 810L122 867Q165 969 238.0 1026.5Q311 1084 399.0 1108.0Q487 1132 573 1132Q629 1132 700.5 1118.5Q772 1105 838.5 1065.0Q905 1025 948.5 946.5Q992 868 992 737V0H815V152H803Q784 113 742.0 71.5Q700 30 633.0 2.0Q566 -26 471 -26ZM502 133Q602 133 671.0 172.0Q740 211 776.0 273.5Q812 336 812 404V559Q801 546 764.0 535.5Q727 525 679.5 517.0Q632 509 587.5 503.5Q543 498 517 495Q452 487 395.5 467.5Q339 448 305.0 410.5Q271 373 271 309Q271 251 301.0 212.0Q331 173 383.0 153.0Q435 133 502 133Z" transform="translate(94.001,0) scale(0.07324,-0.07324)" fill="#F4FFFA"></path>
<path d="M140 -405 186 -249 205 -254Q260 -268 305.0 -261.5Q350 -255 386.0 -217.0Q422 -179 449 -99L481 -6L54 1118H251L489 455Q527 351 553.0 249.0Q579 147 608 51H542Q571 147 597.5 249.5Q624 352 661 455L901 1118H1097L606 -167Q572 -256 524.5 -313.5Q477 -371 414.0 -398.5Q351 -426 272 -426Q224 -426 189.0 -419.0Q154 -412 140 -405Z" transform="translate(176.429,0) scale(0.07324,-0.07324)" fill="#F4FFFA"></path>
<path d="M158 0V1118H333L334 868H320Q343 959 392.5 1018.5Q442 1078 508.5 1108.0Q575 1138 647 1138Q769 1138 844.5 1063.0Q920 988 942 866H918Q938 950 991.0 1011.0Q1044 1072 1119.5 1105.0Q1195 1138 1284 1138Q1381 1138 1461.0 1096.0Q1541 1054 1588.5 969.0Q1636 884 1636 754V0H1456V749Q1456 870 1388.0 922.0Q1320 974 1230 974Q1155 974 1100.5 942.5Q1046 911 1016.5 856.0Q987 801 987 730V0H807V767Q807 860 745.0 917.0Q683 974 588 974Q523 974 465.5 943.5Q408 913 373.0 853.0Q338 793 338 704V0Z" transform="translate(258.931,0) scale(0.07324,-0.07324)" fill="#F4FFFA"></path>
<path d="M628 -24Q466 -24 348.5 48.0Q231 120 167.5 249.0Q104 378 104 550Q104 722 166.0 853.0Q228 984 341.5 1058.0Q455 1132 607 1132Q696 1132 782.5 1102.5Q869 1073 939.5 1007.5Q1010 942 1052.0 835.0Q1094 728 1094 573V498H226V650H997L913 594Q913 704 878.5 789.5Q844 875 776.0 923.5Q708 972 607 972Q506 972 434.0 922.5Q362 873 324.0 793.5Q286 714 286 623V522Q286 398 329.0 311.5Q372 225 449.5 180.5Q527 136 629 136Q695 136 749.0 155.0Q803 174 842.0 212.5Q881 251 902 308L1076 260Q1050 176 988.0 112.0Q926 48 834.5 12.0Q743 -24 628 -24Z" transform="translate(388.528,0) scale(0.07324,-0.07324)" fill="#F4FFFA"></path>
<path d="M338 670V0H158V1118H331L332 847H307Q358 1002 452.5 1067.0Q547 1132 674 1132Q787 1132 872.0 1085.5Q957 1039 1004.5 945.5Q1052 852 1052 710V0H872V695Q872 824 804.5 897.0Q737 970 620 970Q540 970 476.0 935.0Q412 900 375.0 833.0Q338 766 338 670Z" transform="translate(474.179,0) scale(0.07324,-0.07324)" fill="#F4FFFA"></path>
<path d="M598 1118V964H20V1118ZM188 1384H368V290Q368 215 398.5 180.5Q429 146 500 146Q517 146 543.5 150.0Q570 154 592 158L629 6Q601 -4 565.5 -9.0Q530 -14 495 -14Q350 -14 269.0 62.5Q188 139 188 276Z" transform="translate(561.002,0) scale(0.07324,-0.07324)" fill="#F4FFFA"></path>
<path d="M538 -24Q423 -24 333.5 9.5Q244 43 186.0 109.0Q128 175 108 271L279 312Q303 220 369.5 177.0Q436 134 536 134Q653 134 722.5 184.0Q792 234 792 303Q792 361 751.5 399.5Q711 438 628 457L442 501Q290 537 216.0 612.5Q142 688 142 806Q142 902 196.0 975.5Q250 1049 343.5 1090.5Q437 1132 556 1132Q671 1132 751.5 1097.5Q832 1063 882.5 1002.5Q933 942 958 863L795 821Q772 881 718.5 930.0Q665 979 557 979Q457 979 390.5 933.0Q324 887 324 817Q324 755 369.0 717.5Q414 680 512 657L681 617Q833 581 906.0 505.5Q979 430 979 315Q979 217 923.5 140.5Q868 64 768.5 20.0Q669 -24 538 -24Z" transform="translate(608.274,0) scale(0.07324,-0.07324)" fill="#F4FFFA"></path></g></svg>