<svg xmlns="http://www.w3.org/2000/svg" viewBox="0 0 2400 480"><svg x="150" y="84" width="312" height="312" viewBox="0 0 120 120" overflow="visible"><defs><filter id="b7" x="-80%" y="-80%" width="260%" height="260%"><feGaussianBlur stdDeviation="4"></feGaussianBlur></filter><filter id="b3" x="-80%" y="-80%" width="260%" height="260%"><feGaussianBlur stdDeviation="1.4"></feGaussianBlur></filter><filter id="b12" x="-100%" y="-100%" width="300%" height="300%"><feGaussianBlur stdDeviation="9"></feGaussianBlur></filter><filter id="tg" x="-40%" y="-40%" width="180%" height="180%"><feGaussianBlur stdDeviation="6"></feGaussianBlur></filter></defs><g><path d="M60.00,105.11 L61.34,105.21 L62.67,105.28 L64.00,105.30 L65.33,105.29 L66.66,105.25 L67.98,105.16 L69.29,105.04 L70.60,104.88 L71.89,104.69 L73.18,104.45 L74.45,104.18 L75.72,103.87 L76.97,103.53 L78.20,103.15 L79.43,102.74 L80.63,102.28 L81.82,101.80 L82.99,101.28 L84.14,100.72 L85.27,100.13 L86.38,99.51 L87.47,98.85 L88.53,98.17 L89.57,97.45 L90.59,96.70 L91.58,95.92 L92.55,95.11 L93.49,94.27 L94.40,93.40 L95.28,92.50 L96.13,91.58 L96.95,90.63 L97.74,89.65" fill="none" stroke="#2E6BFF" stroke-width="1.05" stroke-linecap="round" opacity="0.24"></path><path d="M60.00,105.11 L60.98,105.42 L61.96,105.70 L62.93,105.94 L63.90,106.14 L64.87,106.30 L65.84,106.43 L66.80,106.52 L67.76,106.56 L68.71,106.57 L69.65,106.54 L70.58,106.48 L71.51,106.37 L72.42,106.22 L73.33,106.04 L74.22,105.82 L75.10,105.56" fill="none" stroke="#2E6BFF" stroke-width="1.05" stroke-linecap="round" opacity="0.24"></path><path d="M60.00,105.11 L60.36,105.54 L60.72,105.94 L61.07,106.31 L61.43,106.63 L61.78,106.92 L62.14,107.16 L62.49,107.37 L62.84,107.54 L63.19,107.66 L63.53,107.75 L63.87,107.80 L64.21,107.81" fill="none" stroke="#2E6BFF" stroke-width="1.05" stroke-linecap="round" opacity="0.24"></path><path d="M60.00,105.11 L59.64,105.54 L59.28,105.94 L58.93,106.31 L58.57,106.63 L58.22,106.92 L57.86,107.16 L57.51,107.37 L57.16,107.54 L56.81,107.66 L56.47,107.75 L56.13,107.80 L55.79,107.81" fill="none" stroke="#2E6BFF" stroke-width="1.05" stroke-linecap="round" opacity="0.24"></path><path d="M60.00,105.11 L59.02,105.42 L58.04,105.70 L57.07,105.94 L56.10,106.14 L55.13,106.30 L54.16,106.43 L53.20,106.52 L52.24,106.56 L51.29,106.57 L50.35,106.54 L49.42,106.48 L48.49,106.37 L47.58,106.22 L46.67,106.04 L45.78,105.82 L44.90,105.56" fill="none" stroke="#2E6BFF" stroke-width="1.05" stroke-linecap="round" opacity="0.24"></path><path d="M60.00,105.11 L58.66,105.21 L57.33,105.28 L56.00,105.30 L54.67,105.29 L53.34,105.25 L52.02,105.16 L50.71,105.04 L49.40,104.88 L48.11,104.69 L46.82,104.45 L45.55,104.18 L44.28,103.87 L43.03,103.53 L41.80,103.15 L40.57,102.74 L39.37,102.28 L38.18,101.80 L37.01,101.28 L35.86,100.72 L34.73,100.13 L33.62,99.51 L32.53,98.85 L31.47,98.17 L30.43,97.45 L29.41,96.70 L28.42,95.92 L27.45,95.11 L26.51,94.27 L25.60,93.40 L24.72,92.50 L23.87,91.58 L23.05,90.63 L22.26,89.65" fill="none" stroke="#2E6BFF" stroke-width="1.05" stroke-linecap="round" opacity="0.24"></path><path d="M60.00,105.11 L58.66,104.96 L57.33,104.79 L56.00,104.57 L54.67,104.32 L53.34,104.03 L52.02,103.70 L50.71,103.34 L49.40,102.94 L48.11,102.51 L46.82,102.04 L45.55,101.53 L44.28,100.99 L43.03,100.42 L41.80,99.81 L40.57,99.17 L39.37,98.50 L38.18,97.80 L37.01,97.06 L35.86,96.30 L34.73,95.50 L33.62,94.67 L32.53,93.82 L31.47,92.94 L30.43,92.03 L29.41,91.09 L28.42,90.13 L27.45,89.14 L26.51,88.13 L25.60,87.09 L24.72,86.04 L23.87,84.96 L23.05,83.86 L22.26,82.74 L21.50,81.60 L20.77,80.44 L20.07,79.27 L19.41,78.08 L18.78,76.87 L18.19,75.65 L17.63,74.42 L17.10,73.18 L16.61,71.92 L16.16,70.66 L15.74,69.39 L15.36,68.11 L15.02,66.82 L14.71,65.52 L14.45,64.23 L14.22,62.92 L14.02,61.62 L13.87,60.31 L13.76,59.01 L13.68,57.70 L13.64,56.40 L13.64,55.10 L13.68,53.81 L13.76,52.51 L13.87,51.23 L14.02,49.95 L14.22,48.68 L14.45,47.42 L14.71,46.18 L15.02,44.94 L15.36,43.71 L15.74,42.50 L16.16,41.30 L16.61,40.12 L17.10,38.96 L17.63,37.81 L18.19,36.68 L18.78,35.57 L19.41,34.48 L20.07,33.41 L20.77,32.37 L21.50,31.34" fill="none" stroke="#2E6BFF" stroke-width="1.05" stroke-linecap="round" opacity="0.24"></path><path d="M60.00,105.11 L59.02,104.75 L58.04,104.36 L57.07,103.93 L56.10,103.47 L55.13,102.97 L54.16,102.43 L53.20,101.86 L52.24,101.26 L51.29,100.62 L50.35,99.95 L49.42,99.24 L48.49,98.50 L47.58,97.73 L46.67,96.92 L45.78,96.09 L44.90,95.23 L44.03,94.34 L43.17,93.41 L42.33,92.47 L41.50,91.49 L40.69,90.49 L39.89,89.46 L39.11,88.41 L38.35,87.33 L37.61,86.23 L36.88,85.11 L36.17,83.97 L35.49,82.81 L34.82,81.63 L34.18,80.44 L33.55,79.22 L32.95,77.99 L32.37,76.75 L31.81,75.49 L31.28,74.21 L30.77,72.93 L30.29,71.63 L29.83,70.33 L29.39,69.02 L28.98,67.70 L28.60,66.37 L28.24,65.04 L27.91,63.70 L27.60,62.36 L27.32,61.02 L27.07,59.68 L26.85,58.34 L26.65,57.00 L26.48,55.66 L26.34,54.32 L26.23,52.99 L26.15,51.67 L26.09,50.35 L26.06,49.04 L26.06,47.74 L26.09,46.45 L26.15,45.17 L26.23,43.91 L26.34,42.66 L26.48,41.42 L26.65,40.19 L26.85,38.99 L27.07,37.80 L27.32,36.63 L27.60,35.48 L27.91,34.35 L28.24,33.24 L28.60,32.15 L28.98,31.08 L29.39,30.04 L29.83,29.03 L30.29,28.04 L30.77,27.08 L31.28,26.14 L31.81,25.23 L32.37,24.35 L32.95,23.51 L33.55,22.69 L34.18,21.90 L34.82,21.14 L35.49,20.42 L36.17,19.73 L36.88,19.07 L37.61,18.45 L38.35,17.86 L39.11,17.30 L39.89,16.79 L40.69,16.30 L41.50,15.86 L42.33,15.45 L43.17,15.07 L44.03,14.74" fill="none" stroke="#2E6BFF" stroke-width="1.05" stroke-linecap="round" opacity="0.24"></path><path d="M60.00,105.11 L59.64,104.63 L59.28,104.12 L58.93,103.57 L58.57,102.98 L58.22,102.36 L57.86,101.70 L57.51,101.01 L57.16,100.29 L56.81,99.53 L56.47,98.74 L56.13,97.91 L55.79,97.06 L55.45,96.17 L55.12,95.26 L54.79,94.31 L54.47,93.34 L54.15,92.34 L53.84,91.31 L53.53,90.25 L53.23,89.17 L52.93,88.07 L52.64,86.94 L52.35,85.79 L52.08,84.62 L51.80,83.43 L51.54,82.22 L51.28,80.99 L51.03,79.74 L50.78,78.48 L50.55,77.20 L50.32,75.91 L50.10,74.60 L49.89,73.29 L49.68,71.96 L49.49,70.62 L49.30,69.27 L49.12,67.92 L48.96,66.55 L48.80,65.19 L48.65,63.81 L48.51,62.44 L48.37,61.06 L48.25,59.68 L48.14,58.31 L48.04,56.93 L47.95,55.56 L47.87,54.19 L47.79,52.82 L47.73,51.46 L47.68,50.11 L47.64,48.77 L47.61,47.43 L47.59,46.11 L47.58,44.79 L47.58,43.49 L47.59,42.21 L47.61,40.94 L47.64,39.68 L47.68,38.44 L47.73,37.22 L47.79,36.02 L47.87,34.84 L47.95,33.68 L48.04,32.54 L48.14,31.42 L48.25,30.33 L48.37,29.26 L48.51,28.22 L48.65,27.20 L48.80,26.21 L48.96,25.25 L49.12,24.32 L49.30,23.42 L49.49,22.54 L49.68,21.70 L49.89,20.90 L50.10,20.12 L50.32,19.38 L50.55,18.67 L50.78,17.99 L51.03,17.35 L51.28,16.74 L51.54,16.18 L51.80,15.64 L52.08,15.15 L52.35,14.69 L52.64,14.27 L52.93,13.88 L53.23,13.54 L53.53,13.23 L53.84,12.97 L54.15,12.74 L54.47,12.55 L54.79,12.40 L55.12,12.29 L55.45,12.22" fill="none" stroke="#2E6BFF" stroke-width="1.05" stroke-linecap="round" opacity="0.24"></path><path d="M60.00,105.11 L60.36,104.63 L60.72,104.12 L61.07,103.57 L61.43,102.98 L61.78,102.36 L62.14,101.70 L62.49,101.01 L62.84,100.29 L63.19,99.53 L63.53,98.74 L63.87,97.91 L64.21,97.06 L64.55,96.17 L64.88,95.26 L65.21,94.31 L65.53,93.34 L65.85,92.34 L66.16,91.31 L66.47,90.25 L66.77,89.17 L67.07,88.07 L67.36,86.94 L67.65,85.79 L67.92,84.62 L68.20,83.43 L68.46,82.22 L68.72,80.99 L68.97,79.74 L69.22,78.48 L69.45,77.20 L69.68,75.91 L69.90,74.60 L70.11,73.29 L70.32,71.96 L70.51,70.62 L70.70,69.27 L70.88,67.92 L71.04,66.55 L71.20,65.19 L71.35,63.81 L71.49,62.44 L71.63,61.06 L71.75,59.68 L71.86,58.31 L71.96,56.93 L72.05,55.56 L72.13,54.19 L72.21,52.82 L72.27,51.46 L72.32,50.11 L72.36,48.77 L72.39,47.43 L72.41,46.11 L72.42,44.79 L72.42,43.49 L72.41,42.21 L72.39,40.94 L72.36,39.68 L72.32,38.44 L72.27,37.22 L72.21,36.02 L72.13,34.84 L72.05,33.68 L71.96,32.54 L71.86,31.42 L71.75,30.33 L71.63,29.26 L71.49,28.22 L71.35,27.20 L71.20,26.21 L71.04,25.25 L70.88,24.32 L70.70,23.42 L70.51,22.54 L70.32,21.70 L70.11,20.90 L69.90,20.12 L69.68,19.38 L69.45,18.67 L69.22,17.99 L68.97,17.35 L68.72,16.74 L68.46,16.18 L68.20,15.64 L67.92,15.15 L67.65,14.69 L67.36,14.27 L67.07,13.88 L66.77,13.54 L66.47,13.23 L66.16,12.97 L65.85,12.74 L65.53,12.55 L65.21,12.40 L64.88,12.29 L64.55,12.22" fill="none" stroke="#2E6BFF" stroke-width="1.05" stroke-linecap="round" opacity="0.24"></path><path d="M60.00,105.11 L60.98,104.75 L61.96,104.36 L62.93,103.93 L63.90,103.47 L64.87,102.97 L65.84,102.43 L66.80,101.86 L67.76,101.26 L68.71,100.62 L69.65,99.95 L70.58,99.24 L71.51,98.50 L72.42,97.73 L73.33,96.92 L74.22,96.09 L75.10,95.23 L75.97,94.34 L76.83,93.41 L77.67,92.47 L78.50,91.49 L79.31,90.49 L80.11,89.46 L80.89,88.41 L81.65,87.33 L82.39,86.23 L83.12,85.11 L83.83,83.97 L84.51,82.81 L85.18,81.63 L85.82,80.44 L86.45,79.22 L87.05,77.99 L87.63,76.75 L88.19,75.49 L88.72,74.21 L89.23,72.93 L89.71,71.63 L90.17,70.33 L90.61,69.02 L91.02,67.70 L91.40,66.37 L91.76,65.04 L92.09,63.70 L92.40,62.36 L92.68,61.02 L92.93,59.68 L93.15,58.34 L93.35,57.00 L93.52,55.66 L93.66,54.32 L93.77,52.99 L93.85,51.67 L93.91,50.35 L93.94,49.04 L93.94,47.74 L93.91,46.45 L93.85,45.17 L93.77,43.91 L93.66,42.66 L93.52,41.42 L93.35,40.19 L93.15,38.99 L92.93,37.80 L92.68,36.63 L92.40,35.48 L92.09,34.35 L91.76,33.24 L91.40,32.15 L91.02,31.08 L90.61,30.04 L90.17,29.03 L89.71,28.04 L89.23,27.08 L88.72,26.14 L88.19,25.23 L87.63,24.35 L87.05,23.51 L86.45,22.69 L85.82,21.90 L85.18,21.14 L84.51,20.42 L83.83,19.73 L83.12,19.07 L82.39,18.45 L81.65,17.86 L80.89,17.30 L80.11,16.79 L79.31,16.30 L78.50,15.86 L77.67,15.45 L76.83,15.07 L75.97,14.74" fill="none" stroke="#2E6BFF" stroke-width="1.05" stroke-linecap="round" opacity="0.24"></path><path d="M60.00,105.11 L61.34,104.96 L62.67,104.79 L64.00,104.57 L65.33,104.32 L66.66,104.03 L67.98,103.70 L69.29,103.34 L70.60,102.94 L71.89,102.51 L73.18,102.04 L74.45,101.53 L75.72,100.99 L76.97,100.42 L78.20,99.81 L79.43,99.17 L80.63,98.50 L81.82,97.80 L82.99,97.06 L84.14,96.30 L85.27,95.50 L86.38,94.67 L87.47,93.82 L88.53,92.94 L89.57,92.03 L90.59,91.09 L91.58,90.13 L92.55,89.14 L93.49,88.13 L94.40,87.09 L95.28,86.04 L96.13,84.96 L96.95,83.86 L97.74,82.74 L98.50,81.60 L99.23,80.44 L99.93,79.27 L100.59,78.08 L101.22,76.87 L101.81,75.65 L102.37,74.42 L102.90,73.18 L103.39,71.92 L103.84,70.66 L104.26,69.39 L104.64,68.11 L104.98,66.82 L105.29,65.52 L105.55,64.23 L105.78,62.92 L105.98,61.62 L106.13,60.31 L106.24,59.01 L106.32,57.70 L106.36,56.40 L106.36,55.10 L106.32,53.81 L106.24,52.51 L106.13,51.23 L105.98,49.95 L105.78,48.68 L105.55,47.42 L105.29,46.18 L104.98,44.94 L104.64,43.71 L104.26,42.50 L103.84,41.30 L103.39,40.12 L102.90,38.96 L102.37,37.81 L101.81,36.68 L101.22,35.57 L100.59,34.48 L99.93,33.41 L99.23,32.37 L98.50,31.34" fill="none" stroke="#2E6BFF" stroke-width="1.05" stroke-linecap="round" opacity="0.24"></path><path d="M83.18,101.19 L82.79,101.64 L82.31,102.08 L81.77,102.52 L81.15,102.94 L80.46,103.35 L79.70,103.75 L78.88,104.13" fill="none" stroke="#2E6BFF" stroke-width="1.05" stroke-linecap="round" opacity="0.24"></path><path d="M40.63,103.91 L39.85,103.52 L39.13,103.12 L38.48,102.70 L37.90,102.27 L37.40,101.83 L36.97,101.38 L36.62,100.92 L36.35,100.46 L36.15,99.99 L36.04,99.52 L36.00,99.04 L36.04,98.57 L36.17,98.10 L36.37,97.63 L36.65,97.17 L37.01,96.71 L37.44,96.26 L37.95,95.82 L38.53,95.39 L39.19,94.98 L39.91,94.57 L40.70,94.18 L41.55,93.81 L42.47,93.46 L43.44,93.12 L44.47,92.80 L45.55,92.51 L46.68,92.23 L47.85,91.98 L49.06,91.76 L50.31,91.55 L51.59,91.37 L52.90,91.22 L54.23,91.09 L55.59,90.99 L56.95,90.92 L58.33,90.87 L59.71,90.85 L61.09,90.86 L62.47,90.90 L63.85,90.96 L65.20,91.05 L66.55,91.16 L67.86,91.31 L69.16,91.47 L70.42,91.67 L71.65,91.89 L72.84,92.13 L73.99,92.39 L75.09,92.68 L76.14,92.99 L77.13,93.31 L78.07,93.66 L78.95,94.03 L79.77,94.41 L80.52,94.81 L81.20,95.22 L81.82,95.64 L82.36,96.08 L82.82,96.52 L83.21,96.98 L83.52,97.44 L83.76,97.90 L83.92,98.37 L83.99,98.85 L83.99,99.32 L83.91,99.79 L83.74,100.26 L83.50,100.73 L83.18,101.19" fill="none" stroke="#2E6BFF" stroke-width="1.05" stroke-linecap="round" opacity="0.24"></path><path d="M19.03,84.97 L18.70,84.15 L18.49,83.34 L18.43,82.52 L18.51,81.70 L18.72,80.88 L19.07,80.07 L19.55,79.27 L20.17,78.48 L20.93,77.70 L21.81,76.94 L22.82,76.20 L23.95,75.47 L25.20,74.77 L26.57,74.10 L28.05,73.46 L29.63,72.84 L31.32,72.26 L33.10,71.71 L34.97,71.20 L36.93,70.73 L38.96,70.29 L41.06,69.90 L43.22,69.54 L45.44,69.24 L47.71,68.97 L50.01,68.75 L52.36,68.58 L54.72,68.45 L57.11,68.37 L59.50,68.34 L61.90,68.35 L64.29,68.41 L66.66,68.52 L69.01,68.67 L71.34,68.87 L73.62,69.12 L75.86,69.41 L78.05,69.75 L80.18,70.12 L82.24,70.54 L84.22,71.00 L86.13,71.49 L87.95,72.03 L89.67,72.60 L91.30,73.20 L92.83,73.83 L94.24,74.49 L95.54,75.18 L96.73,75.89 L97.79,76.63 L98.72,77.38 L99.53,78.15 L100.20,78.94 L100.75,79.74 L101.15,80.54 L101.42,81.36 L101.55,82.18 L101.55,83.00 L101.41,83.81 L101.12,84.63 L100.71,85.44" fill="none" stroke="#2E6BFF" stroke-width="1.05" stroke-linecap="round" opacity="0.24"></path><path d="M12.00,59.96 L12.09,59.01 L12.33,58.07 L12.74,57.14 L13.30,56.21 L14.01,55.30 L14.88,54.40 L15.90,53.52 L17.07,52.66 L18.37,51.83 L19.82,51.02 L21.40,50.24 L23.11,49.50 L24.94,48.79 L26.88,48.12 L28.94,47.48 L31.10,46.89 L33.36,46.34 L35.70,45.84 L38.13,45.39 L40.62,44.98 L43.19,44.62 L45.80,44.32 L48.47,44.06 L51.17,43.86 L53.91,43.72 L56.66,43.62 L59.42,43.58 L62.19,43.60 L64.95,43.67 L67.69,43.80 L70.41,43.97 L73.09,44.21 L75.73,44.49 L78.32,44.83 L80.84,45.21 L83.30,45.65 L85.68,46.13 L87.97,46.66 L90.17,47.23 L92.27,47.85 L94.27,48.50 L96.15,49.20 L97.90,49.93 L99.54,50.69 L101.04,51.49 L102.41,52.31 L103.63,53.16 L104.71,54.03 L105.64,54.92 L106.42,55.83 L107.05,56.75 L107.52,57.68 L107.83,58.62 L107.98,59.57" fill="none" stroke="#2E6BFF" stroke-width="1.05" stroke-linecap="round" opacity="0.24"></path><path d="M19.55,34.16 L20.17,33.37 L20.93,32.60 L21.81,31.83 L22.82,31.09 L23.95,30.37 L25.20,29.67 L26.57,29.00 L28.05,28.35 L29.63,27.74 L31.32,27.16 L33.10,26.61 L34.97,26.10 L36.93,25.62 L38.96,25.19 L41.06,24.79 L43.22,24.44 L45.44,24.13 L47.71,23.87 L50.01,23.65 L52.36,23.47 L54.72,23.34 L57.11,23.26 L59.50,23.23 L61.90,23.24 L64.29,23.31 L66.66,23.41 L69.01,23.57 L71.34,23.77 L73.62,24.01 L75.86,24.31 L78.05,24.64 L80.18,25.02 L82.24,25.44 L84.22,25.89 L86.13,26.39 L87.95,26.92 L89.67,27.49 L91.30,28.09 L92.83,28.72 L94.24,29.39 L95.54,30.07 L96.73,30.79 L97.79,31.52 L98.72,32.28 L99.53,33.05 L100.20,33.83" fill="none" stroke="#2E6BFF" stroke-width="1.05" stroke-linecap="round" opacity="0.24"></path><path d="M41.55,15.69 L42.47,15.33 L43.44,15.00 L44.47,14.68 L45.55,14.38 L46.68,14.11 L47.85,13.86 L49.06,13.63 L50.31,13.43 L51.59,13.25 L52.90,13.10 L54.23,12.97 L55.59,12.87 L56.95,12.80 L58.33,12.75 L59.71,12.73 L61.09,12.74 L62.47,12.77 L63.85,12.84 L65.20,12.92 L66.55,13.04 L67.86,13.18 L69.16,13.35 L70.42,13.54 L71.65,13.76 L72.84,14.00 L73.99,14.27 L75.09,14.55 L76.14,14.86 L77.13,15.19 L78.07,15.54" fill="none" stroke="#2E6BFF" stroke-width="1.05" stroke-linecap="round" opacity="0.24"></path><path d="M98.50,88.66 L99.23,87.63 L99.93,86.59 L100.59,85.52 L101.22,84.43 L101.81,83.32 L102.37,82.19 L102.90,81.04 L103.39,79.88 L103.84,78.70 L104.26,77.50 L104.64,76.29 L104.98,75.06 L105.29,73.82 L105.55,72.58 L105.78,71.32 L105.98,70.05 L106.13,68.77 L106.24,67.49 L106.32,66.19 L106.36,64.90 L106.36,63.60 L106.32,62.30 L106.24,60.99 L106.13,59.69 L105.98,58.38 L105.78,57.08 L105.55,55.77 L105.29,54.48 L104.98,53.18 L104.64,51.89 L104.26,50.61 L103.84,49.34 L103.39,48.08 L102.90,46.82 L102.37,45.58 L101.81,44.35 L101.22,43.13 L100.59,41.92 L99.93,40.73 L99.23,39.56 L98.50,38.40 L97.74,37.26 L96.95,36.14 L96.13,35.04 L95.28,33.96 L94.40,32.91 L93.49,31.87 L92.55,30.86 L91.58,29.87 L90.59,28.91 L89.57,27.97 L88.53,27.06 L87.47,26.18 L86.38,25.33 L85.27,24.50 L84.14,23.70 L82.99,22.94 L81.82,22.20 L80.63,21.50 L79.43,20.83 L78.20,20.19 L76.97,19.58 L75.72,19.01 L74.45,18.47 L73.18,17.96 L71.89,17.49 L70.60,17.06 L69.29,16.66 L67.98,16.30 L66.66,15.97 L65.33,15.68 L64.00,15.43 L62.67,15.21 L61.34,15.04 L60.00,14.89" fill="none" stroke="#2E6BFF" stroke-width="1.6" stroke-linecap="round"></path><path d="M75.97,105.26 L76.83,104.93 L77.67,104.55 L78.50,104.14 L79.31,103.70 L80.11,103.21 L80.89,102.70 L81.65,102.14 L82.39,101.55 L83.12,100.93 L83.83,100.27 L84.51,99.58 L85.18,98.86 L85.82,98.10 L86.45,97.31 L87.05,96.49 L87.63,95.65 L88.19,94.77 L88.72,93.86 L89.23,92.92 L89.71,91.96 L90.17,90.97 L90.61,89.96 L91.02,88.92 L91.40,87.85 L91.76,86.76 L92.09,85.65 L92.40,84.52 L92.68,83.37 L92.93,82.20 L93.15,81.01 L93.35,79.81 L93.52,78.58 L93.66,77.34 L93.77,76.09 L93.85,74.83 L93.91,73.55 L93.94,72.26 L93.94,70.96 L93.91,69.65 L93.85,68.33 L93.77,67.01 L93.66,65.68 L93.52,64.34 L93.35,63.00 L93.15,61.66 L92.93,60.32 L92.68,58.98 L92.40,57.64 L92.09,56.30 L91.76,54.96 L91.40,53.63 L91.02,52.30 L90.61,50.98 L90.17,49.67 L89.71,48.37 L89.23,47.07 L88.72,45.79 L88.19,44.51 L87.63,43.25 L87.05,42.01 L86.45,40.78 L85.82,39.56 L85.18,38.37 L84.51,37.19 L83.83,36.03 L83.12,34.89 L82.39,33.77 L81.65,32.67 L80.89,31.59 L80.11,30.54 L79.31,29.51 L78.50,28.51 L77.67,27.53 L76.83,26.59 L75.97,25.66 L75.10,24.77 L74.22,23.91 L73.33,23.08 L72.42,22.27 L71.51,21.50 L70.58,20.76 L69.65,20.05 L68.71,19.38 L67.76,18.74 L66.80,18.14 L65.84,17.57 L64.87,17.03 L63.90,16.53 L62.93,16.07 L61.96,15.64 L60.98,15.25 L60.00,14.89" fill="none" stroke="#2E6BFF" stroke-width="1.6" stroke-linecap="round"></path><path d="M64.55,107.78 L64.88,107.71 L65.21,107.60 L65.53,107.45 L65.85,107.26 L66.16,107.03 L66.47,106.77 L66.77,106.46 L67.07,106.12 L67.36,105.73 L67.65,105.31 L67.92,104.85 L68.20,104.36 L68.46,103.82 L68.72,103.26 L68.97,102.65 L69.22,102.01 L69.45,101.33 L69.68,100.62 L69.90,99.88 L70.11,99.10 L70.32,98.30 L70.51,97.46 L70.70,96.58 L70.88,95.68 L71.04,94.75 L71.20,93.79 L71.35,92.80 L71.49,91.78 L71.63,90.74 L71.75,89.67 L71.86,88.58 L71.96,87.46 L72.05,86.32 L72.13,85.16 L72.21,83.98 L72.27,82.78 L72.32,81.56 L72.36,80.32 L72.39,79.06 L72.41,77.79 L72.42,76.51 L72.42,75.21 L72.41,73.89 L72.39,72.57 L72.36,71.23 L72.32,69.89 L72.27,68.54 L72.21,67.18 L72.13,65.81 L72.05,64.44 L71.96,63.07 L71.86,61.69 L71.75,60.32 L71.63,58.94 L71.49,57.56 L71.35,56.19 L71.20,54.81 L71.04,53.45 L70.88,52.08 L70.70,50.73 L70.51,49.38 L70.32,48.04 L70.11,46.71 L69.90,45.40 L69.68,44.09 L69.45,42.80 L69.22,41.52 L68.97,40.26 L68.72,39.01 L68.46,37.78 L68.20,36.57 L67.92,35.38 L67.65,34.21 L67.36,33.06 L67.07,31.93 L66.77,30.83 L66.47,29.75 L66.16,28.69 L65.85,27.66 L65.53,26.66 L65.21,25.69 L64.88,24.74 L64.55,23.83 L64.21,22.94 L63.87,22.09 L63.53,21.26 L63.19,20.47 L62.84,19.71 L62.49,18.99 L62.14,18.30 L61.78,17.64 L61.43,17.02 L61.07,16.43 L60.72,15.88 L60.36,15.37 L60.00,14.89" fill="none" stroke="#2E6BFF" stroke-width="1.6" stroke-linecap="round"></path><path d="M55.45,107.78 L55.12,107.71 L54.79,107.60 L54.47,107.45 L54.15,107.26 L53.84,107.03 L53.53,106.77 L53.23,106.46 L52.93,106.12 L52.64,105.73 L52.35,105.31 L52.08,104.85 L51.80,104.36 L51.54,103.82 L51.28,103.26 L51.03,102.65 L50.78,102.01 L50.55,101.33 L50.32,100.62 L50.10,99.88 L49.89,99.10 L49.68,98.30 L49.49,97.46 L49.30,96.58 L49.12,95.68 L48.96,94.75 L48.80,93.79 L48.65,92.80 L48.51,91.78 L48.37,90.74 L48.25,89.67 L48.14,88.58 L48.04,87.46 L47.95,86.32 L47.87,85.16 L47.79,83.98 L47.73,82.78 L47.68,81.56 L47.64,80.32 L47.61,79.06 L47.59,77.79 L47.58,76.51 L47.58,75.21 L47.59,73.89 L47.61,72.57 L47.64,71.23 L47.68,69.89 L47.73,68.54 L47.79,67.18 L47.87,65.81 L47.95,64.44 L48.04,63.07 L48.14,61.69 L48.25,60.32 L48.37,58.94 L48.51,57.56 L48.65,56.19 L48.80,54.81 L48.96,53.45 L49.12,52.08 L49.30,50.73 L49.49,49.38 L49.68,48.04 L49.89,46.71 L50.10,45.40 L50.32,44.09 L50.55,42.80 L50.78,41.52 L51.03,40.26 L51.28,39.01 L51.54,37.78 L51.80,36.57 L52.08,35.38 L52.35,34.21 L52.64,33.06 L52.93,31.93 L53.23,30.83 L53.53,29.75 L53.84,28.69 L54.15,27.66 L54.47,26.66 L54.79,25.69 L55.12,24.74 L55.45,23.83 L55.79,22.94 L56.13,22.09 L56.47,21.26 L56.81,20.47 L57.16,19.71 L57.51,18.99 L57.86,18.30 L58.22,17.64 L58.57,17.02 L58.93,16.43 L59.28,15.88 L59.64,15.37 L60.00,14.89" fill="none" stroke="#2E6BFF" stroke-width="1.6" stroke-linecap="round"></path><path d="M44.03,105.26 L43.17,104.93 L42.33,104.55 L41.50,104.14 L40.69,103.70 L39.89,103.21 L39.11,102.70 L38.35,102.14 L37.61,101.55 L36.88,100.93 L36.17,100.27 L35.49,99.58 L34.82,98.86 L34.18,98.10 L33.55,97.31 L32.95,96.49 L32.37,95.65 L31.81,94.77 L31.28,93.86 L30.77,92.92 L30.29,91.96 L29.83,90.97 L29.39,89.96 L28.98,88.92 L28.60,87.85 L28.24,86.76 L27.91,85.65 L27.60,84.52 L27.32,83.37 L27.07,82.20 L26.85,81.01 L26.65,79.81 L26.48,78.58 L26.34,77.34 L26.23,76.09 L26.15,74.83 L26.09,73.55 L26.06,72.26 L26.06,70.96 L26.09,69.65 L26.15,68.33 L26.23,67.01 L26.34,65.68 L26.48,64.34 L26.65,63.00 L26.85,61.66 L27.07,60.32 L27.32,58.98 L27.60,57.64 L27.91,56.30 L28.24,54.96 L28.60,53.63 L28.98,52.30 L29.39,50.98 L29.83,49.67 L30.29,48.37 L30.77,47.07 L31.28,45.79 L31.81,44.51 L32.37,43.25 L32.95,42.01 L33.55,40.78 L34.18,39.56 L34.82,38.37 L35.49,37.19 L36.17,36.03 L36.88,34.89 L37.61,33.77 L38.35,32.67 L39.11,31.59 L39.89,30.54 L40.69,29.51 L41.50,28.51 L42.33,27.53 L43.17,26.59 L44.03,25.66 L44.90,24.77 L45.78,23.91 L46.67,23.08 L47.58,22.27 L48.49,21.50 L49.42,20.76 L50.35,20.05 L51.29,19.38 L52.24,18.74 L53.20,18.14 L54.16,17.57 L55.13,17.03 L56.10,16.53 L57.07,16.07 L58.04,15.64 L59.02,15.25 L60.00,14.89" fill="none" stroke="#2E6BFF" stroke-width="1.6" stroke-linecap="round"></path><path d="M21.50,88.66 L20.77,87.63 L20.07,86.59 L19.41,85.52 L18.78,84.43 L18.19,83.32 L17.63,82.19 L17.10,81.04 L16.61,79.88 L16.16,78.70 L15.74,77.50 L15.36,76.29 L15.02,75.06 L14.71,73.82 L14.45,72.58 L14.22,71.32 L14.02,70.05 L13.87,68.77 L13.76,67.49 L13.68,66.19 L13.64,64.90 L13.64,63.60 L13.68,62.30 L13.76,60.99 L13.87,59.69 L14.02,58.38 L14.22,57.08 L14.45,55.77 L14.71,54.48 L15.02,53.18 L15.36,51.89 L15.74,50.61 L16.16,49.34 L16.61,48.08 L17.10,46.82 L17.63,45.58 L18.19,44.35 L18.78,43.13 L19.41,41.92 L20.07,40.73 L20.77,39.56 L21.50,38.40 L22.26,37.26 L23.05,36.14 L23.87,35.04 L24.72,33.96 L25.60,32.91 L26.51,31.87 L27.45,30.86 L28.42,29.87 L29.41,28.91 L30.43,27.97 L31.47,27.06 L32.53,26.18 L33.62,25.33 L34.73,24.50 L35.86,23.70 L37.01,22.94 L38.18,22.20 L39.37,21.50 L40.57,20.83 L41.80,20.19 L43.03,19.58 L44.28,19.01 L45.55,18.47 L46.82,17.96 L48.11,17.49 L49.40,17.06 L50.71,16.66 L52.02,16.30 L53.34,15.97 L54.67,15.68 L56.00,15.43 L57.33,15.21 L58.66,15.04 L60.00,14.89" fill="none" stroke="#2E6BFF" stroke-width="1.6" stroke-linecap="round"></path><path d="M22.26,30.35 L23.05,29.37 L23.87,28.42 L24.72,27.50 L25.60,26.60 L26.51,25.73 L27.45,24.89 L28.42,24.08 L29.41,23.30 L30.43,22.55 L31.47,21.83 L32.53,21.15 L33.62,20.49 L34.73,19.87 L35.86,19.28 L37.01,18.72 L38.18,18.20 L39.37,17.72 L40.57,17.26 L41.80,16.85 L43.03,16.47 L44.28,16.13 L45.55,15.82 L46.82,15.55 L48.11,15.31 L49.40,15.12 L50.71,14.96 L52.02,14.84 L53.34,14.75 L54.67,14.71 L56.00,14.70 L57.33,14.72 L58.66,14.79 L60.00,14.89" fill="none" stroke="#2E6BFF" stroke-width="1.6" stroke-linecap="round"></path><path d="M44.90,14.44 L45.78,14.18 L46.67,13.96 L47.58,13.78 L48.49,13.63 L49.42,13.52 L50.35,13.46 L51.29,13.43 L52.24,13.44 L53.20,13.48 L54.16,13.57 L55.13,13.70 L56.10,13.86 L57.07,14.06 L58.04,14.30 L59.02,14.58 L60.00,14.89" fill="none" stroke="#2E6BFF" stroke-width="1.6" stroke-linecap="round"></path><path d="M55.79,12.19 L56.13,12.20 L56.47,12.25 L56.81,12.34 L57.16,12.46 L57.51,12.63 L57.86,12.84 L58.22,13.08 L58.57,13.37 L58.93,13.69 L59.28,14.06 L59.64,14.46 L60.00,14.89" fill="none" stroke="#2E6BFF" stroke-width="1.6" stroke-linecap="round"></path><path d="M64.21,12.19 L63.87,12.20 L63.53,12.25 L63.19,12.34 L62.84,12.46 L62.49,12.63 L62.14,12.84 L61.78,13.08 L61.43,13.37 L61.07,13.69 L60.72,14.06 L60.36,14.46 L60.00,14.89" fill="none" stroke="#2E6BFF" stroke-width="1.6" stroke-linecap="round"></path><path d="M75.10,14.44 L74.22,14.18 L73.33,13.96 L72.42,13.78 L71.51,13.63 L70.58,13.52 L69.65,13.46 L68.71,13.43 L67.76,13.44 L66.80,13.48 L65.84,13.57 L64.87,13.70 L63.90,13.86 L62.93,14.06 L61.96,14.30 L60.98,14.58 L60.00,14.89" fill="none" stroke="#2E6BFF" stroke-width="1.6" stroke-linecap="round"></path><path d="M97.74,30.35 L96.95,29.37 L96.13,28.42 L95.28,27.50 L94.40,26.60 L93.49,25.73 L92.55,24.89 L91.58,24.08 L90.59,23.30 L89.57,22.55 L88.53,21.83 L87.47,21.15 L86.38,20.49 L85.27,19.87 L84.14,19.28 L82.99,18.72 L81.82,18.20 L80.63,17.72 L79.43,17.26 L78.20,16.85 L76.97,16.47 L75.72,16.13 L74.45,15.82 L73.18,15.55 L71.89,15.31 L70.60,15.12 L69.29,14.96 L67.98,14.84 L66.66,14.75 L65.33,14.71 L64.00,14.70 L62.67,14.72 L61.34,14.79 L60.00,14.89" fill="none" stroke="#2E6BFF" stroke-width="1.6" stroke-linecap="round"></path><path d="M78.00,104.49 L77.05,104.84 L76.05,105.17 L75.00,105.47 L73.89,105.76 L72.74,106.02 L71.55,106.26 L70.32,106.47 L69.05,106.66 L67.76,106.83 L66.43,106.97 L65.09,107.08 L63.73,107.17 L62.36,107.23 L60.98,107.26 L59.60,107.27 L58.21,107.25 L56.84,107.20 L55.47,107.12 L54.12,107.02 L52.79,106.89 L51.49,106.74 L50.21,106.56 L48.96,106.35 L47.75,106.12 L46.58,105.87 L45.46,105.59 L44.38,105.30 L43.36,104.98 L42.39,104.64 L41.48,104.28" fill="none" stroke="#2E6BFF" stroke-width="1.6" stroke-linecap="round"></path><path d="M100.15,86.23 L99.47,87.02 L98.65,87.79 L97.70,88.54 L96.63,89.27 L95.44,89.98 L94.13,90.67 L92.70,91.33 L91.17,91.96 L89.53,92.56 L87.80,93.12 L85.97,93.65 L84.06,94.15 L82.07,94.60 L80.00,95.02 L77.87,95.39 L75.68,95.72 L73.43,96.01 L71.14,96.25 L68.82,96.45 L66.46,96.60 L64.09,96.70 L61.70,96.76 L59.30,96.77 L56.91,96.73 L54.52,96.65 L52.16,96.51 L49.82,96.34 L47.52,96.11 L45.25,95.85 L43.04,95.53 L40.88,95.18 L38.78,94.78 L36.76,94.34 L34.81,93.86 L32.95,93.35 L31.18,92.80 L29.50,92.21 L27.92,91.60 L26.45,90.95 L25.09,90.27 L23.85,89.57 L22.73,88.85 L21.73,88.10 L20.86,87.34 L20.12,86.56 L19.51,85.77" fill="none" stroke="#2E6BFF" stroke-width="1.6" stroke-linecap="round"></path><path d="M100.15,86.23" fill="none" stroke="#2E6BFF" stroke-width="1.6" stroke-linecap="round"></path><path d="M106.36,64.25 L105.57,65.16 L104.63,66.04 L103.54,66.91 L102.30,67.76 L100.92,68.58 L99.41,69.37 L97.76,70.13 L95.99,70.86 L94.10,71.55 L92.10,72.21 L89.99,72.82 L87.78,73.39 L85.48,73.91 L83.10,74.39 L80.63,74.82 L78.10,75.20 L75.51,75.54 L72.87,75.82 L70.18,76.04 L67.46,76.22 L64.72,76.34 L61.96,76.40 L59.19,76.41 L56.43,76.37 L53.68,76.27 L50.95,76.12 L48.25,75.92 L45.58,75.66 L42.97,75.35 L40.41,74.99 L37.92,74.58 L35.50,74.12 L33.17,73.61 L30.92,73.06 L28.77,72.47 L26.72,71.83 L24.78,71.15 L22.96,70.44 L21.26,69.69 L19.69,68.91 L18.26,68.11 L16.96,67.27 L15.81,66.41 L14.80,65.53 L13.95,64.63 L13.24,63.71 L12.70,62.79 L12.31,61.85 L12.07,60.91" fill="none" stroke="#2E6BFF" stroke-width="1.6" stroke-linecap="round"></path><path d="M107.98,60.51 L107.81,61.46 L107.49,62.40 L107.00,63.33 L106.36,64.25" fill="none" stroke="#2E6BFF" stroke-width="1.6" stroke-linecap="round"></path><path d="M100.15,41.13 L99.47,41.91 L98.65,42.68 L97.70,43.44 L96.63,44.17 L95.44,44.88 L94.13,45.56 L92.70,46.22 L91.17,46.85 L89.53,47.45 L87.80,48.02 L85.97,48.55 L84.06,49.04 L82.07,49.50 L80.00,49.91 L77.87,50.28 L75.68,50.62 L73.43,50.90 L71.14,51.14 L68.82,51.34 L66.46,51.49 L64.09,51.60 L61.70,51.65 L59.30,51.66 L56.91,51.63 L54.52,51.54 L52.16,51.41 L49.82,51.23 L47.52,51.01 L45.25,50.74 L43.04,50.43 L40.88,50.07 L38.78,49.67 L36.76,49.24 L34.81,48.76 L32.95,48.24 L31.18,47.69 L29.50,47.11 L27.92,46.49 L26.45,45.84 L25.09,45.17 L23.85,44.47 L22.73,43.74 L21.73,43.00 L20.86,42.24 L20.12,41.46 L19.51,40.66 L19.03,39.86 L18.70,39.05 L18.49,38.23 L18.43,37.41 L18.51,36.59 L18.72,35.78 L19.07,34.97" fill="none" stroke="#2E6BFF" stroke-width="1.6" stroke-linecap="round"></path><path d="M100.75,34.63 L101.15,35.44 L101.42,36.25 L101.55,37.07 L101.55,37.89 L101.41,38.71 L101.12,39.52 L100.71,40.33 L100.15,41.13" fill="none" stroke="#2E6BFF" stroke-width="1.6" stroke-linecap="round"></path><path d="M83.18,23.06 L82.79,23.52 L82.31,23.96 L81.77,24.39 L81.15,24.82 L80.46,25.23 L79.70,25.62 L78.88,26.00 L78.00,26.37 L77.05,26.71 L76.05,27.04 L75.00,27.35 L73.89,27.63 L72.74,27.89 L71.55,28.13 L70.32,28.35 L69.05,28.54 L67.76,28.71 L66.43,28.85 L65.09,28.96 L63.73,29.05 L62.36,29.11 L60.98,29.14 L59.60,29.15 L58.21,29.12 L56.84,29.07 L55.47,29.00 L54.12,28.90 L52.79,28.77 L51.49,28.61 L50.21,28.43 L48.96,28.23 L47.75,28.00 L46.58,27.74 L45.46,27.47 L44.38,27.17 L43.36,26.85 L42.39,26.51 L41.48,26.16 L40.63,25.78 L39.85,25.40 L39.13,24.99 L38.48,24.57 L37.90,24.14 L37.40,23.70 L36.97,23.25 L36.62,22.79 L36.35,22.33 L36.15,21.86 L36.04,21.39 L36.00,20.92 L36.04,20.45 L36.17,19.97 L36.37,19.51 L36.65,19.04 L37.01,18.59 L37.44,18.14 L37.95,17.70 L38.53,17.27 L39.19,16.85 L39.91,16.45 L40.70,16.06" fill="none" stroke="#2E6BFF" stroke-width="1.6" stroke-linecap="round"></path><path d="M78.95,15.90 L79.77,16.28 L80.52,16.68 L81.20,17.09 L81.82,17.52 L82.36,17.95 L82.82,18.40 L83.21,18.85 L83.52,19.31 L83.76,19.78 L83.92,20.25 L83.99,20.72 L83.99,21.19 L83.91,21.67 L83.74,22.14 L83.50,22.60 L83.18,23.06" fill="none" stroke="#2E6BFF" stroke-width="1.6" stroke-linecap="round"></path><circle cx="60" cy="60" r="48" fill="none" stroke="#2E6BFF" stroke-width="1.6800000000000002"></circle></g><g><path d="M60.00,105.11 L61.34,105.21 L62.67,105.28 L64.00,105.30 L65.33,105.29 L66.66,105.25 L67.98,105.16 L69.29,105.04 L70.60,104.88 L71.89,104.69 L73.18,104.45 L74.45,104.18 L75.72,103.87 L76.97,103.53 L78.20,103.15 L79.43,102.74 L80.63,102.28 L81.82,101.80 L82.99,101.28 L84.14,100.72 L85.27,100.13 L86.38,99.51 L87.47,98.85 L88.53,98.17 L89.57,97.45 L90.59,96.70 L91.58,95.92 L92.55,95.11 L93.49,94.27 L94.40,93.40 L95.28,92.50 L96.13,91.58 L96.95,90.63 L97.74,89.65" fill="none" stroke="#5AA6FF" stroke-width="0.5" stroke-linecap="round" opacity="0.24"></path><path d="M60.00,105.11 L60.98,105.42 L61.96,105.70 L62.93,105.94 L63.90,106.14 L64.87,106.30 L65.84,106.43 L66.80,106.52 L67.76,106.56 L68.71,106.57 L69.65,106.54 L70.58,106.48 L71.51,106.37 L72.42,106.22 L73.33,106.04 L74.22,105.82 L75.10,105.56" fill="none" stroke="#5AA6FF" stroke-width="0.5" stroke-linecap="round" opacity="0.24"></path><path d="M60.00,105.11 L60.36,105.54 L60.72,105.94 L61.07,106.31 L61.43,106.63 L61.78,106.92 L62.14,107.16 L62.49,107.37 L62.84,107.54 L63.19,107.66 L63.53,107.75 L63.87,107.80 L64.21,107.81" fill="none" stroke="#5AA6FF" stroke-width="0.5" stroke-linecap="round" opacity="0.24"></path><path d="M60.00,105.11 L59.64,105.54 L59.28,105.94 L58.93,106.31 L58.57,106.63 L58.22,106.92 L57.86,107.16 L57.51,107.37 L57.16,107.54 L56.81,107.66 L56.47,107.75 L56.13,107.80 L55.79,107.81" fill="none" stroke="#5AA6FF" stroke-width="0.5" stroke-linecap="round" opacity="0.24"></path><path d="M60.00,105.11 L59.02,105.42 L58.04,105.70 L57.07,105.94 L56.10,106.14 L55.13,106.30 L54.16,106.43 L53.20,106.52 L52.24,106.56 L51.29,106.57 L50.35,106.54 L49.42,106.48 L48.49,106.37 L47.58,106.22 L46.67,106.04 L45.78,105.82 L44.90,105.56" fill="none" stroke="#5AA6FF" stroke-width="0.5" stroke-linecap="round" opacity="0.24"></path><path d="M60.00,105.11 L58.66,105.21 L57.33,105.28 L56.00,105.30 L54.67,105.29 L53.34,105.25 L52.02,105.16 L50.71,105.04 L49.40,104.88 L48.11,104.69 L46.82,104.45 L45.55,104.18 L44.28,103.87 L43.03,103.53 L41.80,103.15 L40.57,102.74 L39.37,102.28 L38.18,101.80 L37.01,101.28 L35.86,100.72 L34.73,100.13 L33.62,99.51 L32.53,98.85 L31.47,98.17 L30.43,97.45 L29.41,96.70 L28.42,95.92 L27.45,95.11 L26.51,94.27 L25.60,93.40 L24.72,92.50 L23.87,91.58 L23.05,90.63 L22.26,89.65" fill="none" stroke="#5AA6FF" stroke-width="0.5" stroke-linecap="round" opacity="0.24"></path><path d="M60.00,105.11 L58.66,104.96 L57.33,104.79 L56.00,104.57 L54.67,104.32 L53.34,104.03 L52.02,103.70 L50.71,103.34 L49.40,102.94 L48.11,102.51 L46.82,102.04 L45.55,101.53 L44.28,100.99 L43.03,100.42 L41.80,99.81 L40.57,99.17 L39.37,98.50 L38.18,97.80 L37.01,97.06 L35.86,96.30 L34.73,95.50 L33.62,94.67 L32.53,93.82 L31.47,92.94 L30.43,92.03 L29.41,91.09 L28.42,90.13 L27.45,89.14 L26.51,88.13 L25.60,87.09 L24.72,86.04 L23.87,84.96 L23.05,83.86 L22.26,82.74 L21.50,81.60 L20.77,80.44 L20.07,79.27 L19.41,78.08 L18.78,76.87 L18.19,75.65 L17.63,74.42 L17.10,73.18 L16.61,71.92 L16.16,70.66 L15.74,69.39 L15.36,68.11 L15.02,66.82 L14.71,65.52 L14.45,64.23 L14.22,62.92 L14.02,61.62 L13.87,60.31 L13.76,59.01 L13.68,57.70 L13.64,56.40 L13.64,55.10 L13.68,53.81 L13.76,52.51 L13.87,51.23 L14.02,49.95 L14.22,48.68 L14.45,47.42 L14.71,46.18 L15.02,44.94 L15.36,43.71 L15.74,42.50 L16.16,41.30 L16.61,40.12 L17.10,38.96 L17.63,37.81 L18.19,36.68 L18.78,35.57 L19.41,34.48 L20.07,33.41 L20.77,32.37 L21.50,31.34" fill="none" stroke="#5AA6FF" stroke-width="0.5" stroke-linecap="round" opacity="0.24"></path><path d="M60.00,105.11 L59.02,104.75 L58.04,104.36 L57.07,103.93 L56.10,103.47 L55.13,102.97 L54.16,102.43 L53.20,101.86 L52.24,101.26 L51.29,100.62 L50.35,99.95 L49.42,99.24 L48.49,98.50 L47.58,97.73 L46.67,96.92 L45.78,96.09 L44.90,95.23 L44.03,94.34 L43.17,93.41 L42.33,92.47 L41.50,91.49 L40.69,90.49 L39.89,89.46 L39.11,88.41 L38.35,87.33 L37.61,86.23 L36.88,85.11 L36.17,83.97 L35.49,82.81 L34.82,81.63 L34.18,80.44 L33.55,79.22 L32.95,77.99 L32.37,76.75 L31.81,75.49 L31.28,74.21 L30.77,72.93 L30.29,71.63 L29.83,70.33 L29.39,69.02 L28.98,67.70 L28.60,66.37 L28.24,65.04 L27.91,63.70 L27.60,62.36 L27.32,61.02 L27.07,59.68 L26.85,58.34 L26.65,57.00 L26.48,55.66 L26.34,54.32 L26.23,52.99 L26.15,51.67 L26.09,50.35 L26.06,49.04 L26.06,47.74 L26.09,46.45 L26.15,45.17 L26.23,43.91 L26.34,42.66 L26.48,41.42 L26.65,40.19 L26.85,38.99 L27.07,37.80 L27.32,36.63 L27.60,35.48 L27.91,34.35 L28.24,33.24 L28.60,32.15 L28.98,31.08 L29.39,30.04 L29.83,29.03 L30.29,28.04 L30.77,27.08 L31.28,26.14 L31.81,25.23 L32.37,24.35 L32.95,23.51 L33.55,22.69 L34.18,21.90 L34.82,21.14 L35.49,20.42 L36.17,19.73 L36.88,19.07 L37.61,18.45 L38.35,17.86 L39.11,17.30 L39.89,16.79 L40.69,16.30 L41.50,15.86 L42.33,15.45 L43.17,15.07 L44.03,14.74" fill="none" stroke="#5AA6FF" stroke-width="0.5" stroke-linecap="round" opacity="0.24"></path><path d="M60.00,105.11 L59.64,104.63 L59.28,104.12 L58.93,103.57 L58.57,102.98 L58.22,102.36 L57.86,101.70 L57.51,101.01 L57.16,100.29 L56.81,99.53 L56.47,98.74 L56.13,97.91 L55.79,97.06 L55.45,96.17 L55.12,95.26 L54.79,94.31 L54.47,93.34 L54.15,92.34 L53.84,91.31 L53.53,90.25 L53.23,89.17 L52.93,88.07 L52.64,86.94 L52.35,85.79 L52.08,84.62 L51.80,83.43 L51.54,82.22 L51.28,80.99 L51.03,79.74 L50.78,78.48 L50.55,77.20 L50.32,75.91 L50.10,74.60 L49.89,73.29 L49.68,71.96 L49.49,70.62 L49.30,69.27 L49.12,67.92 L48.96,66.55 L48.80,65.19 L48.65,63.81 L48.51,62.44 L48.37,61.06 L48.25,59.68 L48.14,58.31 L48.04,56.93 L47.95,55.56 L47.87,54.19 L47.79,52.82 L47.73,51.46 L47.68,50.11 L47.64,48.77 L47.61,47.43 L47.59,46.11 L47.58,44.79 L47.58,43.49 L47.59,42.21 L47.61,40.94 L47.64,39.68 L47.68,38.44 L47.73,37.22 L47.79,36.02 L47.87,34.84 L47.95,33.68 L48.04,32.54 L48.14,31.42 L48.25,30.33 L48.37,29.26 L48.51,28.22 L48.65,27.20 L48.80,26.21 L48.96,25.25 L49.12,24.32 L49.30,23.42 L49.49,22.54 L49.68,21.70 L49.89,20.90 L50.10,20.12 L50.32,19.38 L50.55,18.67 L50.78,17.99 L51.03,17.35 L51.28,16.74 L51.54,16.18 L51.80,15.64 L52.08,15.15 L52.35,14.69 L52.64,14.27 L52.93,13.88 L53.23,13.54 L53.53,13.23 L53.84,12.97 L54.15,12.74 L54.47,12.55 L54.79,12.40 L55.12,12.29 L55.45,12.22" fill="none" stroke="#5AA6FF" stroke-width="0.5" stroke-linecap="round" opacity="0.24"></path><path d="M60.00,105.11 L60.36,104.63 L60.72,104.12 L61.07,103.57 L61.43,102.98 L61.78,102.36 L62.14,101.70 L62.49,101.01 L62.84,100.29 L63.19,99.53 L63.53,98.74 L63.87,97.91 L64.21,97.06 L64.55,96.17 L64.88,95.26 L65.21,94.31 L65.53,93.34 L65.85,92.34 L66.16,91.31 L66.47,90.25 L66.77,89.17 L67.07,88.07 L67.36,86.94 L67.65,85.79 L67.92,84.62 L68.20,83.43 L68.46,82.22 L68.72,80.99 L68.97,79.74 L69.22,78.48 L69.45,77.20 L69.68,75.91 L69.90,74.60 L70.11,73.29 L70.32,71.96 L70.51,70.62 L70.70,69.27 L70.88,67.92 L71.04,66.55 L71.20,65.19 L71.35,63.81 L71.49,62.44 L71.63,61.06 L71.75,59.68 L71.86,58.31 L71.96,56.93 L72.05,55.56 L72.13,54.19 L72.21,52.82 L72.27,51.46 L72.32,50.11 L72.36,48.77 L72.39,47.43 L72.41,46.11 L72.42,44.79 L72.42,43.49 L72.41,42.21 L72.39,40.94 L72.36,39.68 L72.32,38.44 L72.27,37.22 L72.21,36.02 L72.13,34.84 L72.05,33.68 L71.96,32.54 L71.86,31.42 L71.75,30.33 L71.63,29.26 L71.49,28.22 L71.35,27.20 L71.20,26.21 L71.04,25.25 L70.88,24.32 L70.70,23.42 L70.51,22.54 L70.32,21.70 L70.11,20.90 L69.90,20.12 L69.68,19.38 L69.45,18.67 L69.22,17.99 L68.97,17.35 L68.72,16.74 L68.46,16.18 L68.20,15.64 L67.92,15.15 L67.65,14.69 L67.36,14.27 L67.07,13.88 L66.77,13.54 L66.47,13.23 L66.16,12.97 L65.85,12.74 L65.53,12.55 L65.21,12.40 L64.88,12.29 L64.55,12.22" fill="none" stroke="#5AA6FF" stroke-width="0.5" stroke-linecap="round" opacity="0.24"></path><path d="M60.00,105.11 L60.98,104.75 L61.96,104.36 L62.93,103.93 L63.90,103.47 L64.87,102.97 L65.84,102.43 L66.80,101.86 L67.76,101.26 L68.71,100.62 L69.65,99.95 L70.58,99.24 L71.51,98.50 L72.42,97.73 L73.33,96.92 L74.22,96.09 L75.10,95.23 L75.97,94.34 L76.83,93.41 L77.67,92.47 L78.50,91.49 L79.31,90.49 L80.11,89.46 L80.89,88.41 L81.65,87.33 L82.39,86.23 L83.12,85.11 L83.83,83.97 L84.51,82.81 L85.18,81.63 L85.82,80.44 L86.45,79.22 L87.05,77.99 L87.63,76.75 L88.19,75.49 L88.72,74.21 L89.23,72.93 L89.71,71.63 L90.17,70.33 L90.61,69.02 L91.02,67.70 L91.40,66.37 L91.76,65.04 L92.09,63.70 L92.40,62.36 L92.68,61.02 L92.93,59.68 L93.15,58.34 L93.35,57.00 L93.52,55.66 L93.66,54.32 L93.77,52.99 L93.85,51.67 L93.91,50.35 L93.94,49.04 L93.94,47.74 L93.91,46.45 L93.85,45.17 L93.77,43.91 L93.66,42.66 L93.52,41.42 L93.35,40.19 L93.15,38.99 L92.93,37.80 L92.68,36.63 L92.40,35.48 L92.09,34.35 L91.76,33.24 L91.40,32.15 L91.02,31.08 L90.61,30.04 L90.17,29.03 L89.71,28.04 L89.23,27.08 L88.72,26.14 L88.19,25.23 L87.63,24.35 L87.05,23.51 L86.45,22.69 L85.82,21.90 L85.18,21.14 L84.51,20.42 L83.83,19.73 L83.12,19.07 L82.39,18.45 L81.65,17.86 L80.89,17.30 L80.11,16.79 L79.31,16.30 L78.50,15.86 L77.67,15.45 L76.83,15.07 L75.97,14.74" fill="none" stroke="#5AA6FF" stroke-width="0.5" stroke-linecap="round" opacity="0.24"></path><path d="M60.00,105.11 L61.34,104.96 L62.67,104.79 L64.00,104.57 L65.33,104.32 L66.66,104.03 L67.98,103.70 L69.29,103.34 L70.60,102.94 L71.89,102.51 L73.18,102.04 L74.45,101.53 L75.72,100.99 L76.97,100.42 L78.20,99.81 L79.43,99.17 L80.63,98.50 L81.82,97.80 L82.99,97.06 L84.14,96.30 L85.27,95.50 L86.38,94.67 L87.47,93.82 L88.53,92.94 L89.57,92.03 L90.59,91.09 L91.58,90.13 L92.55,89.14 L93.49,88.13 L94.40,87.09 L95.28,86.04 L96.13,84.96 L96.95,83.86 L97.74,82.74 L98.50,81.60 L99.23,80.44 L99.93,79.27 L100.59,78.08 L101.22,76.87 L101.81,75.65 L102.37,74.42 L102.90,73.18 L103.39,71.92 L103.84,70.66 L104.26,69.39 L104.64,68.11 L104.98,66.82 L105.29,65.52 L105.55,64.23 L105.78,62.92 L105.98,61.62 L106.13,60.31 L106.24,59.01 L106.32,57.70 L106.36,56.40 L106.36,55.10 L106.32,53.81 L106.24,52.51 L106.13,51.23 L105.98,49.95 L105.78,48.68 L105.55,47.42 L105.29,46.18 L104.98,44.94 L104.64,43.71 L104.26,42.50 L103.84,41.30 L103.39,40.12 L102.90,38.96 L102.37,37.81 L101.81,36.68 L101.22,35.57 L100.59,34.48 L99.93,33.41 L99.23,32.37 L98.50,31.34" fill="none" stroke="#5AA6FF" stroke-width="0.5" stroke-linecap="round" opacity="0.24"></path><path d="M83.18,101.19 L82.79,101.64 L82.31,102.08 L81.77,102.52 L81.15,102.94 L80.46,103.35 L79.70,103.75 L78.88,104.13" fill="none" stroke="#5AA6FF" stroke-width="0.5" stroke-linecap="round" opacity="0.24"></path><path d="M40.63,103.91 L39.85,103.52 L39.13,103.12 L38.48,102.70 L37.90,102.27 L37.40,101.83 L36.97,101.38 L36.62,100.92 L36.35,100.46 L36.15,99.99 L36.04,99.52 L36.00,99.04 L36.04,98.57 L36.17,98.10 L36.37,97.63 L36.65,97.17 L37.01,96.71 L37.44,96.26 L37.95,95.82 L38.53,95.39 L39.19,94.98 L39.91,94.57 L40.70,94.18 L41.55,93.81 L42.47,93.46 L43.44,93.12 L44.47,92.80 L45.55,92.51 L46.68,92.23 L47.85,91.98 L49.06,91.76 L50.31,91.55 L51.59,91.37 L52.90,91.22 L54.23,91.09 L55.59,90.99 L56.95,90.92 L58.33,90.87 L59.71,90.85 L61.09,90.86 L62.47,90.90 L63.85,90.96 L65.20,91.05 L66.55,91.16 L67.86,91.31 L69.16,91.47 L70.42,91.67 L71.65,91.89 L72.84,92.13 L73.99,92.39 L75.09,92.68 L76.14,92.99 L77.13,93.31 L78.07,93.66 L78.95,94.03 L79.77,94.41 L80.52,94.81 L81.20,95.22 L81.82,95.64 L82.36,96.08 L82.82,96.52 L83.21,96.98 L83.52,97.44 L83.76,97.90 L83.92,98.37 L83.99,98.85 L83.99,99.32 L83.91,99.79 L83.74,100.26 L83.50,100.73 L83.18,101.19" fill="none" stroke="#5AA6FF" stroke-width="0.5" stroke-linecap="round" opacity="0.24"></path><path d="M19.03,84.97 L18.70,84.15 L18.49,83.34 L18.43,82.52 L18.51,81.70 L18.72,80.88 L19.07,80.07 L19.55,79.27 L20.17,78.48 L20.93,77.70 L21.81,76.94 L22.82,76.20 L23.95,75.47 L25.20,74.77 L26.57,74.10 L28.05,73.46 L29.63,72.84 L31.32,72.26 L33.10,71.71 L34.97,71.20 L36.93,70.73 L38.96,70.29 L41.06,69.90 L43.22,69.54 L45.44,69.24 L47.71,68.97 L50.01,68.75 L52.36,68.58 L54.72,68.45 L57.11,68.37 L59.50,68.34 L61.90,68.35 L64.29,68.41 L66.66,68.52 L69.01,68.67 L71.34,68.87 L73.62,69.12 L75.86,69.41 L78.05,69.75 L80.18,70.12 L82.24,70.54 L84.22,71.00 L86.13,71.49 L87.95,72.03 L89.67,72.60 L91.30,73.20 L92.83,73.83 L94.24,74.49 L95.54,75.18 L96.73,75.89 L97.79,76.63 L98.72,77.38 L99.53,78.15 L100.20,78.94 L100.75,79.74 L101.15,80.54 L101.42,81.36 L101.55,82.18 L101.55,83.00 L101.41,83.81 L101.12,84.63 L100.71,85.44" fill="none" stroke="#5AA6FF" stroke-width="0.5" stroke-linecap="round" opacity="0.24"></path><path d="M12.00,59.96 L12.09,59.01 L12.33,58.07 L12.74,57.14 L13.30,56.21 L14.01,55.30 L14.88,54.40 L15.90,53.52 L17.07,52.66 L18.37,51.83 L19.82,51.02 L21.40,50.24 L23.11,49.50 L24.94,48.79 L26.88,48.12 L28.94,47.48 L31.10,46.89 L33.36,46.34 L35.70,45.84 L38.13,45.39 L40.62,44.98 L43.19,44.62 L45.80,44.32 L48.47,44.06 L51.17,43.86 L53.91,43.72 L56.66,43.62 L59.42,43.58 L62.19,43.60 L64.95,43.67 L67.69,43.80 L70.41,43.97 L73.09,44.21 L75.73,44.49 L78.32,44.83 L80.84,45.21 L83.30,45.65 L85.68,46.13 L87.97,46.66 L90.17,47.23 L92.27,47.85 L94.27,48.50 L96.15,49.20 L97.90,49.93 L99.54,50.69 L101.04,51.49 L102.41,52.31 L103.63,53.16 L104.71,54.03 L105.64,54.92 L106.42,55.83 L107.05,56.75 L107.52,57.68 L107.83,58.62 L107.98,59.57" fill="none" stroke="#5AA6FF" stroke-width="0.5" stroke-linecap="round" opacity="0.24"></path><path d="M19.55,34.16 L20.17,33.37 L20.93,32.60 L21.81,31.83 L22.82,31.09 L23.95,30.37 L25.20,29.67 L26.57,29.00 L28.05,28.35 L29.63,27.74 L31.32,27.16 L33.10,26.61 L34.97,26.10 L36.93,25.62 L38.96,25.19 L41.06,24.79 L43.22,24.44 L45.44,24.13 L47.71,23.87 L50.01,23.65 L52.36,23.47 L54.72,23.34 L57.11,23.26 L59.50,23.23 L61.90,23.24 L64.29,23.31 L66.66,23.41 L69.01,23.57 L71.34,23.77 L73.62,24.01 L75.86,24.31 L78.05,24.64 L80.18,25.02 L82.24,25.44 L84.22,25.89 L86.13,26.39 L87.95,26.92 L89.67,27.49 L91.30,28.09 L92.83,28.72 L94.24,29.39 L95.54,30.07 L96.73,30.79 L97.79,31.52 L98.72,32.28 L99.53,33.05 L100.20,33.83" fill="none" stroke="#5AA6FF" stroke-width="0.5" stroke-linecap="round" opacity="0.24"></path><path d="M41.55,15.69 L42.47,15.33 L43.44,15.00 L44.47,14.68 L45.55,14.38 L46.68,14.11 L47.85,13.86 L49.06,13.63 L50.31,13.43 L51.59,13.25 L52.90,13.10 L54.23,12.97 L55.59,12.87 L56.95,12.80 L58.33,12.75 L59.71,12.73 L61.09,12.74 L62.47,12.77 L63.85,12.84 L65.20,12.92 L66.55,13.04 L67.86,13.18 L69.16,13.35 L70.42,13.54 L71.65,13.76 L72.84,14.00 L73.99,14.27 L75.09,14.55 L76.14,14.86 L77.13,15.19 L78.07,15.54" fill="none" stroke="#5AA6FF" stroke-width="0.5" stroke-linecap="round" opacity="0.24"></path><path d="M98.50,88.66 L99.23,87.63 L99.93,86.59 L100.59,85.52 L101.22,84.43 L101.81,83.32 L102.37,82.19 L102.90,81.04 L103.39,79.88 L103.84,78.70 L104.26,77.50 L104.64,76.29 L104.98,75.06 L105.29,73.82 L105.55,72.58 L105.78,71.32 L105.98,70.05 L106.13,68.77 L106.24,67.49 L106.32,66.19 L106.36,64.90 L106.36,63.60 L106.32,62.30 L106.24,60.99 L106.13,59.69 L105.98,58.38 L105.78,57.08 L105.55,55.77 L105.29,54.48 L104.98,53.18 L104.64,51.89 L104.26,50.61 L103.84,49.34 L103.39,48.08 L102.90,46.82 L102.37,45.58 L101.81,44.35 L101.22,43.13 L100.59,41.92 L99.93,40.73 L99.23,39.56 L98.50,38.40 L97.74,37.26 L96.95,36.14 L96.13,35.04 L95.28,33.96 L94.40,32.91 L93.49,31.87 L92.55,30.86 L91.58,29.87 L90.59,28.91 L89.57,27.97 L88.53,27.06 L87.47,26.18 L86.38,25.33 L85.27,24.50 L84.14,23.70 L82.99,22.94 L81.82,22.20 L80.63,21.50 L79.43,20.83 L78.20,20.19 L76.97,19.58 L75.72,19.01 L74.45,18.47 L73.18,17.96 L71.89,17.49 L70.60,17.06 L69.29,16.66 L67.98,16.30 L66.66,15.97 L65.33,15.68 L64.00,15.43 L62.67,15.21 L61.34,15.04 L60.00,14.89" fill="none" stroke="#5AA6FF" stroke-width="0.7" stroke-linecap="round"></path><path d="M75.97,105.26 L76.83,104.93 L77.67,104.55 L78.50,104.14 L79.31,103.70 L80.11,103.21 L80.89,102.70 L81.65,102.14 L82.39,101.55 L83.12,100.93 L83.83,100.27 L84.51,99.58 L85.18,98.86 L85.82,98.10 L86.45,97.31 L87.05,96.49 L87.63,95.65 L88.19,94.77 L88.72,93.86 L89.23,92.92 L89.71,91.96 L90.17,90.97 L90.61,89.96 L91.02,88.92 L91.40,87.85 L91.76,86.76 L92.09,85.65 L92.40,84.52 L92.68,83.37 L92.93,82.20 L93.15,81.01 L93.35,79.81 L93.52,78.58 L93.66,77.34 L93.77,76.09 L93.85,74.83 L93.91,73.55 L93.94,72.26 L93.94,70.96 L93.91,69.65 L93.85,68.33 L93.77,67.01 L93.66,65.68 L93.52,64.34 L93.35,63.00 L93.15,61.66 L92.93,60.32 L92.68,58.98 L92.40,57.64 L92.09,56.30 L91.76,54.96 L91.40,53.63 L91.02,52.30 L90.61,50.98 L90.17,49.67 L89.71,48.37 L89.23,47.07 L88.72,45.79 L88.19,44.51 L87.63,43.25 L87.05,42.01 L86.45,40.78 L85.82,39.56 L85.18,38.37 L84.51,37.19 L83.83,36.03 L83.12,34.89 L82.39,33.77 L81.65,32.67 L80.89,31.59 L80.11,30.54 L79.31,29.51 L78.50,28.51 L77.67,27.53 L76.83,26.59 L75.97,25.66 L75.10,24.77 L74.22,23.91 L73.33,23.08 L72.42,22.27 L71.51,21.50 L70.58,20.76 L69.65,20.05 L68.71,19.38 L67.76,18.74 L66.80,18.14 L65.84,17.57 L64.87,17.03 L63.90,16.53 L62.93,16.07 L61.96,15.64 L60.98,15.25 L60.00,14.89" fill="none" stroke="#5AA6FF" stroke-width="0.7" stroke-linecap="round"></path><path d="M64.55,107.78 L64.88,107.71 L65.21,107.60 L65.53,107.45 L65.85,107.26 L66.16,107.03 L66.47,106.77 L66.77,106.46 L67.07,106.12 L67.36,105.73 L67.65,105.31 L67.92,104.85 L68.20,104.36 L68.46,103.82 L68.72,103.26 L68.97,102.65 L69.22,102.01 L69.45,101.33 L69.68,100.62 L69.90,99.88 L70.11,99.10 L70.32,98.30 L70.51,97.46 L70.70,96.58 L70.88,95.68 L71.04,94.75 L71.20,93.79 L71.35,92.80 L71.49,91.78 L71.63,90.74 L71.75,89.67 L71.86,88.58 L71.96,87.46 L72.05,86.32 L72.13,85.16 L72.21,83.98 L72.27,82.78 L72.32,81.56 L72.36,80.32 L72.39,79.06 L72.41,77.79 L72.42,76.51 L72.42,75.21 L72.41,73.89 L72.39,72.57 L72.36,71.23 L72.32,69.89 L72.27,68.54 L72.21,67.18 L72.13,65.81 L72.05,64.44 L71.96,63.07 L71.86,61.69 L71.75,60.32 L71.63,58.94 L71.49,57.56 L71.35,56.19 L71.20,54.81 L71.04,53.45 L70.88,52.08 L70.70,50.73 L70.51,49.38 L70.32,48.04 L70.11,46.71 L69.90,45.40 L69.68,44.09 L69.45,42.80 L69.22,41.52 L68.97,40.26 L68.72,39.01 L68.46,37.78 L68.20,36.57 L67.92,35.38 L67.65,34.21 L67.36,33.06 L67.07,31.93 L66.77,30.83 L66.47,29.75 L66.16,28.69 L65.85,27.66 L65.53,26.66 L65.21,25.69 L64.88,24.74 L64.55,23.83 L64.21,22.94 L63.87,22.09 L63.53,21.26 L63.19,20.47 L62.84,19.71 L62.49,18.99 L62.14,18.30 L61.78,17.64 L61.43,17.02 L61.07,16.43 L60.72,15.88 L60.36,15.37 L60.00,14.89" fill="none" stroke="#5AA6FF" stroke-width="0.7" stroke-linecap="round"></path><path d="M55.45,107.78 L55.12,107.71 L54.79,107.60 L54.47,107.45 L54.15,107.26 L53.84,107.03 L53.53,106.77 L53.23,106.46 L52.93,106.12 L52.64,105.73 L52.35,105.31 L52.08,104.85 L51.80,104.36 L51.54,103.82 L51.28,103.26 L51.03,102.65 L50.78,102.01 L50.55,101.33 L50.32,100.62 L50.10,99.88 L49.89,99.10 L49.68,98.30 L49.49,97.46 L49.30,96.58 L49.12,95.68 L48.96,94.75 L48.80,93.79 L48.65,92.80 L48.51,91.78 L48.37,90.74 L48.25,89.67 L48.14,88.58 L48.04,87.46 L47.95,86.32 L47.87,85.16 L47.79,83.98 L47.73,82.78 L47.68,81.56 L47.64,80.32 L47.61,79.06 L47.59,77.79 L47.58,76.51 L47.58,75.21 L47.59,73.89 L47.61,72.57 L47.64,71.23 L47.68,69.89 L47.73,68.54 L47.79,67.18 L47.87,65.81 L47.95,64.44 L48.04,63.07 L48.14,61.69 L48.25,60.32 L48.37,58.94 L48.51,57.56 L48.65,56.19 L48.80,54.81 L48.96,53.45 L49.12,52.08 L49.30,50.73 L49.49,49.38 L49.68,48.04 L49.89,46.71 L50.10,45.40 L50.32,44.09 L50.55,42.80 L50.78,41.52 L51.03,40.26 L51.28,39.01 L51.54,37.78 L51.80,36.57 L52.08,35.38 L52.35,34.21 L52.64,33.06 L52.93,31.93 L53.23,30.83 L53.53,29.75 L53.84,28.69 L54.15,27.66 L54.47,26.66 L54.79,25.69 L55.12,24.74 L55.45,23.83 L55.79,22.94 L56.13,22.09 L56.47,21.26 L56.81,20.47 L57.16,19.71 L57.51,18.99 L57.86,18.30 L58.22,17.64 L58.57,17.02 L58.93,16.43 L59.28,15.88 L59.64,15.37 L60.00,14.89" fill="none" stroke="#5AA6FF" stroke-width="0.7" stroke-linecap="round"></path><path d="M44.03,105.26 L43.17,104.93 L42.33,104.55 L41.50,104.14 L40.69,103.70 L39.89,103.21 L39.11,102.70 L38.35,102.14 L37.61,101.55 L36.88,100.93 L36.17,100.27 L35.49,99.58 L34.82,98.86 L34.18,98.10 L33.55,97.31 L32.95,96.49 L32.37,95.65 L31.81,94.77 L31.28,93.86 L30.77,92.92 L30.29,91.96 L29.83,90.97 L29.39,89.96 L28.98,88.92 L28.60,87.85 L28.24,86.76 L27.91,85.65 L27.60,84.52 L27.32,83.37 L27.07,82.20 L26.85,81.01 L26.65,79.81 L26.48,78.58 L26.34,77.34 L26.23,76.09 L26.15,74.83 L26.09,73.55 L26.06,72.26 L26.06,70.96 L26.09,69.65 L26.15,68.33 L26.23,67.01 L26.34,65.68 L26.48,64.34 L26.65,63.00 L26.85,61.66 L27.07,60.32 L27.32,58.98 L27.60,57.64 L27.91,56.30 L28.24,54.96 L28.60,53.63 L28.98,52.30 L29.39,50.98 L29.83,49.67 L30.29,48.37 L30.77,47.07 L31.28,45.79 L31.81,44.51 L32.37,43.25 L32.95,42.01 L33.55,40.78 L34.18,39.56 L34.82,38.37 L35.49,37.19 L36.17,36.03 L36.88,34.89 L37.61,33.77 L38.35,32.67 L39.11,31.59 L39.89,30.54 L40.69,29.51 L41.50,28.51 L42.33,27.53 L43.17,26.59 L44.03,25.66 L44.90,24.77 L45.78,23.91 L46.67,23.08 L47.58,22.27 L48.49,21.50 L49.42,20.76 L50.35,20.05 L51.29,19.38 L52.24,18.74 L53.20,18.14 L54.16,17.57 L55.13,17.03 L56.10,16.53 L57.07,16.07 L58.04,15.64 L59.02,15.25 L60.00,14.89" fill="none" stroke="#5AA6FF" stroke-width="0.7" stroke-linecap="round"></path><path d="M21.50,88.66 L20.77,87.63 L20.07,86.59 L19.41,85.52 L18.78,84.43 L18.19,83.32 L17.63,82.19 L17.10,81.04 L16.61,79.88 L16.16,78.70 L15.74,77.50 L15.36,76.29 L15.02,75.06 L14.71,73.82 L14.45,72.58 L14.22,71.32 L14.02,70.05 L13.87,68.77 L13.76,67.49 L13.68,66.19 L13.64,64.90 L13.64,63.60 L13.68,62.30 L13.76,60.99 L13.87,59.69 L14.02,58.38 L14.22,57.08 L14.45,55.77 L14.71,54.48 L15.02,53.18 L15.36,51.89 L15.74,50.61 L16.16,49.34 L16.61,48.08 L17.10,46.82 L17.63,45.58 L18.19,44.35 L18.78,43.13 L19.41,41.92 L20.07,40.73 L20.77,39.56 L21.50,38.40 L22.26,37.26 L23.05,36.14 L23.87,35.04 L24.72,33.96 L25.60,32.91 L26.51,31.87 L27.45,30.86 L28.42,29.87 L29.41,28.91 L30.43,27.97 L31.47,27.06 L32.53,26.18 L33.62,25.33 L34.73,24.50 L35.86,23.70 L37.01,22.94 L38.18,22.20 L39.37,21.50 L40.57,20.83 L41.80,20.19 L43.03,19.58 L44.28,19.01 L45.55,18.47 L46.82,17.96 L48.11,17.49 L49.40,17.06 L50.71,16.66 L52.02,16.30 L53.34,15.97 L54.67,15.68 L56.00,15.43 L57.33,15.21 L58.66,15.04 L60.00,14.89" fill="none" stroke="#5AA6FF" stroke-width="0.7" stroke-linecap="round"></path><path d="M22.26,30.35 L23.05,29.37 L23.87,28.42 L24.72,27.50 L25.60,26.60 L26.51,25.73 L27.45,24.89 L28.42,24.08 L29.41,23.30 L30.43,22.55 L31.47,21.83 L32.53,21.15 L33.62,20.49 L34.73,19.87 L35.86,19.28 L37.01,18.72 L38.18,18.20 L39.37,17.72 L40.57,17.26 L41.80,16.85 L43.03,16.47 L44.28,16.13 L45.55,15.82 L46.82,15.55 L48.11,15.31 L49.40,15.12 L50.71,14.96 L52.02,14.84 L53.34,14.75 L54.67,14.71 L56.00,14.70 L57.33,14.72 L58.66,14.79 L60.00,14.89" fill="none" stroke="#5AA6FF" stroke-width="0.7" stroke-linecap="round"></path><path d="M44.90,14.44 L45.78,14.18 L46.67,13.96 L47.58,13.78 L48.49,13.63 L49.42,13.52 L50.35,13.46 L51.29,13.43 L52.24,13.44 L53.20,13.48 L54.16,13.57 L55.13,13.70 L56.10,13.86 L57.07,14.06 L58.04,14.30 L59.02,14.58 L60.00,14.89" fill="none" stroke="#5AA6FF" stroke-width="0.7" stroke-linecap="round"></path><path d="M55.79,12.19 L56.13,12.20 L56.47,12.25 L56.81,12.34 L57.16,12.46 L57.51,12.63 L57.86,12.84 L58.22,13.08 L58.57,13.37 L58.93,13.69 L59.28,14.06 L59.64,14.46 L60.00,14.89" fill="none" stroke="#5AA6FF" stroke-width="0.7" stroke-linecap="round"></path><path d="M64.21,12.19 L63.87,12.20 L63.53,12.25 L63.19,12.34 L62.84,12.46 L62.49,12.63 L62.14,12.84 L61.78,13.08 L61.43,13.37 L61.07,13.69 L60.72,14.06 L60.36,14.46 L60.00,14.89" fill="none" stroke="#5AA6FF" stroke-width="0.7" stroke-linecap="round"></path><path d="M75.10,14.44 L74.22,14.18 L73.33,13.96 L72.42,13.78 L71.51,13.63 L70.58,13.52 L69.65,13.46 L68.71,13.43 L67.76,13.44 L66.80,13.48 L65.84,13.57 L64.87,13.70 L63.90,13.86 L62.93,14.06 L61.96,14.30 L60.98,14.58 L60.00,14.89" fill="none" stroke="#5AA6FF" stroke-width="0.7" stroke-linecap="round"></path><path d="M97.74,30.35 L96.95,29.37 L96.13,28.42 L95.28,27.50 L94.40,26.60 L93.49,25.73 L92.55,24.89 L91.58,24.08 L90.59,23.30 L89.57,22.55 L88.53,21.83 L87.47,21.15 L86.38,20.49 L85.27,19.87 L84.14,19.28 L82.99,18.72 L81.82,18.20 L80.63,17.72 L79.43,17.26 L78.20,16.85 L76.97,16.47 L75.72,16.13 L74.45,15.82 L73.18,15.55 L71.89,15.31 L70.60,15.12 L69.29,14.96 L67.98,14.84 L66.66,14.75 L65.33,14.71 L64.00,14.70 L62.67,14.72 L61.34,14.79 L60.00,14.89" fill="none" stroke="#5AA6FF" stroke-width="0.7" stroke-linecap="round"></path><path d="M78.00,104.49 L77.05,104.84 L76.05,105.17 L75.00,105.47 L73.89,105.76 L72.74,106.02 L71.55,106.26 L70.32,106.47 L69.05,106.66 L67.76,106.83 L66.43,106.97 L65.09,107.08 L63.73,107.17 L62.36,107.23 L60.98,107.26 L59.60,107.27 L58.21,107.25 L56.84,107.20 L55.47,107.12 L54.12,107.02 L52.79,106.89 L51.49,106.74 L50.21,106.56 L48.96,106.35 L47.75,106.12 L46.58,105.87 L45.46,105.59 L44.38,105.30 L43.36,104.98 L42.39,104.64 L41.48,104.28" fill="none" stroke="#5AA6FF" stroke-width="0.7" stroke-linecap="round"></path><path d="M100.15,86.23 L99.47,87.02 L98.65,87.79 L97.70,88.54 L96.63,89.27 L95.44,89.98 L94.13,90.67 L92.70,91.33 L91.17,91.96 L89.53,92.56 L87.80,93.12 L85.97,93.65 L84.06,94.15 L82.07,94.60 L80.00,95.02 L77.87,95.39 L75.68,95.72 L73.43,96.01 L71.14,96.25 L68.82,96.45 L66.46,96.60 L64.09,96.70 L61.70,96.76 L59.30,96.77 L56.91,96.73 L54.52,96.65 L52.16,96.51 L49.82,96.34 L47.52,96.11 L45.25,95.85 L43.04,95.53 L40.88,95.18 L38.78,94.78 L36.76,94.34 L34.81,93.86 L32.95,93.35 L31.18,92.80 L29.50,92.21 L27.92,91.60 L26.45,90.95 L25.09,90.27 L23.85,89.57 L22.73,88.85 L21.73,88.10 L20.86,87.34 L20.12,86.56 L19.51,85.77" fill="none" stroke="#5AA6FF" stroke-width="0.7" stroke-linecap="round"></path><path d="M100.15,86.23" fill="none" stroke="#5AA6FF" stroke-width="0.7" stroke-linecap="round"></path><path d="M106.36,64.25 L105.57,65.16 L104.63,66.04 L103.54,66.91 L102.30,67.76 L100.92,68.58 L99.41,69.37 L97.76,70.13 L95.99,70.86 L94.10,71.55 L92.10,72.21 L89.99,72.82 L87.78,73.39 L85.48,73.91 L83.10,74.39 L80.63,74.82 L78.10,75.20 L75.51,75.54 L72.87,75.82 L70.18,76.04 L67.46,76.22 L64.72,76.34 L61.96,76.40 L59.19,76.41 L56.43,76.37 L53.68,76.27 L50.95,76.12 L48.25,75.92 L45.58,75.66 L42.97,75.35 L40.41,74.99 L37.92,74.58 L35.50,74.12 L33.17,73.61 L30.92,73.06 L28.77,72.47 L26.72,71.83 L24.78,71.15 L22.96,70.44 L21.26,69.69 L19.69,68.91 L18.26,68.11 L16.96,67.27 L15.81,66.41 L14.80,65.53 L13.95,64.63 L13.24,63.71 L12.70,62.79 L12.31,61.85 L12.07,60.91" fill="none" stroke="#5AA6FF" stroke-width="0.7" stroke-linecap="round"></path><path d="M107.98,60.51 L107.81,61.46 L107.49,62.40 L107.00,63.33 L106.36,64.25" fill="none" stroke="#5AA6FF" stroke-width="0.7" stroke-linecap="round"></path><path d="M100.15,41.13 L99.47,41.91 L98.65,42.68 L97.70,43.44 L96.63,44.17 L95.44,44.88 L94.13,45.56 L92.70,46.22 L91.17,46.85 L89.53,47.45 L87.80,48.02 L85.97,48.55 L84.06,49.04 L82.07,49.50 L80.00,49.91 L77.87,50.28 L75.68,50.62 L73.43,50.90 L71.14,51.14 L68.82,51.34 L66.46,51.49 L64.09,51.60 L61.70,51.65 L59.30,51.66 L56.91,51.63 L54.52,51.54 L52.16,51.41 L49.82,51.23 L47.52,51.01 L45.25,50.74 L43.04,50.43 L40.88,50.07 L38.78,49.67 L36.76,49.24 L34.81,48.76 L32.95,48.24 L31.18,47.69 L29.50,47.11 L27.92,46.49 L26.45,45.84 L25.09,45.17 L23.85,44.47 L22.73,43.74 L21.73,43.00 L20.86,42.24 L20.12,41.46 L19.51,40.66 L19.03,39.86 L18.70,39.05 L18.49,38.23 L18.43,37.41 L18.51,36.59 L18.72,35.78 L19.07,34.97" fill="none" stroke="#5AA6FF" stroke-width="0.7" stroke-linecap="round"></path><path d="M100.75,34.63 L101.15,35.44 L101.42,36.25 L101.55,37.07 L101.55,37.89 L101.41,38.71 L101.12,39.52 L100.71,40.33 L100.15,41.13" fill="none" stroke="#5AA6FF" stroke-width="0.7" stroke-linecap="round"></path><path d="M83.18,23.06 L82.79,23.52 L82.31,23.96 L81.77,24.39 L81.15,24.82 L80.46,25.23 L79.70,25.62 L78.88,26.00 L78.00,26.37 L77.05,26.71 L76.05,27.04 L75.00,27.35 L73.89,27.63 L72.74,27.89 L71.55,28.13 L70.32,28.35 L69.05,28.54 L67.76,28.71 L66.43,28.85 L65.09,28.96 L63.73,29.05 L62.36,29.11 L60.98,29.14 L59.60,29.15 L58.21,29.12 L56.84,29.07 L55.47,29.00 L54.12,28.90 L52.79,28.77 L51.49,28.61 L50.21,28.43 L48.96,28.23 L47.75,28.00 L46.58,27.74 L45.46,27.47 L44.38,27.17 L43.36,26.85 L42.39,26.51 L41.48,26.16 L40.63,25.78 L39.85,25.40 L39.13,24.99 L38.48,24.57 L37.90,24.14 L37.40,23.70 L36.97,23.25 L36.62,22.79 L36.35,22.33 L36.15,21.86 L36.04,21.39 L36.00,20.92 L36.04,20.45 L36.17,19.97 L36.37,19.51 L36.65,19.04 L37.01,18.59 L37.44,18.14 L37.95,17.70 L38.53,17.27 L39.19,16.85 L39.91,16.45 L40.70,16.06" fill="none" stroke="#5AA6FF" stroke-width="0.7" stroke-linecap="round"></path><path d="M78.95,15.90 L79.77,16.28 L80.52,16.68 L81.20,17.09 L81.82,17.52 L82.36,17.95 L82.82,18.40 L83.21,18.85 L83.52,19.31 L83.76,19.78 L83.92,20.25 L83.99,20.72 L83.99,21.19 L83.91,21.67 L83.74,22.14 L83.50,22.60 L83.18,23.06" fill="none" stroke="#5AA6FF" stroke-width="0.7" stroke-linecap="round"></path><circle cx="60" cy="60" r="48" fill="none" stroke="#5AA6FF" stroke-width="0.735"></circle></g></svg><path d="M538.919921875 311.298828125V168.701171875H568.109375V287.0859375H629.646484375V311.298828125ZM649.07421875 311.298828125V204.302734375H677.78515625V311.298828125ZM663.4296875 190.330078125Q656.921875 190.330078125 652.328125 186.0234375Q647.734375 181.716796875 647.734375 175.591796875Q647.734375 169.466796875 652.328125 165.16015625Q656.921875 160.853515625 663.4296875 160.853515625Q669.9375 160.853515625 674.5791015625 165.1123046875Q679.220703125 169.37109375 679.220703125 175.591796875Q679.220703125 181.716796875 674.5791015625 186.0234375Q669.9375 190.330078125 663.4296875 190.330078125ZM761.716796875 204.302734375V226.21875H739.322265625V311.298828125H710.70703125V226.21875H691.853515625V204.302734375H710.70703125V196.072265625Q710.70703125 184.68359375 715.2529296875 177.123046875Q719.798828125 169.5625 727.646484375 165.7822265625Q735.494140625 162.001953125 745.447265625 162.001953125Q752.2421875 162.001953125 757.8408203125 163.1025390625Q763.439453125 164.203125 766.0234375 164.96875L760.85546875 186.59765625Q759.037109375 186.119140625 756.5966796875 185.640625Q754.15625 185.162109375 751.28515625 185.162109375Q744.77734375 185.162109375 742.0498046875 188.2724609375Q739.322265625 191.3828125 739.322265625 197.029296875V204.302734375ZM833.302734375 204.302734375V226.21875H813.30078125V280.00390625Q813.30078125 285.076171875 815.5498046875 287.5166015625Q817.798828125 289.95703125 823.0625 289.95703125Q824.689453125 289.95703125 827.65625 289.5263671875Q830.623046875 289.095703125 832.154296875 288.712890625L836.26953125 310.24609375Q831.484375 311.681640625 826.7470703125 312.255859375Q822.009765625 312.830078125 817.703125 312.830078125Q801.625 312.830078125 793.107421875 304.982421875Q784.58984375 297.134765625 784.58984375 282.4921875V226.21875H769.8515625V204.302734375H784.58984375V178.845703125H813.30078125V204.302734375ZM900.294921875 313.404296875Q883.9296875 313.404296875 872.0625 306.705078125Q860.1953125 300.005859375 853.8310546875 287.66015625Q847.466796875 275.314453125 847.466796875 258.375Q847.466796875 241.818359375 853.783203125 229.376953125Q860.099609375 216.935546875 871.6796875 209.94921875Q883.259765625 202.962890625 898.859375 202.962890625Q909.38671875 202.962890625 918.478515625 206.3125Q927.5703125 209.662109375 934.4609375 216.4091796875Q941.3515625 223.15625 945.2275390625 233.30078125Q949.103515625 243.4453125 949.103515625 257.2265625V265.265625H875.890625Q876.177734375 273.400390625 879.048828125 279.142578125Q882.111328125 285.458984375 887.7099609375 288.6171875Q893.30859375 291.775390625 900.7734375 291.775390625Q905.845703125 291.775390625 909.9609375 290.33984375Q914.076171875 288.904296875 916.9951171875 286.0810546875Q919.9140625 283.2578125 921.4453125 279.142578125L947.4765625 284.0234375Q944.892578125 292.828125 938.48046875 299.4794921875Q932.068359375 306.130859375 922.4501953125 309.767578125Q912.83203125 313.404296875 900.294921875 313.404296875ZM876.08203125 247.2734375H921.4453125Q920.87109375 241.9140625 919.1484375 237.51171875Q916.564453125 231.38671875 911.5400390625 227.9892578125Q906.515625 224.591796875 899.146484375 224.591796875Q891.681640625 224.591796875 886.4658203125 228.037109375Q881.25 231.482421875 878.5703125 237.3203125Q876.560546875 241.818359375 876.08203125 247.2734375ZM1007.76953125 313.1171875Q995.51953125 313.1171875 985.6142578125 306.7529296875Q975.708984375 300.388671875 969.966796875 288.0908203125Q964.224609375 275.79296875 964.224609375 257.9921875Q964.224609375 239.712890625 970.158203125 227.462890625Q976.091796875 215.212890625 985.94921875 209.087890625Q995.806640625 202.962890625 1007.673828125 202.962890625Q1016.765625 202.962890625 1022.794921875 206.025390625Q1028.82421875 209.087890625 1032.556640625 213.5859375Q1036.2890625 218.083984375 1038.107421875 222.294921875H1039.064453125V168.701171875H1067.775390625V311.298828125H1039.54296875V294.16796875H1038.107421875Q1036.193359375 298.474609375 1032.4130859375 302.8291015625Q1028.6328125 307.18359375 1022.603515625 310.150390625Q1016.57421875 313.1171875 1007.76953125 313.1171875ZM1016.669921875 290.052734375Q1023.943359375 290.052734375 1029.111328125 286.033203125Q1034.279296875 282.013671875 1036.958984375 274.7880859375Q1039.638671875 267.5625 1039.638671875 257.896484375Q1039.638671875 248.134765625 1037.0068359375 241.0048828125Q1034.375 233.875 1029.20703125 229.9033203125Q1024.0390625 225.931640625 1016.669921875 225.931640625Q1009.109375 225.931640625 1003.9892578125 230.046875Q998.869140625 234.162109375 996.28515625 241.33984375Q993.701171875 248.517578125 993.701171875 257.896484375Q993.701171875 267.275390625 996.3330078125 274.548828125Q998.96484375 281.822265625 1004.0849609375 285.9375Q1009.205078125 290.052734375 1016.669921875 290.052734375Z" fill="#F4FFFA"></path><path d="M1166.42234375 313.787109375Q1151.014140625 313.787109375 1139.6733203125 308.810546875Q1128.3325 303.833984375 1121.920390625 294.8857421875Q1115.50828125 285.9375 1114.646953125 273.974609375H1133.3090625Q1134.0746875 282.013671875 1138.764140625 287.2294921875Q1143.45359375 292.4453125 1150.7748828125 294.9814453125Q1158.096171875 297.517578125 1166.42234375 297.517578125Q1176.088359375 297.517578125 1183.7924609375 294.359375Q1191.4965625 291.201171875 1195.994609375 285.458984375Q1200.49265625 279.716796875 1200.49265625 272.15625Q1200.49265625 265.265625 1196.6166796875 260.958984375Q1192.740703125 256.65234375 1186.32859375 253.876953125Q1179.916484375 251.1015625 1172.260234375 248.99609375L1155.033671875 244.115234375Q1137.807109375 239.234375 1128.236796875 230.142578125Q1118.666484375 221.05078125 1118.666484375 206.88671875Q1118.666484375 194.828125 1125.174296875 185.7841796875Q1131.682109375 176.740234375 1142.783671875 171.763671875Q1153.885234375 166.787109375 1167.666484375 166.787109375Q1181.73484375 166.787109375 1192.549296875 171.763671875Q1203.36375 176.740234375 1209.6323046875 185.3056640625Q1215.900859375 193.87109375 1216.283671875 204.685546875H1198.482890625Q1197.23875 194.25390625 1188.529765625 188.5595703125Q1179.82078125 182.865234375 1167.092265625 182.865234375Q1157.904765625 182.865234375 1150.9662890625 185.8798828125Q1144.0278125 188.89453125 1140.1996875 194.1103515625Q1136.3715625 199.326171875 1136.3715625 206.025390625Q1136.3715625 213.490234375 1141.0131640625 218.0361328125Q1145.654765625 222.58203125 1152.0190234375 225.1181640625Q1158.38328125 227.654296875 1163.55125 229.08984375L1177.811015625 233.013671875Q1183.553203125 234.544921875 1190.4916796875 237.224609375Q1197.43015625 239.904296875 1203.7465625 244.3544921875Q1210.06296875 248.8046875 1214.1303515625 255.6474609375Q1218.197734375 262.490234375 1218.197734375 272.443359375Q1218.197734375 284.119140625 1212.1205859375 293.498046875Q1206.0434375 302.876953125 1194.463359375 308.33203125Q1182.88328125 313.787109375 1166.42234375 313.787109375ZM1244.420390625 311.298828125V204.302734375H1261.646953125V311.298828125ZM1253.129375 186.7890625Q1248.248515625 186.7890625 1244.7075 183.439453125Q1241.166484375 180.08984375 1241.166484375 175.400390625Q1241.166484375 170.615234375 1244.7075 167.3134765625Q1248.248515625 164.01171875 1253.129375 164.01171875Q1258.1059375 164.01171875 1261.646953125 167.3134765625Q1265.18796875 170.615234375 1265.18796875 175.400390625Q1265.18796875 180.08984375 1261.646953125 183.439453125Q1258.1059375 186.7890625 1253.129375 186.7890625ZM1335.24265625 353.599609375Q1323.37546875 353.599609375 1314.7143359375 350.5849609375Q1306.053203125 347.5703125 1300.311015625 342.59375Q1294.568828125 337.6171875 1291.21921875 331.779296875L1305.191875 322.783203125Q1307.48875 325.845703125 1310.8862109375 329.578125Q1314.283671875 333.310546875 1320.0737109375 335.9423828125Q1325.86375 338.57421875 1335.24265625 338.57421875Q1348.066875 338.57421875 1356.3451953125 332.44921875Q1364.623515625 326.32421875 1364.623515625 313.1171875V291.6796875H1362.9965625Q1361.178203125 294.7421875 1357.8764453125 298.953125Q1354.5746875 303.1640625 1348.4018359375 306.3701171875Q1342.228984375 309.576171875 1331.893046875 309.576171875Q1319.068828125 309.576171875 1308.82859375 303.4990234375Q1298.588359375 297.421875 1292.654765625 285.74609375Q1286.721171875 274.0703125 1286.721171875 257.322265625Q1286.721171875 240.765625 1292.5590625 228.5634765625Q1298.396953125 216.361328125 1308.6850390625 209.662109375Q1318.973125 202.962890625 1332.275859375 202.962890625Q1342.611796875 202.962890625 1348.7846484375 206.3603515625Q1354.9575 209.7578125 1358.307109375 214.16015625Q1361.65671875 218.5625 1363.475078125 221.43359375H1365.10203125V204.302734375H1381.850078125V314.07421875Q1381.850078125 327.85546875 1375.629375 336.6123046875Q1369.408671875 345.369140625 1358.8334765625 349.484375Q1348.25828125 353.599609375 1335.24265625 353.599609375ZM1334.764140625 294.263671875Q1344.525859375 294.263671875 1351.225078125 289.8134765625Q1357.924296875 285.36328125 1361.369609375 276.9892578125Q1364.814921875 268.615234375 1364.814921875 256.939453125Q1364.814921875 245.55078125 1361.4174609375 236.8896484375Q1358.02 228.228515625 1351.32078125 223.2998046875Q1344.6215625 218.37109375 1334.764140625 218.37109375Q1324.619609375 218.37109375 1317.8246875 223.5869140625Q1311.029765625 228.802734375 1307.6323046875 237.51171875Q1304.23484375 246.220703125 1304.23484375 256.939453125Q1304.23484375 267.9453125 1307.68015625 276.3671875Q1311.12546875 284.7890625 1317.920390625 289.5263671875Q1324.7153125 294.263671875 1334.764140625 294.263671875ZM1429.318828125 247.177734375V311.298828125H1412.092265625V204.302734375H1428.64890625L1428.744609375 224.11328125Q1433.24265625 214.064453125 1440.3246875 209.18359375Q1449.32078125 202.962890625 1461.475078125 202.962890625Q1472.28953125 202.962890625 1480.424296875 207.4130859375Q1488.5590625 211.86328125 1493.1049609375 220.8115234375Q1497.650859375 229.759765625 1497.650859375 243.349609375V311.298828125H1480.424296875V244.78515625Q1480.424296875 232.439453125 1473.9643359375 225.453125Q1467.504375 218.466796875 1456.307109375 218.466796875Q1448.650859375 218.466796875 1442.525859375 221.81640625Q1436.400859375 225.166015625 1432.85984375 231.578125Q1429.318828125 237.990234375 1429.318828125 247.177734375Z" fill="#2E6BFF"></path></svg>