<svg xmlns="http://www.w3.org/2000/svg" viewBox="0 0 200 200" width="200" height="200" fill="none" stroke="currentColor" stroke-width="1.1" stroke-linecap="round" stroke-linejoin="round" opacity="0.5">
  <!-- Tileable topographic contour-line pattern. Concentric closed loops form a continuous landscape across tile edges. -->

  <!-- Hill cluster A (upper-left, peak near 55,55) -->
  <path d="M 12 12 C 30 4 70 4 96 18 C 118 30 116 60 92 72 C 64 86 26 80 14 56 C 6 40 4 24 12 12 Z"/>
  <path d="M 26 24 C 42 16 72 18 88 32 C 102 44 96 60 76 66 C 54 73 32 66 24 50 C 19 40 20 31 26 24 Z"/>
  <path d="M 40 36 C 52 30 70 32 78 42 C 85 50 80 58 66 60 C 52 62 42 56 38 48 C 35 43 36 39 40 36 Z"/>
  <path d="M 52 44 C 60 41 68 44 70 50 C 72 55 66 58 58 57 C 50 56 47 51 49 47 Z"/>

  <!-- Valley / saddle line sweeping across the middle (edge-continuous left<->right) -->
  <path d="M 0 108 C 30 96 50 122 80 118 C 108 114 120 92 150 96 C 176 100 188 122 200 116"/>
  <path d="M 0 126 C 28 116 52 138 82 134 C 110 130 124 110 152 114 C 178 118 190 136 200 130"/>

  <!-- Hill cluster B (lower-right, peak near 150,150) -->
  <path d="M 188 188 C 170 196 130 196 104 182 C 82 170 84 140 108 128 C 136 114 174 120 186 144 C 194 160 196 176 188 188 Z"/>
  <path d="M 174 176 C 158 184 128 182 112 168 C 98 156 104 140 124 134 C 146 127 168 134 176 150 C 181 160 180 169 174 176 Z"/>
  <path d="M 160 164 C 148 170 130 168 122 158 C 115 150 120 142 134 140 C 148 138 158 144 162 152 C 165 157 164 161 160 164 Z"/>
  <path d="M 148 156 C 140 159 132 156 130 150 C 128 145 134 142 142 143 C 150 144 153 149 151 153 Z"/>

  <!-- Small outlying contour (upper-right corner, wraps with lower-left) -->
  <path d="M 200 40 C 188 30 168 32 160 46 C 154 58 164 70 180 70 C 192 70 200 62 200 54"/>
  <path d="M 0 160 C 12 150 32 152 40 166 C 46 178 36 190 20 190 C 8 190 0 182 0 174"/>
</svg>
