<svg xmlns="http://www.w3.org/2000/svg" viewBox="0 0 1498.3 480"><path d="M19.6171875 348.2578125V131.74218749999997H63.93750000000001V311.49375H157.37343750000002V348.2578125ZM186.87187500000002 348.2578125V185.79843749999998H230.46562500000002V348.2578125ZM208.66875000000005 164.5828125Q198.78750000000002 164.5828125 191.81250000000003 158.04375Q184.83750000000003 151.5046875 184.83750000000003 142.20468749999998Q184.83750000000003 132.9046875 191.81250000000003 126.365625Q198.78750000000002 119.8265625 208.66875000000005 119.8265625Q218.55000000000004 119.8265625 225.59765625000006 126.29296874999999Q232.64531250000005 132.75937499999998 232.64531250000005 142.20468749999998Q232.64531250000005 151.5046875 225.59765625000006 158.04375Q218.55000000000004 164.5828125 208.66875000000005 164.5828125ZM357.9046875 185.79843749999998V219.075H323.9015625V348.2578125H280.453125V219.075H251.82656250000002V185.79843749999998H280.453125V173.3015625Q280.453125 156.00937499999998 287.35546875 144.52968749999997Q294.2578125 133.04999999999998 306.1734375 127.31015624999998Q318.0890625 121.57031249999997 333.2015625 121.57031249999997Q343.51875 121.57031249999997 352.01953125 123.24140624999998Q360.52031250000005 124.9125 364.44375 126.07499999999999L356.596875 158.91562499999998Q353.8359375 158.18906249999998 350.13046875 157.46249999999998Q346.425 156.73593749999998 342.065625 156.73593749999998Q332.18437500000005 156.73593749999998 328.04296875 161.45859374999998Q323.9015625 166.18124999999998 323.9015625 174.7546875V185.79843749999998ZM466.59843750000005 185.79843749999998V219.075H436.22812500000003V300.740625Q436.22812500000003 308.4421875 439.64296875 312.14765624999995Q443.0578125 315.853125 451.05 315.853125Q453.52031250000005 315.853125 458.02500000000003 315.19921875Q462.5296875 314.5453125 464.8546875 313.9640625L471.10312500000003 346.659375Q463.83750000000003 348.8390625 456.64453125 349.7109375Q449.4515625 350.5828125 442.9125 350.5828125Q418.5 350.5828125 405.56718750000005 338.66718749999995Q392.63437500000003 326.7515625 392.63437500000003 304.51875V219.075H370.25625V185.79843749999998H392.63437500000003V147.1453125H436.22812500000003V185.79843749999998ZM568.3171875 351.4546875Q543.46875 351.4546875 525.45 341.2828125Q507.43125000000003 331.1109375 497.76796875 312.365625Q488.1046875 293.6203125 488.1046875 267.9Q488.1046875 242.7609375 497.6953125 223.8703125Q507.28593750000005 204.97968749999998 524.8687500000001 194.371875Q542.4515625 183.7640625 566.1375 183.7640625Q582.121875 183.7640625 595.9265625 188.85Q609.73125 193.9359375 620.19375 204.18046875Q630.65625 214.42499999999998 636.54140625 229.828125Q642.4265625 245.23125 642.4265625 266.15625V278.3625H531.2625Q531.6984375000001 290.7140625 536.0578125000001 299.4328125Q540.7078125 309.0234375 549.2085937500001 313.81875Q557.709375 318.6140625 569.04375 318.6140625Q576.7453125000001 318.6140625 582.9937500000001 316.434375Q589.2421875 314.2546875 593.67421875 309.96796874999995Q598.10625 305.68125 600.4312500000001 299.4328125L639.9562500000001 306.84375Q636.0328125000001 320.2125 626.296875 330.31171874999995Q616.5609375 340.4109375 601.95703125 345.93281249999995Q587.3531250000001 351.4546875 568.3171875 351.4546875ZM531.553125 251.04375H600.4312500000001Q599.559375 242.90625 596.94375 236.221875Q593.0203125 226.921875 585.39140625 221.76328124999998Q577.7625 216.60468749999998 566.5734375000001 216.60468749999998Q555.2390625 216.60468749999998 547.31953125 221.8359375Q539.4 227.0671875 535.3312500000001 235.93124999999998Q532.2796875 242.7609375 531.553125 251.04375ZM731.5031250000001 351.01875Q712.903125 351.01875 697.86328125 341.35546875Q682.8234375000001 331.6921875 674.1046875000001 313.01953125Q665.3859375000001 294.346875 665.3859375000001 267.31875Q665.3859375000001 239.56406249999998 674.3953125 220.96406249999998Q683.4046875 202.3640625 698.371875 193.06406249999998Q713.3390625000001 183.7640625 731.3578125 183.7640625Q745.1625 183.7640625 754.3171875 188.4140625Q763.4718750000001 193.06406249999998 769.1390625000001 199.89374999999998Q774.8062500000001 206.7234375 777.5671875 213.1171875H779.0203125V131.74218749999997H822.6140625V348.2578125H779.746875V322.246875H777.5671875Q774.6609375 328.7859375 768.9210937500001 335.39765624999995Q763.1812500000001 342.009375 754.0265625000001 346.5140625Q744.871875 351.01875 731.5031250000001 351.01875ZM745.0171875000001 315.9984375Q756.0609375 315.9984375 763.9078125000001 309.89531250000005Q771.7546875 303.7921875 775.8234375000001 292.82109375000005Q779.8921875000001 281.85 779.8921875000001 267.1734375Q779.8921875000001 252.3515625 775.8960937500001 241.52578125Q771.9000000000001 230.7 764.0531250000001 224.66953124999998Q756.2062500000001 218.6390625 745.0171875000001 218.6390625Q733.5375 218.6390625 725.7632812500001 224.8875Q717.9890625 231.1359375 714.065625 242.034375Q710.1421875 252.9328125 710.1421875 267.1734375Q710.1421875 281.4140625 714.1382812500001 292.4578125Q718.1343750000001 303.5015625 725.9085937500001 309.75Q733.6828125000001 315.9984375 745.0171875000001 315.9984375Z" fill="#F4FFFA"></path><path d="M972.396375 352.0359375Q949.0010625000001 352.0359375 931.7815312500001 344.47968749999995Q914.562 336.9234375 904.8260625 323.33671875Q895.0901250000001 309.75 893.7823125000001 291.5859375H922.1182500000001Q923.28075 303.7921875 930.4010625000001 311.71171875000005Q937.521375 319.63125 948.63778125 323.48203125Q959.7541875000001 327.3328125 972.396375 327.3328125Q987.0729375000001 327.3328125 998.7705937500001 322.5375Q1010.4682500000001 317.7421875 1017.2979375000001 309.0234375Q1024.127625 300.3046875 1024.127625 288.825Q1024.127625 278.3625 1018.2424687500001 271.8234375Q1012.3573125 265.284375 1002.6213750000001 261.0703125Q992.8854375000001 256.85625 981.2604375000001 253.659375L955.1041875000001 246.2484375Q928.9479375000001 238.83749999999998 914.4166875000001 225.03281249999998Q899.8854375000001 211.22812499999998 899.8854375000001 189.72187499999998Q899.8854375000001 171.4125 909.7666875 157.68046875Q919.6479375 143.94843749999998 936.5041875000001 136.39218749999998Q953.3604375000001 128.83593749999997 974.2854375000001 128.83593749999997Q995.646375 128.83593749999997 1012.0666875000001 136.39218749999998Q1028.487 143.94843749999998 1038.00496875 156.95390625Q1047.5229375000001 169.959375 1048.1041875 186.3796875H1021.0760625Q1019.1870000000001 170.54062499999998 1005.9635625000001 161.89453125Q992.740125 153.2484375 973.4135625000001 153.2484375Q959.4635625000001 153.2484375 948.9284062500001 157.82578124999998Q938.3932500000001 162.403125 932.5807500000001 170.32265625Q926.7682500000001 178.2421875 926.7682500000001 188.4140625Q926.7682500000001 199.7484375 933.8159062500001 206.65078125Q940.8635625000001 213.553125 950.5268437500001 217.40390624999998Q960.1901250000001 221.2546875 968.037 223.434375L989.6885625000001 229.39218749999998Q998.4073125000001 231.7171875 1008.9424687500001 235.7859375Q1019.4776250000001 239.8546875 1029.06825 246.61171875Q1038.658875 253.36874999999998 1044.83465625 263.75859375Q1051.0104375 274.1484375 1051.0104375 289.2609375Q1051.0104375 306.9890625 1041.78309375 321.22968749999995Q1032.55575 335.4703125 1014.9729375000001 343.75312499999995Q997.3901250000001 352.0359375 972.396375 352.0359375ZM1090.8260625 348.2578125V185.79843749999998H1116.9823125V348.2578125ZM1104.0495000000003 159.20624999999998Q1096.6385625000003 159.20624999999998 1091.2620000000002 154.12031249999998Q1085.8854375000003 149.03437499999998 1085.8854375000003 141.91406249999997Q1085.8854375000003 134.64843749999997 1091.2620000000002 129.63515624999997Q1096.6385625000003 124.62187499999999 1104.0495000000003 124.62187499999999Q1111.6057500000002 124.62187499999999 1116.9823125000003 129.63515624999997Q1122.3588750000001 134.64843749999997 1122.3588750000001 141.91406249999997Q1122.3588750000001 149.03437499999998 1116.9823125000003 154.12031249999998Q1111.6057500000002 159.20624999999998 1104.0495000000003 159.20624999999998ZM1228.7276250000002 412.4859375Q1210.7088750000003 412.4859375 1197.5580937500004 407.90859375Q1184.4073125000002 403.33125 1175.6885625000002 395.775Q1166.9698125000002 388.21875 1161.8838750000002 379.3546875L1183.0995000000003 365.6953125Q1186.5870000000002 370.3453125 1191.7455937500004 376.0125Q1196.9041875000003 381.6796875 1205.6955937500002 385.67578125Q1214.487 389.671875 1228.7276250000002 389.671875Q1248.1995000000002 389.671875 1260.7690312500001 380.371875Q1273.3385625 371.071875 1273.3385625 351.01875V318.46875H1270.8682500000002Q1268.1073125000003 323.11875 1263.0940312500002 329.5125Q1258.08075 335.90625 1248.70809375 340.77421875Q1239.3354375000001 345.6421875 1223.6416875000002 345.6421875Q1204.1698125000003 345.6421875 1188.6213750000002 336.41484375Q1173.0729375 327.1875 1164.0635625 309.459375Q1155.0541875000001 291.73125 1155.0541875000001 266.3015625Q1155.0541875000001 241.1625 1163.9182500000002 222.63515625Q1172.7823125000002 204.1078125 1188.4034062500002 193.9359375Q1204.0245000000002 183.7640625 1224.2229375000002 183.7640625Q1239.9166875 183.7640625 1249.2893437500002 188.92265625Q1258.6620000000003 194.08124999999998 1263.7479375000003 200.765625Q1268.8338750000003 207.45 1271.5948125000002 211.809375H1274.065125V185.79843749999998H1299.4948125V352.471875Q1299.4948125 373.396875 1290.0495 386.69296875Q1280.6041875 399.9890625 1264.5471562500002 406.23749999999995Q1248.4901250000003 412.4859375 1228.7276250000002 412.4859375ZM1228.0010625000002 322.3921875Q1242.8229375 322.3921875 1252.9948125 315.63515625Q1263.1666875 308.878125 1268.3979375000001 296.16328125Q1273.6291875000002 283.4484375 1273.6291875000002 265.7203125Q1273.6291875000002 248.428125 1268.4705937500003 235.27734375Q1263.3120000000001 222.12656249999998 1253.1401250000001 214.64296874999997Q1242.9682500000001 207.15937499999998 1228.0010625000002 207.15937499999998Q1212.5979375000002 207.15937499999998 1202.2807500000001 215.07890625Q1191.9635625 222.9984375 1186.8049687500002 236.221875Q1181.6463750000003 249.4453125 1181.6463750000003 265.7203125Q1181.6463750000003 282.43125 1186.877625 295.21875Q1192.1088750000001 308.00625 1202.4260625000002 315.19921875Q1212.7432500000002 322.3921875 1228.0010625000002 322.3921875ZM1371.5698125000001 250.8984375V348.2578125H1345.4135625000001V185.79843749999998H1370.5526250000003L1370.6979375000003 215.87812499999998Q1377.5276250000002 200.62031249999998 1388.2807500000001 193.209375Q1401.9401250000003 183.7640625 1420.3948125000002 183.7640625Q1436.8151250000003 183.7640625 1449.1666875000003 190.52109374999998Q1461.5182500000003 197.278125 1468.4205937500003 210.86484374999998Q1475.3229375000003 224.4515625 1475.3229375000003 245.0859375V348.2578125H1449.1666875000003V247.265625Q1449.1666875000003 228.5203125 1439.3580937500003 217.9125Q1429.5495000000003 207.3046875 1412.5479375000002 207.3046875Q1400.9229375000002 207.3046875 1391.6229375000003 212.390625Q1382.3229375000003 217.4765625 1376.9463750000002 227.2125Q1371.5698125000001 236.9484375 1371.5698125000001 250.8984375Z" fill="#2E6BFF"></path></svg>